<?xml version="1.0" standalone="no"?>
<!DOCTYPE svg PUBLIC "-//W3C//DTD SVG 20010904//EN" "http://www.w3.org/TR/2001/REC-SVG-20010904/DTD/svg10.dtd">
<svg version="1.0" xmlns="http://www.w3.org/2000/svg" width="700.000000pt" height="700.000000pt" viewBox="0 0 700.000000 700.000000" preserveAspectRatio="xMidYMid meet">
  <metadata>
    Created by potrace 1.11, written by Peter Selinger 2001-2013
  </metadata>
  <g transform="translate(0.000000,700.000000) scale(0.100000,-0.100000)" fill="#000000" stroke="none">
    <path
      d="M4305 6680 l-1180 -319 -1242 0 -1243 -1 -2 -332 -3 -333 -315 -84
c-173 -46 -317 -85 -318 -87 -2 -1 140 -535 315 -1186 l318 -1183 3 -1253 2
-1252 333 0 332 0 84 -318 c46 -174 85 -318 86 -319 1 -2 539 141 1195 317
l1194 320 1243 0 1243 0 0 333 0 333 313 83 c171 46 315 86 319 90 3 3 -137
541 -313 1196 l-319 1190 0 1243 0 1242 -333 0 -333 0 -85 317 c-61 230 -88
318 -99 319 -8 1 -546 -141 -1195 -316z m1240 -36 c41 -153 73 -279 71 -281
-1 -2 -508 -2 -1125 -1 l-1122 3 1048 281 c576 155 1049 280 1051 279 1 -1 36
-127 77 -281z m738 -646 c-1 -167 -5 -592 -9 -945 l-6 -643 -1462 -2 -1461 -3
-73 -23 c-334 -103 -533 -324 -623 -692 -20 -83 -23 -120 -23 -305 l-1 -210
1507 -3 1506 -2 -28 -108 c-37 -137 -77 -253 -128 -368 -294 -663 -880 -1186
-1512 -1349 -172 -45 -205 -47 -783 -52 l-559 -5 8 -289 7 -289 -972 0 -972 0
4 1523 c4 1643 1 1566 57 1833 56 272 161 555 291 787 472 840 1312 1373 2269
1440 25 2 702 4 1505 5 l1460 2 -2 -302z m-4191 -7 c-244 -142 -415 -272 -613
-470 -75 -75 -172 -182 -217 -238 -402 -508 -622 -1128 -622 -1756 0 -77 -2
-138 -4 -136 -5 4 -550 2034 -558 2073 -3 16 108 48 1047 301 578 155 1054
283 1060 284 5 0 -37 -26 -93 -58z m4543 -3414 c153 -570 275 -1040 272 -1044
-7 -6 -2073 -563 -2092 -563 -5 0 51 36 125 80 385 229 744 579 975 950 282
454 435 983 435 1509 0 63 2 112 4 110 2 -2 129 -471 281 -1042z m-2996 -1921
c-9 -9 -2103 -567 -2113 -563 -9 4 -86 273 -153 534 l-5 23 1113 3 c613 1
1125 3 1138 5 13 1 22 0 20 -2z"/>
  </g>
</svg>
