<?xml version="1.0" encoding="utf-8"?>
<!-- Generator: Adobe Illustrator 23.0.1, SVG Export Plug-In . SVG Version: 6.00 Build 0)  -->
<svg version="1.1" id="Capa_1" xmlns="http://www.w3.org/2000/svg" xmlns:xlink="http://www.w3.org/1999/xlink" x="0px" y="0px"
	 viewBox="0 0 541 300" style="enable-background:new 0 0 541 300;" xml:space="preserve">
<style type="text/css">
	.st0{fill:#008BD2;}
	.st1{fill:#DADADA;}
	.st2{fill:none;stroke:#485DC5;stroke-width:0.68;}
	.st3{fill:#0085CF;stroke:#485DC5;stroke-width:1.35;}
	.st4{fill:#FFFFFF;stroke:#485DC5;stroke-width:1.35;}
	.st5{fill:#DADADA;stroke:#485DC5;stroke-width:1.35;}
</style>
<title>Mesa de trabajo 1</title>
<g id="Web">
	
		<image style="overflow:visible;opacity:0.5;" width="559" height="317" xlink:href="E400A796589795D3.png"  transform="matrix(1 0 0 1 -9 -9)">
	</image>
	<g>
		<g>
			<g id="Desktop_9_">
				<g id="LOGO-FUGOROBA_9_">
					<polygon id="Shape_12_" class="st0" points="450.6,293.5 537.6,140 442.6,267.6 74.3,143.1 					"/>
					<polygon id="Shape-2_12_" class="st1" points="74.3,143.1 439.7,252.2 537.6,140 433.4,232.9 					"/>
					<polygon id="Shape-3_12_" class="st1" points="74.3,143.1 427.5,219.1 537.6,140 423.2,205 					"/>
					<polygon id="Shape-4_12_" class="st1" points="74.3,143.1 419.1,194.1 537.6,140 416.1,183.9 					"/>
					<polygon id="Shape-5_12_" class="st1" points="74.3,143.1 413.8,175.8 537.6,140 411.6,168.5 					"/>
					<polygon id="Shape-6_12_" class="st1" points="74.3,143.1 410.4,158.9 537.6,140 408.7,154.3 					"/>
					<polygon id="Shape-7_12_" class="st1" points="74.3,143.2 406.4,145.4 537.6,140 405.4,142.9 					"/>
					<g id="LOGO-HORIZONTAL_9_">
						<g id="u_9_">
							<g>
								<path class="st1" d="M161.3,80.2h11.8v30.3c0,2.8,1.3,5.5,3.6,7.2c4.8,3.7,11.6,3.8,16.5,0.2c2.2-1.6,3.5-4.2,3.5-6.9V80.2
									h12.4v30.1c0,6.2-2.7,11.6-8,16.2c-5,4.3-10.4,6.5-16.2,6.5c-6.2,0.1-12.2-2.2-16.7-6.5c-4.5-4-7-9.8-6.9-15.8L161.3,80.2z"
									/>
							</g>
							<g>
								<path class="st2" d="M161.3,80.2h11.8v30.3c0,2.8,1.3,5.5,3.6,7.2c4.8,3.7,11.6,3.8,16.5,0.2c2.2-1.6,3.5-4.2,3.5-6.9V80.2
									h12.4v30.1c0,6.2-2.7,11.6-8,16.2c-5,4.3-10.4,6.5-16.2,6.5c-6.2,0.1-12.2-2.2-16.7-6.5c-4.5-4-7-9.8-6.9-15.8L161.3,80.2z"
									/>
							</g>
						</g>
						<g id="g_9_">
							<g>
								<path class="st1" d="M252.6,130.5c-3.4,1.6-7.2,2.4-11,2.4c-6.3,0.1-12.4-1.9-17.5-5.7c-5.4-4-8.5-9-9.2-14.9
									c-0.2-1.7-0.3-3.3-0.3-5c0-8.3,2.5-15,7.6-20.1c4.9-4.9,11.2-7.3,18.8-7.3c7-0.1,13.8,2.4,19,7.1c5.2,4.4,8.1,10.9,8,17.7
									v26.5c0,5.9-2.5,10.8-7.5,14.8c-4.8,3.8-10.9,5.8-17,5.6h-1c-1.7,0-3.4-0.1-5.1-0.2c-1.6-0.2-3.1-0.6-4.7-1.1v-11.3
									c1.5,0.5,3,0.8,4.5,1.1c1.6,0.2,3.2,0.3,4.8,0.3c1.7,0,3.5-0.2,5.1-0.6c1.3-0.2,2.6-0.6,3.8-1.1c1.4-0.6,2.7-1.5,3.8-2.5
									c1.2-1.3,1.8-3.1,1.8-4.9v-25.7c0-3.9-1.8-7.6-4.9-10c-3.2-2.6-7.3-4.1-11.5-4c-3.8,0-7.5,1.6-10.1,4.5
									c-2.7,2.7-4.3,6.5-4.3,10.4c0,0.7,0.1,1.4,0.2,2.2c0.5,3.9,2.6,7.4,5.8,9.8c2.9,2.2,6.4,3.4,10,3.3
									c4.1,0.2,8.1-1.5,10.9-4.5V130.5z"/>
							</g>
							<g>
								<path class="st2" d="M252.6,130.5c-3.4,1.6-7.2,2.4-11,2.4c-6.3,0.1-12.4-1.9-17.5-5.7c-5.4-4-8.5-9-9.2-14.9
									c-0.2-1.7-0.3-3.3-0.3-5c0-8.3,2.5-15,7.6-20.1c4.9-4.9,11.2-7.3,18.8-7.3c7-0.1,13.8,2.4,19,7.1c5.2,4.4,8.1,10.9,8,17.7
									v26.5c0,5.9-2.5,10.8-7.5,14.8c-4.8,3.8-10.9,5.8-17,5.6h-1c-1.7,0-3.4-0.1-5.1-0.2c-1.6-0.2-3.1-0.6-4.7-1.1v-11.3
									c1.5,0.5,3,0.8,4.5,1.1c1.6,0.2,3.2,0.3,4.8,0.3c1.7,0,3.5-0.2,5.1-0.6c1.3-0.2,2.6-0.6,3.8-1.1c1.4-0.6,2.7-1.5,3.8-2.5
									c1.2-1.3,1.8-3.1,1.8-4.9v-25.7c0-3.9-1.8-7.6-4.9-10c-3.2-2.6-7.3-4.1-11.5-4c-3.8,0-7.5,1.6-10.1,4.5
									c-2.7,2.7-4.3,6.5-4.3,10.4c0,0.7,0.1,1.4,0.2,2.2c0.5,3.9,2.6,7.4,5.8,9.8c2.9,2.2,6.4,3.4,10,3.3
									c4.1,0.2,8.1-1.5,10.9-4.5V130.5z"/>
							</g>
						</g>
						<g id="o_9_">
							<g>
								<path class="st1" d="M300,133c-8.3,0-14.9-2.7-19.8-8.2c-4.4-5-6.8-11.5-6.6-18.2c-0.2-6.8,2.2-13.4,6.7-18.5
									c5-5.7,11.8-8.5,20.2-8.5c8.3,0,14.9,2.7,19.8,8.2c4.4,5,6.7,11.5,6.6,18.2c0.2,6.8-2.2,13.4-6.7,18.5
									C315.2,130.2,308.5,133,300,133z M301.1,90.7c-4.9,0-8.8,1.6-11.7,4.9c-2.6,3-4,6.8-3.9,10.8c-0.1,3.8,1.2,7.5,3.7,10.4
									c2.8,3.1,6.6,4.7,11.4,4.7c4.9,0,8.8-1.6,11.7-4.9c2.6-3,4-6.8,3.9-10.8c0.1-3.8-1.2-7.5-3.7-10.4
									C309.7,92.3,305.9,90.7,301.1,90.7L301.1,90.7z"/>
							</g>
							<g>
								<path class="st2" d="M300,133c-8.3,0-14.9-2.7-19.8-8.2c-4.4-5-6.8-11.5-6.6-18.2c-0.2-6.8,2.2-13.4,6.7-18.5
									c5-5.7,11.8-8.5,20.2-8.5c8.3,0,14.9,2.7,19.8,8.2c4.4,5,6.7,11.5,6.6,18.2c0.2,6.8-2.2,13.4-6.7,18.5
									C315.2,130.2,308.5,133,300,133z M301.1,90.7c-4.9,0-8.8,1.6-11.7,4.9c-2.6,3-4,6.8-3.9,10.8c-0.1,3.8,1.2,7.5,3.7,10.4
									c2.8,3.1,6.6,4.7,11.4,4.7c4.9,0,8.8-1.6,11.7-4.9c2.6-3,4-6.8,3.9-10.8c0.1-3.8-1.2-7.5-3.7-10.4
									C309.7,92.3,305.9,90.7,301.1,90.7L301.1,90.7z"/>
							</g>
						</g>
						<g id="r_9_">
							<g>
								<path class="st1" d="M344.6,133H332v-29.5c-0.1-4,0.7-8.1,2.5-11.7c1.8-3.5,4.6-6.5,7.9-8.6c1.9-1.3,4-2.4,6.2-3.2
									c2.1-0.7,4.2-1,6.4-1c0.6,0,1.3,0,2.1,0.1s1.7,0.2,2.8,0.4v12c-1.1-0.3-2.3-0.5-3.5-0.5c-2.5,0-4.8,0.9-6.8,2.4
									c-1.5,1-2.7,2.3-3.6,3.8c-0.9,1.5-1.3,3.3-1.2,5L344.6,133z"/>
							</g>
							<g>
								<path class="st2" d="M344.6,133H332v-29.5c-0.1-4,0.7-8.1,2.5-11.7c1.8-3.5,4.6-6.5,7.9-8.6c1.9-1.3,4-2.4,6.2-3.2
									c2.1-0.7,4.2-1,6.4-1c0.6,0,1.3,0,2.1,0.1s1.7,0.2,2.8,0.4v12c-1.1-0.3-2.3-0.5-3.5-0.5c-2.5,0-4.8,0.9-6.8,2.4
									c-1.5,1-2.7,2.3-3.6,3.8c-0.9,1.5-1.3,3.3-1.2,5L344.6,133z"/>
							</g>
						</g>
						<g id="o-2_9_">
							<g>
								<path class="st1" d="M391.3,133c-8.3,0-14.9-2.7-19.8-8.2c-4.4-5-6.7-11.5-6.5-18.1c-0.2-6.8,2.2-13.4,6.7-18.5
									c5-5.7,11.8-8.5,20.2-8.5c8.3,0,14.9,2.7,19.8,8.2c4.4,5,6.8,11.5,6.6,18.2c0.2,6.8-2.2,13.4-6.7,18.5
									C406.5,130.2,399.8,133,391.3,133z M392.4,90.7c-4.9,0-8.8,1.6-11.7,4.9c-2.6,3-4,6.8-3.9,10.8c-0.1,3.8,1.2,7.5,3.7,10.4
									c2.8,3.1,6.6,4.7,11.4,4.7c4.9,0,8.8-1.6,11.7-4.9c2.6-3,4-6.8,3.9-10.8c0.1-3.8-1.2-7.5-3.7-10.4
									C401,92.3,397.2,90.7,392.4,90.7L392.4,90.7z"/>
							</g>
							<g>
								<path class="st2" d="M391.3,133c-8.3,0-14.9-2.7-19.8-8.2c-4.4-5-6.7-11.5-6.5-18.1c-0.2-6.8,2.2-13.4,6.7-18.5
									c5-5.7,11.8-8.5,20.2-8.5c8.3,0,14.9,2.7,19.8,8.2c4.4,5,6.8,11.5,6.6,18.2c0.2,6.8-2.2,13.4-6.7,18.5
									C406.5,130.2,399.8,133,391.3,133z M392.4,90.7c-4.9,0-8.8,1.6-11.7,4.9c-2.6,3-4,6.8-3.9,10.8c-0.1,3.8,1.2,7.5,3.7,10.4
									c2.8,3.1,6.6,4.7,11.4,4.7c4.9,0,8.8-1.6,11.7-4.9c2.6-3,4-6.8,3.9-10.8c0.1-3.8-1.2-7.5-3.7-10.4
									C401,92.3,397.2,90.7,392.4,90.7L392.4,90.7z"/>
							</g>
						</g>
						<g id="b_9_">
							<g>
								<path class="st1" d="M448.4,81.9c14.2,0,25.7,11.5,25.7,25.7c0.1,6.7-2.5,13.1-7.2,17.8c-4.5,4.8-10.9,7.5-17.5,7.4
									c-6.8,0.1-13.4-2.3-18.5-6.8c-5.2-4.2-8.1-10.6-8-17.2V65.3h10.7v43.3c0,3.8,1.6,7.4,4.6,9.9c2.9,2.7,6.6,4.1,10.5,4.1h0.8
									c0.5,0,0.9-0.1,1.4-0.1c3.5-0.5,6.7-2.4,8.8-5.2c2.2-2.9,3.4-6.5,3.3-10.1c0-1.1-0.1-2.2-0.3-3.3c-0.6-3.3-2.5-6.2-5.3-8
									c-2.6-1.7-5.7-2.6-8.8-2.6c-2.3,0-4.6,0.4-6.7,1.3c-2,0.8-3.8,2.1-5.1,3.8V85.2c1.8-1.1,3.7-1.9,5.7-2.5
									C444.4,82.1,446.4,81.9,448.4,81.9z"/>
							</g>
							<g>
								<path class="st2" d="M448.4,81.9c14.2,0,25.7,11.5,25.7,25.7c0.1,6.7-2.5,13.1-7.2,17.8c-4.5,4.8-10.9,7.5-17.5,7.4
									c-6.8,0.1-13.4-2.3-18.5-6.8c-5.2-4.2-8.1-10.6-8-17.2V65.3h10.7v43.3c0,3.8,1.6,7.4,4.6,9.9c2.9,2.7,6.6,4.1,10.5,4.1h0.8
									c0.5,0,0.9-0.1,1.4-0.1c3.5-0.5,6.7-2.4,8.8-5.2c2.2-2.9,3.4-6.5,3.3-10.1c0-1.1-0.1-2.2-0.3-3.3c-0.6-3.3-2.5-6.2-5.3-8
									c-2.6-1.7-5.7-2.6-8.8-2.6c-2.3,0-4.6,0.4-6.7,1.3c-2,0.8-3.8,2.1-5.1,3.8V85.2c1.8-1.1,3.7-1.9,5.7-2.5
									C444.4,82.1,446.4,81.9,448.4,81.9z"/>
							</g>
						</g>
						<g id="a_9_">
							<g>
								<path class="st1" d="M520.1,117.9v13.9c-3.9,2-8.1,3-12.5,3.1c-6.3,0-12.2-2.3-17.6-7c-3.1-2.5-5.6-5.7-7.3-9.2
									c-1.6-3.7-2.3-7.7-2.2-11.7c-0.1-7.2,2.8-14.1,8-19c5.1-5.1,12-8,19.2-7.9c7.3-0.1,14.4,2.7,19.6,7.8
									c5.3,4.9,8.3,11.8,8.2,19v26.1h-11.9v-26.5c0.1-4.1-1.7-7.9-4.8-10.6c-3.1-2.8-7.1-4.4-11.3-4.3
									c-8.5-0.1-15.5,6.8-15.6,15.4c0,0.1,0,0.1,0,0.2c-0.1,4.3,1.6,8.4,4.6,11.5c2.9,3.1,7,4.8,11.2,4.8c2.4,0.1,4.7-0.4,6.9-1.2
									C516.8,121.1,518.6,119.6,520.1,117.9z"/>
							</g>
							<g>
								<path class="st2" d="M520.1,117.9v13.9c-3.9,2-8.1,3-12.5,3.1c-6.3,0-12.2-2.3-17.6-7c-3.1-2.5-5.6-5.7-7.3-9.2
									c-1.6-3.7-2.3-7.7-2.2-11.7c-0.1-7.2,2.8-14.1,8-19c5.1-5.1,12-8,19.2-7.9c7.3-0.1,14.4,2.7,19.6,7.8
									c5.3,4.9,8.3,11.8,8.2,19v26.1h-11.9v-26.5c0.1-4.1-1.7-7.9-4.8-10.6c-3.1-2.8-7.1-4.4-11.3-4.3
									c-8.5-0.1-15.5,6.8-15.6,15.4c0,0.1,0,0.1,0,0.2c-0.1,4.3,1.6,8.4,4.6,11.5c2.9,3.1,7,4.8,11.2,4.8c2.4,0.1,4.7-0.4,6.9-1.2
									C516.8,121.1,518.6,119.6,520.1,117.9z"/>
							</g>
						</g>
						<g id="Instalaciones-y-Servicios_9_">
							<g>
								<path class="st0" d="M161.1,56.1V39.4h2.2v16.7H161.1z"/>
								<path class="st0" d="M166.9,56.1V44h1.9v1.7c0.8-1.3,2.3-2.1,3.9-2c0.7,0,1.4,0.1,2,0.4c0.5,0.2,1,0.5,1.4,1
									c0.3,0.5,0.5,1,0.6,1.5c0.1,0.7,0.1,1.3,0.1,2v7.4h-2.1v-7.3c0-0.6-0.1-1.3-0.2-1.9c-0.2-0.4-0.5-0.8-0.9-1
									c-0.4-0.3-0.9-0.4-1.4-0.4c-0.8,0-1.6,0.3-2.3,0.8c-0.8,0.9-1.1,2-1,3.2v6.6L166.9,56.1z"/>
								<path class="st0" d="M179.1,52.5l2-0.3c0.1,0.7,0.4,1.4,0.9,1.9c0.6,0.5,1.4,0.7,2.2,0.7c0.7,0.1,1.5-0.1,2.1-0.6
									c0.4-0.3,0.7-0.8,0.7-1.3c0-0.4-0.2-0.9-0.6-1.1c-0.7-0.3-1.4-0.6-2.1-0.7c-1.1-0.2-2.1-0.6-3.1-1c-1.1-0.5-1.8-1.6-1.8-2.8
									c0-0.5,0.1-1,0.4-1.5c0.2-0.5,0.6-0.8,1-1.1c0.4-0.3,0.8-0.5,1.3-0.6c0.6-0.2,1.2-0.3,1.8-0.2c0.9,0,1.7,0.1,2.5,0.4
									c0.6,0.2,1.2,0.6,1.7,1.1c0.4,0.6,0.6,1.2,0.7,1.9l-2,0.3c-0.1-0.6-0.3-1.1-0.8-1.5c-0.5-0.4-1.2-0.6-1.9-0.5
									c-0.7-0.1-1.4,0.1-2,0.5c-0.4,0.2-0.6,0.7-0.6,1.1c0,0.3,0.1,0.5,0.2,0.7c0.2,0.2,0.5,0.4,0.8,0.5c0.2,0.1,0.8,0.2,1.8,0.5
									c1,0.3,2,0.6,3,1c0.5,0.2,1,0.6,1.4,1.1c0.3,0.5,0.5,1.1,0.5,1.8c0,0.7-0.2,1.4-0.6,1.9c-0.4,0.6-1,1.1-1.7,1.4
									c-0.8,0.3-1.7,0.5-2.6,0.5c-1.3,0.1-2.5-0.3-3.6-1C179.8,54.7,179.2,53.7,179.1,52.5z"/>
								<path class="st0" d="M196,54.3l0.3,1.8c-0.5,0.1-1,0.2-1.6,0.2c-0.6,0-1.2-0.1-1.8-0.3c-0.4-0.2-0.7-0.5-0.9-0.9
									c-0.2-0.8-0.3-1.6-0.2-2.4v-7h-1.5V44h1.5v-3l2-1.2V44h2.1v1.6h-2v7.1c0,0.4,0,0.8,0.1,1.1c0.1,0.2,0.2,0.3,0.4,0.4
									c0.2,0.1,0.5,0.2,0.7,0.1C195.4,54.3,195.7,54.3,196,54.3z"/>
								<path class="st0" d="M205.9,54.7c-0.6,0.6-1.4,1-2.2,1.3c-0.7,0.3-1.5,0.4-2.3,0.4c-1.1,0.1-2.2-0.3-3.1-1
									c-0.7-0.6-1.1-1.5-1.1-2.4c0-0.6,0.1-1.1,0.4-1.6c0.3-0.5,0.6-0.9,1.1-1.2c0.4-0.3,0.9-0.5,1.5-0.7c0.6-0.1,1.2-0.2,1.8-0.3
									c1.2-0.1,2.5-0.4,3.7-0.7c0-0.3,0-0.5,0-0.5c0.1-0.6-0.1-1.3-0.6-1.8c-0.7-0.5-1.5-0.8-2.3-0.7c-0.7-0.1-1.5,0.1-2.1,0.5
									c-0.5,0.5-0.9,1.1-1,1.8l-2-0.3c0.1-0.8,0.5-1.5,0.9-2.1c0.5-0.6,1.1-1,1.8-1.2c0.9-0.3,1.8-0.4,2.7-0.4
									c0.9,0,1.7,0.1,2.5,0.4c0.5,0.2,1,0.5,1.4,0.9c0.3,0.4,0.5,0.9,0.6,1.4c0.1,0.6,0.1,1.3,0.1,1.9v2.7c0,1.2,0,2.4,0.1,3.6
									c0.1,0.5,0.3,1,0.5,1.5h-2.1C206.1,55.7,206,55.2,205.9,54.7z M205.8,50.1c-1.1,0.4-2.2,0.6-3.4,0.8
									c-0.6,0.1-1.2,0.2-1.8,0.4c-0.7,0.3-1.1,0.9-1.1,1.6c0,0.5,0.2,1,0.6,1.4c0.5,0.4,1.2,0.6,1.8,0.5c0.7,0,1.5-0.2,2.1-0.5
									c0.6-0.3,1.1-0.8,1.4-1.4c0.2-0.6,0.4-1.3,0.3-2L205.8,50.1z"/>
								<path class="st0" d="M211,56.1V39.4h2v16.7H211z"/>
								<path class="st0" d="M224.1,54.7c-0.6,0.6-1.4,1-2.2,1.3c-0.7,0.3-1.5,0.4-2.3,0.4c-1.1,0.1-2.2-0.3-3.1-1
									c-0.7-0.6-1.1-1.5-1.1-2.4c0-0.6,0.1-1.1,0.4-1.6c0.3-0.5,0.6-0.9,1.1-1.2c0.5-0.3,1-0.5,1.5-0.7c0.6-0.1,1.2-0.2,1.8-0.3
									c1.2-0.1,2.5-0.4,3.7-0.7c0-0.3,0-0.5,0-0.5c0.1-0.6-0.1-1.3-0.6-1.8c-0.7-0.5-1.5-0.8-2.3-0.7c-0.7-0.1-1.5,0.1-2.1,0.5
									c-0.5,0.5-0.9,1.1-1,1.8l-2-0.3c0.1-0.8,0.4-1.5,0.9-2.1c0.5-0.6,1.1-1,1.8-1.2c0.9-0.3,1.8-0.4,2.8-0.4
									c0.9,0,1.7,0.1,2.5,0.4c0.5,0.2,1,0.5,1.4,0.9c0.3,0.4,0.5,0.9,0.6,1.4c0.1,0.6,0.1,1.3,0.1,1.9v2.7c0,1.2,0,2.4,0.1,3.6
									c0.1,0.5,0.3,1,0.5,1.5h-2.1C224.3,55.7,224.2,55.2,224.1,54.7z M223.9,50.1c-1.1,0.4-2.2,0.6-3.4,0.8
									c-0.6,0.1-1.2,0.2-1.8,0.4c-0.9,0.4-1.3,1.4-0.9,2.3c0.1,0.3,0.3,0.5,0.5,0.7c0.5,0.4,1.2,0.6,1.8,0.5
									c0.7,0,1.5-0.2,2.1-0.5c0.6-0.3,1.1-0.8,1.4-1.4c0.2-0.6,0.4-1.3,0.3-2V50.1z"/>
								<path class="st0" d="M237.1,51.7l2,0.3c-0.2,1.3-0.8,2.4-1.7,3.3c-0.9,0.8-2.1,1.2-3.4,1.2c-1.5,0.1-3-0.5-4-1.6
									c-1.1-1.3-1.6-3-1.5-4.7c0-1.2,0.2-2.3,0.6-3.4c0.4-0.9,1.1-1.7,2-2.2c0.9-0.5,1.9-0.7,2.9-0.7c1.2,0,2.3,0.3,3.2,1
									c0.9,0.7,1.4,1.7,1.6,2.8l-2,0.3c-0.1-0.7-0.5-1.3-1-1.8c-0.5-0.4-1.1-0.6-1.8-0.6c-1,0-1.9,0.4-2.5,1.1
									c-0.7,1-1.1,2.3-1,3.5c-0.1,1.3,0.2,2.5,0.9,3.5c0.6,0.7,1.5,1.1,2.4,1.1c0.7,0,1.5-0.2,2-0.7
									C236.6,53.4,237,52.6,237.1,51.7z"/>
								<path class="st0" d="M240.9,41.8v-2.4h2.1v2.4H240.9z M240.9,56.1V44h2.1v12.1L240.9,56.1z"/>
								<path class="st0" d="M245.3,50.1c-0.2-1.9,0.5-3.7,1.9-5c1.1-0.9,2.5-1.4,3.9-1.3c1.5,0,2.9,0.6,4,1.6
									c1.1,1.2,1.7,2.9,1.6,4.5c0.1,1.3-0.2,2.5-0.7,3.7c-0.4,0.9-1.1,1.6-2,2.1c-0.9,0.5-1.9,0.8-2.9,0.7c-1.5,0.1-3-0.5-4.1-1.6
									C245.7,53.5,245.2,51.8,245.3,50.1z M247.4,50.1c-0.1,1.2,0.3,2.5,1,3.5c1.2,1.4,3.3,1.6,4.7,0.4c0.1-0.1,0.2-0.2,0.4-0.4
									c0.8-1,1.1-2.3,1-3.5c0.1-1.2-0.3-2.4-1-3.4c-1.2-1.4-3.4-1.5-4.8-0.3c-0.1,0.1-0.2,0.2-0.3,0.3
									C247.6,47.6,247.3,48.9,247.4,50.1z"/>
								<path class="st0" d="M259,56.1V44h1.8v1.7c0.8-1.3,2.3-2.1,3.9-2c0.7,0,1.4,0.1,2,0.4c0.5,0.2,1,0.5,1.4,1
									c0.3,0.5,0.5,1,0.6,1.5c0.1,0.7,0.1,1.3,0.1,2v7.4h-2v-7.3c0-0.6-0.1-1.3-0.2-1.9c-0.2-0.4-0.5-0.8-0.9-1
									c-0.4-0.3-0.9-0.4-1.4-0.4c-0.8,0-1.6,0.3-2.3,0.8c-0.7,0.9-1.1,2-1,3.2v6.6L259,56.1z"/>
								<path class="st0" d="M280.3,52.2l2.1,0.3c-0.3,1.1-0.9,2.2-1.9,2.9c-1,0.7-2.2,1.1-3.5,1c-1.6,0.1-3.1-0.5-4.2-1.6
									c-1.1-1.3-1.7-2.9-1.6-4.6c-0.1-1.7,0.5-3.4,1.6-4.7c1.1-1.1,2.6-1.7,4.1-1.7c1.5-0.1,3,0.5,4,1.7c1.1,1.3,1.6,3,1.5,4.7
									c0,0.1,0,0.3,0,0.5h-9c0,1.1,0.4,2.2,1.1,3.1c0.7,0.7,1.6,1.1,2.5,1.1c0.7,0,1.4-0.2,1.9-0.6
									C279.7,53.6,280.1,53,280.3,52.2z M273.5,48.9h6.8c0-0.8-0.3-1.6-0.8-2.3c-0.6-0.8-1.5-1.2-2.5-1.2c-0.9,0-1.7,0.3-2.4,1
									C274,47.1,273.6,48,273.5,48.9z"/>
								<path class="st0" d="M284.2,52.5l2-0.3c0.1,0.7,0.4,1.4,1,1.9c0.6,0.5,1.4,0.7,2.2,0.7c0.7,0.1,1.5-0.1,2.1-0.6
									c0.4-0.3,0.7-0.8,0.7-1.3c0-0.4-0.2-0.9-0.6-1.1c-0.7-0.3-1.4-0.6-2.1-0.7c-1.1-0.2-2.1-0.6-3.1-1c-1.6-0.7-2.2-2.6-1.5-4.1
									c0,0,0-0.1,0.1-0.1c0.2-0.5,0.6-0.8,1-1.1c0.4-0.3,0.8-0.5,1.3-0.6c0.6-0.2,1.2-0.3,1.8-0.2c0.9,0,1.7,0.1,2.5,0.4
									c0.6,0.2,1.2,0.6,1.6,1.1c0.4,0.6,0.6,1.2,0.7,1.9l-2,0.3c-0.1-0.5-0.3-1-0.7-1.4c-0.5-0.4-1.2-0.6-1.9-0.5
									c-0.7-0.1-1.4,0.1-2,0.5c-0.4,0.2-0.6,0.6-0.6,1.1c0,0.3,0.1,0.5,0.2,0.7c0.2,0.2,0.5,0.4,0.8,0.5c0.2,0.1,0.8,0.2,1.8,0.5
									c1,0.3,2,0.6,3,1c0.5,0.2,1,0.6,1.4,1.1c0.3,0.5,0.5,1.1,0.5,1.8c0,0.7-0.2,1.4-0.6,1.9c-0.4,0.6-1,1.1-1.7,1.4
									c-0.8,0.3-1.7,0.5-2.6,0.5c-1.3,0.1-2.5-0.3-3.6-1C284.9,54.7,284.3,53.7,284.2,52.5z"/>
								<path class="st0" d="M303,60.8l-0.2-1.9c0.4,0.1,0.8,0.2,1.2,0.2c0.4,0,0.8-0.1,1.1-0.2c0.3-0.2,0.5-0.4,0.7-0.6
									c0.3-0.5,0.5-1,0.6-1.5l0.2-0.5L302,44h2.2l2.5,7c0.3,0.9,0.6,1.8,0.9,2.8c0.2-0.9,0.5-1.9,0.8-2.8l2.6-7h2l-4.6,12.3
									c-0.3,0.9-0.7,1.9-1.2,2.8c-0.3,0.6-0.7,1.1-1.2,1.5c-0.5,0.3-1.1,0.5-1.7,0.5C303.9,61,303.4,60.9,303,60.8z"/>
								<path class="st0" d="M320.8,50.8l2.1-0.2c0.1,0.7,0.3,1.4,0.7,2.1c0.4,0.6,1,1,1.7,1.3c0.8,0.3,1.7,0.5,2.6,0.5
									c0.8,0,1.5-0.1,2.2-0.4c0.6-0.2,1.1-0.5,1.4-1c0.3-0.4,0.5-0.9,0.5-1.5c0-0.5-0.2-1-0.5-1.4c-0.4-0.5-0.9-0.8-1.5-1
									c-1-0.3-2-0.6-3-0.8c-1.1-0.2-2.2-0.6-3.2-1c-0.7-0.4-1.4-0.9-1.8-1.6c-0.4-0.6-0.6-1.3-0.6-2.1c0-0.8,0.2-1.7,0.7-2.4
									c0.5-0.8,1.2-1.3,2.1-1.7c1-0.4,2-0.6,3.1-0.6c1.1,0,2.2,0.2,3.3,0.6c0.9,0.3,1.7,1,2.2,1.8c0.5,0.8,0.8,1.7,0.8,2.6
									l-2.1,0.2c0-0.9-0.5-1.8-1.2-2.4c-0.8-0.6-1.9-0.9-2.9-0.8c-1-0.1-2.1,0.2-2.9,0.7c-0.6,0.4-0.9,1.1-0.9,1.8
									c0,0.6,0.2,1.1,0.6,1.5c1,0.6,2.1,1,3.3,1.2c1.3,0.2,2.5,0.6,3.7,1.1c0.9,0.3,1.6,0.9,2.2,1.7c0.5,0.7,0.7,1.5,0.7,2.4
									c0,0.9-0.3,1.8-0.8,2.5c-0.5,0.8-1.3,1.5-2.2,1.8c-1,0.4-2.1,0.7-3.2,0.7c-1.3,0-2.6-0.2-3.8-0.7c-1-0.4-1.8-1.1-2.4-2
									C321.1,52.8,320.8,51.8,320.8,50.8z"/>
								<path class="st0" d="M345.1,52.2l2.1,0.3c-0.3,1.1-0.9,2.2-1.9,2.9c-1,0.7-2.2,1.1-3.5,1c-1.6,0.1-3.1-0.5-4.2-1.6
									c-1.1-1.3-1.7-2.9-1.6-4.6c-0.1-1.7,0.5-3.4,1.6-4.7c1.1-1.1,2.5-1.7,4.1-1.7c1.5-0.1,3,0.5,4,1.7c1.1,1.3,1.6,3,1.5,4.7
									c0,0.1,0,0.3,0,0.5h-9c0,1.1,0.4,2.2,1.1,3.1c0.6,0.7,1.6,1.1,2.5,1.1c0.7,0,1.4-0.2,1.9-0.6
									C344.5,53.6,344.9,53,345.1,52.2z M338.4,48.9h6.8c0-0.8-0.3-1.6-0.8-2.3c-0.6-0.8-1.6-1.2-2.5-1.2c-0.9,0-1.7,0.3-2.4,1
									C338.8,47.1,338.4,48,338.4,48.9z"/>
								<path class="st0" d="M349.8,56.1V44h1.9v1.8c0.3-0.7,0.8-1.2,1.3-1.7c0.4-0.3,0.8-0.4,1.3-0.4c0.8,0,1.5,0.2,2.1,0.7
									l-0.7,1.9c-0.4-0.3-1-0.4-1.5-0.5c-0.4,0-0.9,0.1-1.2,0.4c-0.4,0.3-0.6,0.7-0.8,1.1c-0.2,0.8-0.4,1.6-0.4,2.4v6.3
									L349.8,56.1z"/>
								<path class="st0" d="M361,56.1L356.4,44h2.2l2.6,7.2c0.3,0.8,0.5,1.6,0.8,2.4c0.2-0.6,0.4-1.4,0.8-2.3l2.7-7.4h2.1
									l-4.6,12.1L361,56.1z"/>
								<path class="st0" d="M369.3,41.8v-2.4h2v2.4H369.3z M369.3,56.1V44h2v12.1L369.3,56.1z"/>
								<path class="st0" d="M382.4,51.7l2,0.3c-0.2,1.3-0.8,2.4-1.7,3.3c-0.9,0.8-2.1,1.2-3.4,1.2c-1.5,0.1-3-0.5-4-1.6
									c-1.1-1.3-1.6-3-1.5-4.7c0-1.2,0.2-2.3,0.6-3.4c0.4-0.9,1.1-1.7,2-2.2c0.9-0.5,1.9-0.7,2.9-0.7c1.2,0,2.3,0.3,3.2,1
									c0.9,0.7,1.4,1.7,1.6,2.8l-2,0.3c-0.1-0.7-0.5-1.3-1-1.8c-0.5-0.4-1.1-0.6-1.8-0.6c-1,0-1.9,0.4-2.5,1.1
									c-0.7,1-1.1,2.3-1,3.5c-0.1,1.3,0.2,2.5,0.9,3.5c0.6,0.7,1.5,1.1,2.4,1.1c0.7,0,1.5-0.2,2-0.7
									C381.9,53.4,382.3,52.6,382.4,51.7z"/>
								<path class="st0" d="M386.1,41.8v-2.4h2v2.4H386.1z M386.1,56.1V44h2v12.1L386.1,56.1z"/>
								<path class="st0" d="M390.6,50.1c-0.2-1.9,0.5-3.7,1.9-5c1.1-0.9,2.4-1.4,3.8-1.3c1.5-0.1,3,0.5,4.1,1.6
									c1.1,1.2,1.7,2.9,1.6,4.5c0.1,1.3-0.2,2.5-0.7,3.7c-0.4,0.9-1.1,1.6-2,2.1c-0.9,0.5-1.9,0.8-2.9,0.7c-1.5,0.1-3-0.5-4.1-1.6
									C391,53.5,390.5,51.8,390.6,50.1z M392.7,50.1c-0.1,1.2,0.3,2.5,1,3.5c0.6,0.8,1.6,1.2,2.5,1.2c1,0,1.9-0.4,2.5-1.2
									c0.8-1,1.1-2.3,1-3.5c0.1-1.2-0.3-2.4-1-3.4c-1.2-1.4-3.4-1.5-4.8-0.3c-0.1,0.1-0.2,0.2-0.3,0.3
									C392.9,47.6,392.6,48.9,392.7,50.1z"/>
								<path class="st0" d="M403.5,52.5l2-0.3c0.1,0.7,0.4,1.4,1,1.9c0.6,0.5,1.4,0.7,2.2,0.7c0.7,0.1,1.5-0.1,2.1-0.6
									c0.4-0.3,0.7-0.8,0.7-1.3c0-0.4-0.2-0.9-0.6-1.1c-0.7-0.3-1.4-0.6-2.1-0.7c-1.1-0.2-2.1-0.6-3.1-1c-1.6-0.7-2.2-2.6-1.5-4.1
									c0,0,0-0.1,0.1-0.1c0.2-0.5,0.6-0.8,1-1.1c0.4-0.3,0.8-0.5,1.3-0.6c0.6-0.2,1.2-0.3,1.8-0.2c0.9,0,1.7,0.1,2.5,0.4
									c0.6,0.2,1.2,0.6,1.6,1.1c0.4,0.6,0.6,1.2,0.7,1.9l-2,0.3c-0.1-0.6-0.3-1.1-0.8-1.5c-0.5-0.4-1.2-0.6-1.9-0.5
									c-0.7-0.1-1.4,0.1-2,0.5c-0.4,0.2-0.6,0.7-0.6,1.1c0,0.3,0.1,0.5,0.2,0.7c0.2,0.2,0.5,0.4,0.8,0.5c0.2,0.1,0.8,0.2,1.8,0.5
									c1,0.3,2,0.6,3,1c0.5,0.2,1,0.6,1.4,1c0.3,0.5,0.5,1.1,0.5,1.8c0,0.7-0.2,1.4-0.6,1.9c-0.4,0.6-1,1.1-1.7,1.4
									c-0.8,0.3-1.7,0.5-2.6,0.5c-1.3,0.1-2.5-0.3-3.6-1C404.2,54.7,403.6,53.6,403.5,52.5z"/>
							</g>
						</g>
						<g id="LOGO-CUADRADO_9_">
							<rect id="Rectangle-path_12_" x="18.7" y="16.7" class="st3" width="123.9" height="123.9"/>
							
								<rect id="Rectangle-path-2_12_" x="18.7" y="16.7" transform="matrix(0.9659 -0.2588 0.2588 0.9659 -17.6064 23.5514)" class="st4" width="123.9" height="123.9"/>
							<path id="Shape-8_12_" class="st3" d="M80.6,16.7h62v61.9c-0.1,34.2-27.8,61.9-61.9,62h-62v-62
								C18.8,44.5,46.5,16.8,80.6,16.7z"/>
							<path id="Shape-9_12_" class="st5" d="M62.2,85.2l66.3,0.1c-4.9,25.2-27.3,43.2-47,42.6H62.5c0.1,8,0.1,12.7,0.1,12.7H18.7
								v-62c0.1-34.2,27.8-61.9,62-62h62l-0.4,42.7H80.1c-17.4,1.3-17.8,19.1-17.8,19.1C62.2,80.8,62.2,83,62.2,85.2z"/>
						</g>
					</g>
				</g>
			</g>
		</g>
	</g>
</g>
</svg>
