<?xml version="1.0" encoding="UTF-8" standalone="no"?>
<svg xmlns="http://www.w3.org/2000/svg" height="389px" width="1280px" version="1.1" xmlns:xlink="http://www.w3.org/1999/xlink" viewBox="0 0 1280 389"><!-- Generator: Sketch 50.2 (55047) - http://www.bohemiancoding.com/sketch -->
 <title>Hero</title>
 <desc>Created with Sketch.</desc>
 <defs>
  <filter id="filter-1" height="103.6%" width="101.2%" y="-1.3%" x="-.5%" filterUnits="objectBoundingBox">
   <feOffset in="SourceAlpha" result="shadowOffsetOuter1" dx="0" dy="2"/>
   <feGaussianBlur stdDeviation="2" result="shadowBlurOuter1" in="shadowOffsetOuter1"/>
   <feColorMatrix type="matrix" values="0 0 0 0 0   0 0 0 0 0   0 0 0 0 0  0 0 0 0.5 0" result="shadowMatrixOuter1" in="shadowBlurOuter1"/>
   <feMerge>
    <feMergeNode in="shadowMatrixOuter1"/>
    <feMergeNode in="SourceGraphic"/>
   </feMerge>
  </filter>
 </defs>
 <g id="Hero" fill-rule="evenodd" fill="none">
  <g id="Low-Poly" filter="url(#filter-1)" fill-rule="nonzero" transform="translate(0 -28)">
   <polygon id="Shape" points="360.56 234.6 414.65 279.72 441.69 207.53" fill="#CFE3ED"/>
   <polygon id="Shape" points="279.44 45.116 144.23 36.093 135.21 108.28" fill="#2573CB"/>
   <polygon id="Shape" points="432.68 27.07 351.55 36.093 504.79 90.232" fill="#44A8DB"/>
   <polygon id="Shape" points="369.58 63.162 414.65 72.186 504.79 90.232 351.55 36.093 279.44 45.116 324.51 54.139" fill="#1C94D5"/>
   <polygon id="Shape" points="144.23 36.093 45.07 108.28 135.21 108.28" fill="#3569C9"/>
   <polygon id="Shape" points="45.07 108.28 36.056 180.46 99.155 180.46" fill="#3867C8"/>
   <polygon id="Shape" points="135.21 108.28 45.07 108.28 99.155 180.46" fill="#326BC9"/>
   <polygon id="Shape" points="477.75 27.07 432.68 27.07 504.79 90.232" fill="#58B1DE"/>
   <polygon id="Shape" points="540.85 108.28 540.85 54.139 504.79 90.232" fill="#97CBE5"/>
   <polygon id="Shape" points="540.85 54.139 477.75 27.07 504.79 90.232" fill="#79BFE2"/>
   <polygon id="Shape" points="297.46 99.255 279.44 45.116 135.21 108.28" fill="#1788D1"/>
   <polygon id="Shape" points="297.46 324.84 351.55 351.9 351.55 288.74" fill="#99CCE6"/>
   <polygon id="Shape" points="297.46 270.7 297.46 324.84 351.55 288.74" fill="#83C3E3"/>
   <polygon id="Shape" points="135.21 243.63 162.25 315.81 243.38 279.72" fill="#188BD2"/>
   <polygon id="Shape" points="90.141 252.65 162.25 315.81 135.21 243.63" fill="#167DCE"/>
   <polygon id="Shape" points="99.155 180.46 90.141 252.65 135.21 243.63" fill="#1F77CC"/>
   <polygon id="Shape" points="162.25 315.81 243.38 351.9 243.38 279.72" fill="#8AC6E4"/>
   <polygon id="Shape" points="243.38 351.9 297.46 324.84 243.38 279.72" fill="#D3E5EE"/>
   <polygon id="Shape" points="243.38 279.72 297.46 324.84 297.46 270.7" fill="#4EACDC"/>
   <polygon id="Shape" points="36.056 180.46 90.141 252.65 99.155 180.46" fill="#2F6EC9"/>
   <polygon id="Shape" points="54.085 63.162 45.07 108.28 144.23 36.093" fill="#3E64C7"/>
   <polygon id="Shape" points="225.35 18.046 144.23 36.093 279.44 45.116" fill="#1F77CC"/>
   <polygon id="Shape" points="63.099 306.79 162.25 315.81 90.141 252.65" fill="#2275CC"/>
   <polygon id="Shape" points="288.45 198.51 360.56 234.6 369.58 180.46" fill="#6DB9E0"/>
   <polygon id="Shape" points="99.155 180.46 135.21 243.63 135.21 108.28" fill="#2673CB"/>
   <polygon id="Shape" points="414.65 72.186 369.58 63.162 459.72 144.37" fill="#61B4DF"/>
   <polygon id="Shape" points="441.69 207.53 459.72 144.37 369.58 180.46" fill="#AFD6E9"/>
   <polygon id="Shape" points="640 0 549.86 0 585.92 54.139" fill="#5DB3DE"/>
   <polygon id="Shape" points="351.55 288.74 414.65 279.72 360.56 234.6" fill="#BCDBEB"/>
   <polygon id="Shape" points="135.21 243.63 243.38 279.72 198.31 198.51" fill="#1685D0"/>
   <polygon id="Shape" points="135.21 108.28 135.21 243.63 198.31 198.51" fill="#1A7ACD"/>
   <polygon id="Shape" points="459.72 144.37 369.58 63.162 360.56 117.3" fill="#62B5DF"/>
   <polygon id="Shape" points="243.38 279.72 297.46 270.7 288.45 198.51" fill="#41A7DB"/>
   <polygon id="Shape" points="297.46 270.7 351.55 288.74 360.56 234.6" fill="#8AC6E4"/>
   <polygon id="Shape" points="288.45 198.51 297.46 270.7 360.56 234.6" fill="#68B7DF"/>
   <polygon id="Shape" points="252.39 144.37 135.21 108.28 198.31 198.51" fill="#137FCF"/>
   <polygon id="Shape" points="324.51 54.139 297.46 99.255 360.56 117.3" fill="#1C94D5"/>
   <polygon id="Shape" points="369.58 63.162 324.51 54.139 360.56 117.3" fill="#279CD7"/>
   <polygon id="Shape" points="297.46 99.255 135.21 108.28 252.39 144.37" fill="#1584D0"/>
   <polygon id="Shape" points="459.72 144.37 360.56 117.3 297.46 99.255 369.58 180.46" fill="#6FBAE1"/>
   <polygon id="Shape" points="369.58 180.46 297.46 99.255 288.45 198.51" fill="#43A8DB"/>
   <polygon id="Shape" points="198.31 198.51 288.45 198.51 297.46 99.255 252.39 144.37" fill="#2098D6"/>
   <polygon id="Shape" points="90.141 252.65 0 270.7 63.099 306.79" fill="#2E6DCA"/>
   <polygon id="Shape" points="36.056 180.46 0 225.58 90.141 252.65" fill="#3569C9"/>
   <polygon id="Shape" points="0 270.7 0 342.88 63.099 306.79" fill="#3D64C7"/>
   <polygon id="Shape" points="0 225.58 0 270.7 90.141 252.65" fill="#4460C6"/>
   <polygon id="Shape" points="585.92 54.139 640 81.209 640 0" fill="#8AC6E4"/>
   <polygon id="Shape" points="549.86 388 550.28 388 550.33 387.61" fill="#fff"/>
   <polygon id="Shape" points="594.93 99.255 640 81.209 585.92 54.139" fill="#B1D6E9"/>
   <polygon id="Shape" points="432.68 27.07 387.61 0 351.55 36.093" fill="#1B91D4"/>
   <polygon id="Shape" points="540.85 54.139 504.79 0 477.75 27.07" fill="#45A9DB"/>
   <polygon id="Shape" points="324.51 0 270.42 0 279.44 45.116" fill="#1480CF"/>
   <polygon id="Shape" points="351.55 36.093 324.51 0 279.44 45.116" fill="#1685D0"/>
   <polygon id="Shape" points="279.44 45.116 270.42 0 225.35 18.046" fill="#1480CF"/>
   <polygon id="Shape" points="387.61 0 324.51 0 351.55 36.093" fill="#1788D1"/>
   <polygon id="Shape" points="594.93 99.255 585.92 54.139 540.85 108.28" fill="#B8D9EA"/>
   <polygon id="Shape" points="585.92 54.139 549.86 0 540.85 54.139" fill="#7EC1E3"/>
   <polygon id="Shape" points="540.85 108.28 585.92 54.139 540.85 54.139" fill="#9CCEE7"/>
   <polygon id="Shape" points="549.86 0 504.79 0 540.85 54.139" fill="#5BB2DE"/>
   <polygon id="Shape" points="0 99.255 0 153.39 45.07 108.28" fill="#465EC5"/>
   <polygon id="Shape" points="54.085 63.162 0 99.255 45.07 108.28" fill="#485DC5"/>
   <polygon id="Shape" points="0 153.39 0 225.58 36.056 180.46" fill="#485DC5"/>
   <polygon id="Shape" points="0 27.07 0 99.255 54.085 63.162" fill="#485DC5"/>
   <polygon id="Shape" points="45.07 108.28 0 153.39 36.056 180.46" fill="#4360C6"/>
   <polygon id="Shape" points="144.23 36.093 135.21 0 54.085 63.162" fill="#3669C8"/>
   <polygon id="Shape" points="225.35 18.046 135.21 0 144.23 36.093" fill="#2C70CA"/>
   <polygon id="Shape" points="72.113 0 0 27.07 54.085 63.162" fill="#485DC5"/>
   <polygon id="Shape" points="135.21 0 72.113 0 54.085 63.162" fill="#465EC5"/>
   <polygon id="Shape" points="198.31 198.51 243.38 279.72 288.45 198.51" fill="#1A8FD3"/>
   <polygon id="Shape" points="324.51 54.139 279.44 45.116 297.46 99.255" fill="#1788D1"/>
   <polygon id="Shape" points="504.79 90.232 414.65 72.186 459.72 144.37" fill="#89C5E4"/>
   <polygon id="Shape" points="360.56 234.6 441.69 207.53 369.58 180.46" fill="#9CCEE7"/>
   <polygon id="Shape" points="919.44 234.6 865.35 279.72 838.31 207.53" fill="#CFE3ED"/>
   <polygon id="Shape" points="1000.6 45.116 1135.8 36.093 1144.8 108.28" fill="#2573CB"/>
   <polygon id="Shape" points="847.32 27.07 928.45 36.093 775.21 90.232" fill="#44A8DB"/>
   <polygon id="Shape" points="910.42 63.162 865.35 72.186 775.21 90.232 928.45 36.093 1000.6 45.116 955.49 54.139" fill="#1C94D5"/>
   <polygon id="Shape" points="1135.8 36.093 1234.9 108.28 1144.8 108.28" fill="#3569C9"/>
   <polygon id="Shape" points="1234.9 108.28 1243.9 180.46 1180.8 180.46" fill="#3867C8"/>
   <polygon id="Shape" points="1144.8 108.28 1234.9 108.28 1180.8 180.46" fill="#326BC9"/>
   <polygon id="Shape" points="802.25 27.07 847.32 27.07 775.21 90.232" fill="#58B1DE"/>
   <polygon id="Shape" points="739.15 108.28 739.15 54.139 775.21 90.232" fill="#97CBE5"/>
   <polygon id="Shape" points="739.15 54.139 802.25 27.07 775.21 90.232" fill="#79BFE2"/>
   <polygon id="Shape" points="982.54 99.255 1000.6 45.116 1144.8 108.28" fill="#1788D1"/>
   <polygon id="Shape" points="982.54 324.84 928.45 351.9 928.45 288.74" fill="#99CCE6"/>
   <polygon id="Shape" points="982.54 270.7 982.54 324.84 928.45 288.74" fill="#83C3E3"/>
   <polygon id="Shape" points="1144.8 243.63 1117.7 315.81 1036.6 279.72" fill="#188BD2"/>
   <polygon id="Shape" points="1189.9 252.65 1117.7 315.81 1144.8 243.63" fill="#167DCE"/>
   <polygon id="Shape" points="1180.8 180.46 1189.9 252.65 1144.8 243.63" fill="#1F77CC"/>
   <polygon id="Shape" points="1117.7 315.81 1036.6 351.9 1036.6 279.72" fill="#8AC6E4"/>
   <polygon id="Shape" points="1036.6 351.9 982.54 324.84 1036.6 279.72" fill="#D3E5EE"/>
   <polygon id="Shape" points="1036.6 279.72 982.54 324.84 982.54 270.7" fill="#4EACDC"/>
   <polygon id="Shape" points="1243.9 180.46 1189.9 252.65 1180.8 180.46" fill="#2F6EC9"/>
   <polygon id="Shape" points="1225.9 63.162 1234.9 108.28 1135.8 36.093" fill="#3E64C7"/>
   <polygon id="Shape" points="1054.6 18.046 1135.8 36.093 1000.6 45.116" fill="#1F77CC"/>
   <polygon id="Shape" points="1216.9 306.79 1117.7 315.81 1189.9 252.65" fill="#2275CC"/>
   <polygon id="Shape" points="991.55 198.51 919.44 234.6 910.42 180.46" fill="#6DB9E0"/>
   <polygon id="Shape" points="1180.8 180.46 1144.8 243.63 1144.8 108.28" fill="#2673CB"/>
   <polygon id="Shape" points="865.35 72.186 910.42 63.162 820.28 144.37" fill="#61B4DF"/>
   <polygon id="Shape" points="838.31 207.53 820.28 144.37 910.42 180.46" fill="#AFD6E9"/>
   <polygon id="Shape" points="640 0 730.14 0 694.08 54.139" fill="#5DB3DE"/>
   <polygon id="Shape" points="928.45 288.74 865.35 279.72 919.44 234.6" fill="#BCDBEB"/>
   <polygon id="Shape" points="1144.8 243.63 1036.6 279.72 1081.7 198.51" fill="#1685D0"/>
   <polygon id="Shape" points="1144.8 108.28 1144.8 243.63 1081.7 198.51" fill="#1A7ACD"/>
   <polygon id="Shape" points="820.28 144.37 910.42 63.162 919.44 117.3" fill="#62B5DF"/>
   <polygon id="Shape" points="1036.6 279.72 982.54 270.7 991.55 198.51" fill="#41A7DB"/>
   <polygon id="Shape" points="982.54 270.7 928.45 288.74 919.44 234.6" fill="#8AC6E4"/>
   <polygon id="Shape" points="991.55 198.51 982.54 270.7 919.44 234.6" fill="#68B7DF"/>
   <polygon id="Shape" points="1027.6 144.37 1144.8 108.28 1081.7 198.51" fill="#137FCF"/>
   <polygon id="Shape" points="955.49 54.139 982.54 99.255 919.44 117.3" fill="#1C94D5"/>
   <polygon id="Shape" points="910.42 63.162 955.49 54.139 919.44 117.3" fill="#279CD7"/>
   <polygon id="Shape" points="982.54 99.255 1144.8 108.28 1027.6 144.37" fill="#1584D0"/>
   <polygon id="Shape" points="820.28 144.37 919.44 117.3 982.54 99.255 910.42 180.46" fill="#6FBAE1"/>
   <polygon id="Shape" points="910.42 180.46 982.54 99.255 991.55 198.51" fill="#43A8DB"/>
   <polygon id="Shape" points="1081.7 198.51 991.55 198.51 982.54 99.255 1027.6 144.37" fill="#2098D6"/>
   <polygon id="Shape" points="1189.9 252.65 1280 270.7 1216.9 306.79" fill="#2E6DCA"/>
   <polygon id="Shape" points="1243.9 180.46 1280 225.58 1189.9 252.65" fill="#3569C9"/>
   <polygon id="Shape" points="1280 270.7 1280 342.88 1216.9 306.79" fill="#3D64C7"/>
   <polygon id="Shape" points="1280 225.58 1280 270.7 1189.9 252.65" fill="#4460C6"/>
   <polygon id="Shape" points="694.08 54.139 640 81.209 640 0" fill="#8AC6E4"/>
   <polygon id="Shape" points="730.14 388 729.72 388 729.67 387.61" fill="#fff"/>
   <polygon id="Shape" points="685.07 99.255 640 81.209 694.08 54.139" fill="#B1D6E9"/>
   <polygon id="Shape" points="847.32 27.07 892.39 0 928.45 36.093" fill="#1B91D4"/>
   <polygon id="Shape" points="739.15 54.139 775.21 0 802.25 27.07" fill="#45A9DB"/>
   <polygon id="Shape" points="955.49 0 1009.6 0 1000.6 45.116" fill="#1480CF"/>
   <polygon id="Shape" points="928.45 36.093 955.49 0 1000.6 45.116" fill="#1685D0"/>
   <polygon id="Shape" points="1000.6 45.116 1009.6 0 1054.6 18.046" fill="#1480CF"/>
   <polygon id="Shape" points="892.39 0 955.49 0 928.45 36.093" fill="#1788D1"/>
   <polygon id="Shape" points="685.07 99.255 694.08 54.139 739.15 108.28" fill="#B8D9EA"/>
   <polygon id="Shape" points="694.08 54.139 730.14 0 739.15 54.139" fill="#7EC1E3"/>
   <polygon id="Shape" points="739.15 108.28 694.08 54.139 739.15 54.139" fill="#9CCEE7"/>
   <polygon id="Shape" points="730.14 0 775.21 0 739.15 54.139" fill="#5BB2DE"/>
   <polygon id="Shape" points="1280 99.255 1280 153.39 1234.9 108.28" fill="#465EC5"/>
   <polygon id="Shape" points="1225.9 63.162 1280 99.255 1234.9 108.28" fill="#485DC5"/>
   <polygon id="Shape" points="1280 153.39 1280 225.58 1243.9 180.46" fill="#485DC5"/>
   <polygon id="Shape" points="1280 27.07 1280 99.255 1225.9 63.162" fill="#485DC5"/>
   <polygon id="Shape" points="1234.9 108.28 1280 153.39 1243.9 180.46" fill="#4360C6"/>
   <polygon id="Shape" points="1135.8 36.093 1144.8 0 1225.9 63.162" fill="#3669C8"/>
   <polygon id="Shape" points="1054.6 18.046 1144.8 0 1135.8 36.093" fill="#2C70CA"/>
   <polygon id="Shape" points="1207.9 0 1280 27.07 1225.9 63.162" fill="#485DC5"/>
   <polygon id="Shape" points="1144.8 0 1207.9 0 1225.9 63.162" fill="#465EC5"/>
   <polygon id="Shape" points="1081.7 198.51 1036.6 279.72 991.55 198.51" fill="#1A8FD3"/>
   <polygon id="Shape" points="955.49 54.139 1000.6 45.116 982.54 99.255" fill="#1788D1"/>
   <polygon id="Shape" points="775.21 90.232 865.35 72.186 820.28 144.37" fill="#89C5E4"/>
   <polygon id="Shape" points="919.44 234.6 838.31 207.53 910.42 180.46" fill="#9CCEE7"/>
  </g>
 </g>
</svg>
