<?xml version="1.0" encoding="UTF-8" standalone="no"?>
<svg xmlns="http://www.w3.org/2000/svg" height="388px" width="1280px" version="1.1" xmlns:xlink="http://www.w3.org/1999/xlink" viewBox="0 0 1280 388"><!-- Generator: Sketch 50.2 (55047) - http://www.bohemiancoding.com/sketch -->
 <title>Low Poly</title>
 <desc>Created with Sketch.</desc>
 <defs>
  <filter id="filter-1" height="103.6%" width="101.2%" y="-1.3%" x="-.5%" filterUnits="objectBoundingBox">
   <feOffset in="SourceAlpha" result="shadowOffsetOuter1" dx="0" dy="2"/>
   <feGaussianBlur stdDeviation="2" result="shadowBlurOuter1" in="shadowOffsetOuter1"/>
   <feColorMatrix type="matrix" values="0 0 0 0 0   0 0 0 0 0   0 0 0 0 0  0 0 0 0.5 0" result="shadowMatrixOuter1" in="shadowBlurOuter1"/>
   <feMerge>
    <feMergeNode in="shadowMatrixOuter1"/>
    <feMergeNode in="SourceGraphic"/>
   </feMerge>
  </filter>
 </defs>
 <g id="Low-Poly" fill-rule="evenodd" fill="none">
  <g id="Shape" filter="url(#filter-1)" fill-rule="nonzero">
   <polygon points="919.44 234.6 865.35 279.72 838.31 207.53" fill="#177CCE"/>
   <polygon points="1000.6 45.116 1135.8 36.093 1144.8 108.28" fill="#3C65C7"/>
   <polygon points="847.32 27.07 928.45 36.093 775.21 90.233" fill="#3F63C7"/>
   <polygon points="910.42 63.163 865.35 72.186 775.21 90.233 928.45 36.093 1000.6 45.116 955.49 54.14" fill="#3D64C7"/>
   <polygon points="1135.8 36.093 1234.9 108.28 1144.8 108.28" fill="#3867C8"/>
   <polygon points="1234.9 108.28 1243.9 180.47 1180.8 180.47" fill="#2C70CA"/>
   <polygon points="1144.8 108.28 1234.9 108.28 1180.8 180.47" fill="#2E6DCA"/>
   <polygon points="802.25 27.07 847.32 27.07 775.21 90.233" fill="#3F63C7"/>
   <polygon points="784.23 270.7 739.15 198.51 838.31 207.53" fill="#1C79CD"/>
   <polygon points="757.18 153.4 739.15 108.28 775.21 90.233" fill="#336BC9"/>
   <polygon points="820.28 144.37 739.15 198.51 757.18 153.4 775.21 90.233" fill="#2D6DCA"/>
   <polygon points="739.15 108.28 739.15 54.14 775.21 90.233" fill="#3867C8"/>
   <polygon points="739.15 54.14 802.25 27.07 775.21 90.233" fill="#3B65C7"/>
   <polygon points="982.54 99.256 1000.6 45.116 1144.8 108.28" fill="#3867C8"/>
   <polygon points="865.35 279.72 928.45 288.74 928.45 351.91 784.23 270.7" fill="#137FCF"/>
   <polygon points="982.54 324.84 928.45 351.91 928.45 288.74" fill="#1583CF"/>
   <polygon points="928.45 351.91 838.31 342.88 784.23 270.7" fill="#1583CF"/>
   <polygon points="982.54 270.7 982.54 324.84 928.45 288.74" fill="#1480CF"/>
   <polygon points="703.1 243.63 685.07 225.58 739.15 198.51" fill="#1E78CD"/>
   <polygon points="721.13 306.79 703.1 243.63 739.15 198.51" fill="#1A7ACD"/>
   <polygon points="784.23 270.7 721.13 306.79 739.15 198.51" fill="#177CCE"/>
   <polygon points="838.31 342.88 721.13 306.79 784.23 270.7" fill="#1482CF"/>
   <polygon points="1144.8 243.63 1117.7 315.81 1036.6 279.72" fill="#167DCE"/>
   <polygon points="1189.9 252.65 1117.7 315.81 1144.8 243.63" fill="#177CCE"/>
   <polygon points="1180.8 180.47 1189.9 252.65 1144.8 243.63" fill="#1D79CD"/>
   <polygon points="1117.7 315.81 1036.6 351.91 1036.6 279.72" fill="#1583CF"/>
   <polygon points="1036.6 351.91 982.54 324.84 1036.6 279.72" fill="#1482CF"/>
   <polygon points="1036.6 279.72 982.54 324.84 982.54 270.7" fill="#1480CF"/>
   <polygon points="1243.9 180.47 1189.9 252.65 1180.8 180.47" fill="#2474CC"/>
   <polygon points="1225.9 63.163 1234.9 108.28 1135.8 36.093" fill="#3A66C8"/>
   <polygon points="1054.6 18.047 1135.8 36.093 1000.6 45.116" fill="#4162C6"/>
   <polygon points="1216.9 306.79 1117.7 315.81 1189.9 252.65" fill="#1480CF"/>
   <polygon points="991.55 198.51 919.44 234.6 910.42 180.47" fill="#2275CC"/>
   <polygon points="676.06 288.74 703.1 243.63 721.13 306.79" fill="#167DCE"/>
   <polygon points="1180.8 180.47 1144.8 243.63 1144.8 108.28" fill="#2673CB"/>
   <polygon points="865.35 72.186 910.42 63.163 820.28 144.37" fill="#3668C8"/>
   <polygon points="676.06 342.88 676.06 288.74 721.13 306.79" fill="#1583CF"/>
   <polygon points="1280 0 1280 27.07 1207.9 0" fill="#455FC6"/>
   <polygon points="838.31 207.53 820.28 144.37 910.42 180.47" fill="#2671CB"/>
   <polygon points="640 0 730.14 0 694.08 54.14" fill="#4360C6"/>
   <polygon points="928.45 288.74 865.35 279.72 919.44 234.6" fill="#177CCE"/>
   <polygon points="1144.8 243.63 1036.6 279.72 1081.7 198.51" fill="#1D78CD"/>
   <polygon points="1144.8 108.28 1144.8 243.63 1081.7 198.51" fill="#2375CC"/>
   <polygon points="820.28 144.37 910.42 63.163 919.44 117.3" fill="#346AC9"/>
   <polygon points="1036.6 279.72 982.54 270.7 991.55 198.51" fill="#187BCE"/>
   <polygon points="982.54 270.7 928.45 288.74 919.44 234.6" fill="#157DCE"/>
   <polygon points="991.55 198.51 982.54 270.7 919.44 234.6" fill="#1A7ACD"/>
   <polygon points="1027.6 144.37 1144.8 108.28 1081.7 198.51" fill="#2B6FCA"/>
   <polygon points="955.49 54.14 982.54 99.256 919.44 117.3" fill="#3669C8"/>
   <polygon points="910.42 63.163 955.49 54.14 919.44 117.3" fill="#3867C8"/>
   <polygon points="982.54 99.256 1144.8 108.28 1027.6 144.37" fill="#306EC9"/>
   <polygon points="820.28 144.37 919.44 117.3 982.54 99.256 910.42 180.47" fill="#2B6FCA"/>
   <polygon points="910.42 180.47 982.54 99.256 991.55 198.51" fill="#2771CB"/>
   <polygon points="1081.7 198.51 991.55 198.51 982.54 99.256 1027.6 144.37" fill="#2970CB"/>
   <polygon points="1280 342.88 1189.9 388 1189.9 342.88" fill="#1686D1"/>
   <polygon points="1189.9 252.65 1280 270.7 1216.9 306.79" fill="#137FCE"/>
   <polygon points="1243.9 180.47 1280 225.58 1189.9 252.65" fill="#1E78CC"/>
   <polygon points="1280 270.7 1280 342.88 1216.9 306.79" fill="#1481CF"/>
   <polygon points="1280 225.58 1280 270.7 1189.9 252.65" fill="#1A7BCD"/>
   <polygon points="1216.9 306.79 1280 342.88 1189.9 342.88" fill="#1584D0"/>
   <polygon points="1189.9 342.88 1189.9 388 1117.7 315.81" fill="#1686D1"/>
   <polygon points="640 261.67 640 189.49 676.06 207.53" fill="#2076CC"/>
   <polygon points="685.07 225.58 640 261.67 676.06 207.53" fill="#1D78CD"/>
   <polygon points="640 189.49 640 144.37 676.06 207.53" fill="#2671CB"/>
   <polygon points="676.06 207.53 640 144.37 694.08 135.35" fill="#2970CB"/>
   <polygon points="694.08 135.35 640 144.37 685.07 99.256" fill="#2E6DCA"/>
   <polygon points="640 144.37 640 81.209 685.07 99.256" fill="#346AC9"/>
   <polygon points="694.08 54.14 640 81.209 640 0" fill="#3E63C7"/>
   <polygon points="640 324.84 640 261.67 676.06 288.74" fill="#137FCF"/>
   <polygon points="685.07 99.256 640 81.209 694.08 54.14" fill="#3967C8"/>
   <polygon points="676.06 288.74 640 261.67 703.1 243.63" fill="#177CCE"/>
   <polygon points="703.1 243.63 640 261.67 685.07 225.58" fill="#1C79CD"/>
   <polygon points="847.32 27.07 892.39 0 928.45 36.093" fill="#4261C6"/>
   <polygon points="775.21 0 892.39 0 847.32 27.07" fill="#445FC6"/>
   <polygon points="802.25 27.07 775.21 0 847.32 27.07" fill="#4261C6"/>
   <polygon points="739.15 54.14 775.21 0 802.25 27.07" fill="#4360C6"/>
   <polygon points="955.49 0 1009.6 0 1000.6 45.116" fill="#4460C6"/>
   <polygon points="928.45 36.093 955.49 0 1000.6 45.116" fill="#4360C6"/>
   <polygon points="1000.6 45.116 1009.6 0 1054.6 18.047" fill="#4360C6"/>
   <polygon points="892.39 0 955.49 0 928.45 36.093" fill="#4460C6"/>
   <polygon points="685.07 99.256 694.08 54.14 739.15 108.28" fill="#3768C8"/>
   <polygon points="694.08 135.35 685.07 99.256 739.15 108.28" fill="#326BC9"/>
   <polygon points="739.15 198.51 694.08 135.35 757.18 153.4" fill="#2A70CA"/>
   <polygon points="694.08 54.14 730.14 0 739.15 54.14" fill="#4162C6"/>
   <polygon points="739.15 108.28 694.08 54.14 739.15 54.14" fill="#3A66C7"/>
   <polygon points="730.14 0 775.21 0 739.15 54.14" fill="#4460C6"/>
   <polygon points="676.06 207.53 694.08 135.35 739.15 198.51" fill="#2673CB"/>
   <polygon points="1280 99.256 1280 153.4 1234.9 108.28" fill="#326BC9"/>
   <polygon points="1225.9 63.163 1280 99.256 1234.9 108.28" fill="#3768C8"/>
   <polygon points="1280 153.4 1280 225.58 1243.9 180.47" fill="#2474CB"/>
   <polygon points="1280 27.07 1280 99.256 1225.9 63.163" fill="#3D64C7"/>
   <polygon points="1234.9 108.28 1280 153.4 1243.9 180.47" fill="#2D6DCA"/>
   <polygon points="1009.6 0 1144.8 0 1054.6 18.047" fill="#455FC6"/>
   <polygon points="1135.8 36.093 1144.8 0 1225.9 63.163" fill="#4062C6"/>
   <polygon points="1054.6 18.047 1144.8 0 1135.8 36.093" fill="#4360C6"/>
   <polygon points="685.07 225.58 676.06 207.53 739.15 198.51" fill="#2077CC"/>
   <polygon points="1207.9 0 1280 27.07 1225.9 63.163" fill="#4162C6"/>
   <polygon points="1144.8 0 1207.9 0 1225.9 63.163" fill="#4360C6"/>
   <polygon points="757.18 153.4 694.08 135.35 739.15 108.28" fill="#2E6DCA"/>
   <polygon points="1189.9 342.88 1117.7 315.81 1216.9 306.79" fill="#1584D0"/>
   <polygon points="865.35 279.72 784.23 270.7 838.31 207.53" fill="#187BCE"/>
   <polygon points="838.31 207.53 739.15 198.51 820.28 144.37" fill="#2671CB"/>
   <polygon points="1081.7 198.51 1036.6 279.72 991.55 198.51" fill="#1E78CD"/>
   <polygon points="955.49 54.14 1000.6 45.116 982.54 99.256" fill="#3A66C7"/>
   <polygon points="775.21 90.233 865.35 72.186 820.28 144.37" fill="#346AC9"/>
   <polygon points="919.44 234.6 838.31 207.53 910.42 180.47" fill="#2176CC"/>
   <polygon points="603.55 342.88 639.8 324.84 676.06 342.88" fill="#1685D0"/>
   <polygon points="676.06 288.74 676.06 342.88 639.8 324.84" fill="#1583CF"/>
   <polygon points="360.56 234.6 414.65 279.72 441.69 207.53" fill="#177CCE"/>
   <polygon points="279.44 45.116 144.23 36.093 135.21 108.28" fill="#3C65C7"/>
   <polygon points="432.68 27.07 351.55 36.093 504.79 90.233" fill="#3F63C7"/>
   <polygon points="369.58 63.163 414.65 72.186 504.79 90.233 351.55 36.093 279.44 45.116 324.51 54.14" fill="#3D64C7"/>
   <polygon points="144.23 36.093 45.07 108.28 135.21 108.28" fill="#3867C8"/>
   <polygon points="45.07 108.28 36.056 180.47 99.155 180.47" fill="#2C70CA"/>
   <polygon points="135.21 108.28 45.07 108.28 99.155 180.47" fill="#2E6DCA"/>
   <polygon points="477.75 27.07 432.68 27.07 504.79 90.233" fill="#3F63C7"/>
   <polygon points="495.77 270.7 540.85 198.51 441.69 207.53" fill="#1C79CD"/>
   <polygon points="522.82 153.4 540.85 108.28 504.79 90.233" fill="#336BC9"/>
   <polygon points="459.72 144.37 540.85 198.51 522.82 153.4 504.79 90.233" fill="#2D6DCA"/>
   <polygon points="540.85 108.28 540.85 54.14 504.79 90.233" fill="#3867C8"/>
   <polygon points="540.85 54.14 477.75 27.07 504.79 90.233" fill="#3B65C7"/>
   <polygon points="297.46 99.256 279.44 45.116 135.21 108.28" fill="#3867C8"/>
   <polygon points="414.65 279.72 351.55 288.74 351.55 351.91 495.77 270.7" fill="#137FCF"/>
   <polygon points="297.46 324.84 351.55 351.91 351.55 288.74" fill="#1583CF"/>
   <polygon points="351.55 351.91 441.69 342.88 495.77 270.7" fill="#1583CF"/>
   <polygon points="297.46 270.7 297.46 324.84 351.55 288.74" fill="#1480CF"/>
   <polygon points="576.9 243.63 594.93 225.58 540.85 198.51" fill="#1E78CD"/>
   <polygon points="558.87 306.79 576.9 243.63 540.85 198.51" fill="#1A7ACD"/>
   <polygon points="495.77 270.7 558.87 306.79 540.85 198.51" fill="#177CCE"/>
   <polygon points="441.69 342.88 558.87 306.79 495.77 270.7" fill="#1482CF"/>
   <polygon points="135.21 243.63 162.25 315.81 243.38 279.72" fill="#167DCE"/>
   <polygon points="90.141 252.65 162.25 315.81 135.21 243.63" fill="#177CCE"/>
   <polygon points="99.155 180.47 90.141 252.65 135.21 243.63" fill="#1D79CD"/>
   <polygon points="162.25 315.81 243.38 351.91 243.38 279.72" fill="#1583CF"/>
   <polygon points="243.38 351.91 297.46 324.84 243.38 279.72" fill="#1482CF"/>
   <polygon points="243.38 279.72 297.46 324.84 297.46 270.7" fill="#1480CF"/>
   <polygon points="36.056 180.47 90.141 252.65 99.155 180.47" fill="#2474CC"/>
   <polygon points="54.085 63.163 45.07 108.28 144.23 36.093" fill="#3A66C8"/>
   <polygon points="225.35 18.047 144.23 36.093 279.44 45.116" fill="#4162C6"/>
   <polygon points="63.099 306.79 162.25 315.81 90.141 252.65" fill="#1480CF"/>
   <polygon points="288.45 198.51 360.56 234.6 369.58 180.47" fill="#2275CC"/>
   <polygon points="603.94 288.74 576.9 243.63 558.87 306.79" fill="#167DCE"/>
   <polygon points="99.155 180.47 135.21 243.63 135.21 108.28" fill="#2673CB"/>
   <polygon points="414.65 72.186 369.58 63.163 459.72 144.37" fill="#3668C8"/>
   <polygon points="603.94 342.88 603.94 288.74 558.87 306.79" fill="#1583CF"/>
   <polygon points="0 0 0 27.07 72.113 0" fill="#455FC6"/>
   <polygon points="441.69 207.53 459.72 144.37 369.58 180.47" fill="#2671CB"/>
   <polygon points="640 0 549.86 0 585.92 54.14" fill="#4360C6"/>
   <polygon points="351.55 288.74 414.65 279.72 360.56 234.6" fill="#177CCE"/>
   <polygon points="135.21 243.63 243.38 279.72 198.31 198.51" fill="#1D78CD"/>
   <polygon points="135.21 108.28 135.21 243.63 198.31 198.51" fill="#2375CC"/>
   <polygon points="459.72 144.37 369.58 63.163 360.56 117.3" fill="#346AC9"/>
   <polygon points="243.38 279.72 297.46 270.7 288.45 198.51" fill="#187BCE"/>
   <polygon points="297.46 270.7 351.55 288.74 360.56 234.6" fill="#157DCE"/>
   <polygon points="288.45 198.51 297.46 270.7 360.56 234.6" fill="#1A7ACD"/>
   <polygon points="252.39 144.37 135.21 108.28 198.31 198.51" fill="#2B6FCA"/>
   <polygon points="324.51 54.14 297.46 99.256 360.56 117.3" fill="#3669C8"/>
   <polygon points="369.58 63.163 324.51 54.14 360.56 117.3" fill="#3867C8"/>
   <polygon points="297.46 99.256 135.21 108.28 252.39 144.37" fill="#306EC9"/>
   <polygon points="459.72 144.37 360.56 117.3 297.46 99.256 369.58 180.47" fill="#2B6FCA"/>
   <polygon points="369.58 180.47 297.46 99.256 288.45 198.51" fill="#2771CB"/>
   <polygon points="198.31 198.51 288.45 198.51 297.46 99.256 252.39 144.37" fill="#2970CB"/>
   <polygon points="0 342.88 90.141 388 90.141 342.88" fill="#1686D1"/>
   <polygon points="90.141 252.65 0 270.7 63.099 306.79" fill="#137FCE"/>
   <polygon points="36.056 180.47 0 225.58 90.141 252.65" fill="#1E78CC"/>
   <polygon points="0 270.7 0 342.88 63.099 306.79" fill="#1481CF"/>
   <polygon points="0 225.58 0 270.7 90.141 252.65" fill="#1A7BCD"/>
   <polygon points="63.099 306.79 0 342.88 90.141 342.88" fill="#1584D0"/>
   <polygon points="90.141 342.88 90.141 388 162.25 315.81" fill="#1686D1"/>
   <polygon points="640 261.67 640 189.49 603.94 207.53" fill="#2076CC"/>
   <polygon points="594.93 225.58 640 261.67 603.94 207.53" fill="#1D78CD"/>
   <polygon points="640 189.49 640 144.37 603.94 207.53" fill="#2671CB"/>
   <polygon points="603.94 207.53 640 144.37 585.92 135.35" fill="#2970CB"/>
   <polygon points="585.92 135.35 640 144.37 594.93 99.256" fill="#2E6DCA"/>
   <polygon points="640 144.37 640 81.209 594.93 99.256" fill="#346AC9"/>
   <polygon points="585.92 54.14 640 81.209 640 0" fill="#3E63C7"/>
   <polygon points="640 324.84 640 261.67 603.94 288.74" fill="#137FCF"/>
   <polygon points="594.93 99.256 640 81.209 585.92 54.14" fill="#3967C8"/>
   <polygon points="603.94 288.74 640 261.67 576.9 243.63" fill="#177CCE"/>
   <polygon points="576.9 243.63 640 261.67 594.93 225.58" fill="#1C79CD"/>
   <polygon points="432.68 27.07 387.61 0 351.55 36.093" fill="#4261C6"/>
   <polygon points="504.79 0 387.61 0 432.68 27.07" fill="#445FC6"/>
   <polygon points="477.75 27.07 504.79 0 432.68 27.07" fill="#4261C6"/>
   <polygon points="540.85 54.14 504.79 0 477.75 27.07" fill="#4360C6"/>
   <polygon points="324.51 0 270.42 0 279.44 45.116" fill="#4460C6"/>
   <polygon points="351.55 36.093 324.51 0 279.44 45.116" fill="#4360C6"/>
   <polygon points="279.44 45.116 270.42 0 225.35 18.047" fill="#4360C6"/>
   <polygon points="387.61 0 324.51 0 351.55 36.093" fill="#4460C6"/>
   <polygon points="594.93 99.256 585.92 54.14 540.85 108.28" fill="#3768C8"/>
   <polygon points="585.92 135.35 594.93 99.256 540.85 108.28" fill="#326BC9"/>
   <polygon points="540.85 198.51 585.92 135.35 522.82 153.4" fill="#2A70CA"/>
   <polygon points="585.92 54.14 549.86 0 540.85 54.14" fill="#4162C6"/>
   <polygon points="540.85 108.28 585.92 54.14 540.85 54.14" fill="#3A66C7"/>
   <polygon points="549.86 0 504.79 0 540.85 54.14" fill="#4460C6"/>
   <polygon points="603.94 207.53 585.92 135.35 540.85 198.51" fill="#2673CB"/>
   <polygon points="0 99.256 0 153.4 45.07 108.28" fill="#326BC9"/>
   <polygon points="54.085 63.163 0 99.256 45.07 108.28" fill="#3768C8"/>
   <polygon points="0 153.4 0 225.58 36.056 180.47" fill="#2474CB"/>
   <polygon points="0 27.07 0 99.256 54.085 63.163" fill="#3D64C7"/>
   <polygon points="45.07 108.28 0 153.4 36.056 180.47" fill="#2D6DCA"/>
   <polygon points="270.42 0 135.21 0 225.35 18.047" fill="#455FC6"/>
   <polygon points="144.23 36.093 135.21 0 54.085 63.163" fill="#4062C6"/>
   <polygon points="225.35 18.047 135.21 0 144.23 36.093" fill="#4360C6"/>
   <polygon points="594.93 225.58 603.94 207.53 540.85 198.51" fill="#2077CC"/>
   <polygon points="72.113 0 0 27.07 54.085 63.163" fill="#4162C6"/>
   <polygon points="135.21 0 72.113 0 54.085 63.163" fill="#4360C6"/>
   <polygon points="522.82 153.4 585.92 135.35 540.85 108.28" fill="#2E6DCA"/>
   <polygon points="90.141 342.88 162.25 315.81 63.099 306.79" fill="#1584D0"/>
   <polygon points="414.65 279.72 495.77 270.7 441.69 207.53" fill="#187BCE"/>
   <polygon points="441.69 207.53 540.85 198.51 459.72 144.37" fill="#2671CB"/>
   <polygon points="198.31 198.51 243.38 279.72 288.45 198.51" fill="#1E78CD"/>
   <polygon points="324.51 54.14 279.44 45.116 297.46 99.256" fill="#3A66C7"/>
   <polygon points="504.79 90.233 414.65 72.186 459.72 144.37" fill="#346AC9"/>
   <polygon points="360.56 234.6 441.69 207.53 369.58 180.47" fill="#2176CC"/>
   <polygon points="676.45 342.88 640.2 324.84 603.94 342.88" fill="#1685D0"/>
   <polygon points="603.94 288.74 603.94 342.88 640.2 324.84" fill="#1583CF"/>
  </g>
 </g>
</svg>
