<?xml version="1.0" encoding="UTF-8"?>
<svg width="1280px" height="388px" viewBox="0 0 1280 388" version="1.1" xmlns="http://www.w3.org/2000/svg" xmlns:xlink="http://www.w3.org/1999/xlink">
    <!-- Generator: Sketch 50.2 (55047) - http://www.bohemiancoding.com/sketch -->
    <title>Low Poly</title>
    <desc>Created with Sketch.</desc>
    <defs>
        <filter x="-0.5%" y="-1.3%" width="101.2%" height="103.6%" filterUnits="objectBoundingBox" id="filter-1">
            <feOffset dx="0" dy="2" in="SourceAlpha" result="shadowOffsetOuter1"></feOffset>
            <feGaussianBlur stdDeviation="2" in="shadowOffsetOuter1" result="shadowBlurOuter1"></feGaussianBlur>
            <feColorMatrix values="0 0 0 0 0   0 0 0 0 0   0 0 0 0 0  0 0 0 0.5 0" type="matrix" in="shadowBlurOuter1" result="shadowMatrixOuter1"></feColorMatrix>
            <feMerge>
                <feMergeNode in="shadowMatrixOuter1"></feMergeNode>
                <feMergeNode in="SourceGraphic"></feMergeNode>
            </feMerge>
        </filter>
    </defs>
    <g id="Low-Poly" stroke="none" stroke-width="1" fill="none" fill-rule="evenodd">
        <g filter="url(#filter-1)" fill-rule="nonzero" id="Shape">
            <polygon fill="#177CCE" points="919.43662 234.604651 865.352113 279.72093 838.309859 207.534884"></polygon>
            <polygon fill="#3C65C7" points="1000.56338 45.1162791 1135.77465 36.0930233 1144.78873 108.27907"></polygon>
            <polygon fill="#3F63C7" points="847.323944 27.0697674 928.450704 36.0930233 775.211268 90.2325581"></polygon>
            <polygon fill="#3D64C7" points="910.422535 63.1627907 865.352113 72.1860465 775.211268 90.2325581 928.450704 36.0930233 1000.56338 45.1162791 955.492958 54.1395349"></polygon>
            <polygon fill="#3867C8" points="1135.77465 36.0930233 1234.92958 108.27907 1144.78873 108.27907"></polygon>
            <polygon fill="#2C70CA" points="1234.92958 108.27907 1243.94366 180.465116 1180.84507 180.465116"></polygon>
            <polygon fill="#2E6DCA" points="1144.78873 108.27907 1234.92958 108.27907 1180.84507 180.465116"></polygon>
            <polygon fill="#3F63C7" points="802.253521 27.0697674 847.323944 27.0697674 775.211268 90.2325581"></polygon>
            <polygon fill="#1C79CD" points="784.225352 270.697674 739.15493 198.511628 838.309859 207.534884"></polygon>
            <polygon fill="#336BC9" points="757.183099 153.395349 739.15493 108.27907 775.211268 90.2325581"></polygon>
            <polygon fill="#2D6DCA" points="820.28169 144.372093 739.15493 198.511628 757.183099 153.395349 775.211268 90.2325581"></polygon>
            <polygon fill="#3867C8" points="739.15493 108.27907 739.15493 54.1395349 775.211268 90.2325581"></polygon>
            <polygon fill="#3B65C7" points="739.15493 54.1395349 802.253521 27.0697674 775.211268 90.2325581"></polygon>
            <polygon fill="#3867C8" points="982.535211 99.255814 1000.56338 45.1162791 1144.78873 108.27907"></polygon>
            <polygon fill="#137FCF" points="865.352113 279.72093 928.450704 288.744186 928.450704 351.906977 784.225352 270.697674"></polygon>
            <polygon fill="#1583CF" points="982.535211 324.837209 928.450704 351.906977 928.450704 288.744186"></polygon>
            <polygon fill="#1583CF" points="928.450704 351.906977 838.309859 342.883721 784.225352 270.697674"></polygon>
            <polygon fill="#1480CF" points="982.535211 270.697674 982.535211 324.837209 928.450704 288.744186"></polygon>
            <polygon fill="#1E78CD" points="703.098592 243.627907 685.070423 225.581395 739.15493 198.511628"></polygon>
            <polygon fill="#1A7ACD" points="721.126761 306.790698 703.098592 243.627907 739.15493 198.511628"></polygon>
            <polygon fill="#177CCE" points="784.225352 270.697674 721.126761 306.790698 739.15493 198.511628"></polygon>
            <polygon fill="#1482CF" points="838.309859 342.883721 721.126761 306.790698 784.225352 270.697674"></polygon>
            <polygon fill="#167DCE" points="1144.78873 243.627907 1117.74648 315.813953 1036.61972 279.72093"></polygon>
            <polygon fill="#177CCE" points="1189.85915 252.651163 1117.74648 315.813953 1144.78873 243.627907"></polygon>
            <polygon fill="#1D79CD" points="1180.84507 180.465116 1189.85915 252.651163 1144.78873 243.627907"></polygon>
            <polygon fill="#1583CF" points="1117.74648 315.813953 1036.61972 351.906977 1036.61972 279.72093"></polygon>
            <polygon fill="#1482CF" points="1036.61972 351.906977 982.535211 324.837209 1036.61972 279.72093"></polygon>
            <polygon fill="#1480CF" points="1036.61972 279.72093 982.535211 324.837209 982.535211 270.697674"></polygon>
            <polygon fill="#2474CC" points="1243.94366 180.465116 1189.85915 252.651163 1180.84507 180.465116"></polygon>
            <polygon fill="#3A66C8" points="1225.91549 63.1627907 1234.92958 108.27907 1135.77465 36.0930233"></polygon>
            <polygon fill="#4162C6" points="1054.64789 18.0465116 1135.77465 36.0930233 1000.56338 45.1162791"></polygon>
            <polygon fill="#1480CF" points="1216.90141 306.790698 1117.74648 315.813953 1189.85915 252.651163"></polygon>
            <polygon fill="#2275CC" points="991.549296 198.511628 919.43662 234.604651 910.422535 180.465116"></polygon>
            <polygon fill="#167DCE" points="676.056338 288.744186 703.098592 243.627907 721.126761 306.790698"></polygon>
            <polygon fill="#2673CB" points="1180.84507 180.465116 1144.78873 243.627907 1144.78873 108.27907"></polygon>
            <polygon fill="#3668C8" points="865.352113 72.1860465 910.422535 63.1627907 820.28169 144.372093"></polygon>
            <polygon fill="#1583CF" points="676.056338 342.883721 676.056338 288.744186 721.126761 306.790698"></polygon>
            <polygon fill="#455FC6" points="1280 0 1280 27.0697674 1207.88732 0"></polygon>
            <polygon fill="#2671CB" points="838.309859 207.534884 820.28169 144.372093 910.422535 180.465116"></polygon>
            <polygon fill="#4360C6" points="640 0 730.140845 0 694.084507 54.1395349"></polygon>
            <polygon fill="#177CCE" points="928.450704 288.744186 865.352113 279.72093 919.43662 234.604651"></polygon>
            <polygon fill="#1D78CD" points="1144.78873 243.627907 1036.61972 279.72093 1081.69014 198.511628"></polygon>
            <polygon fill="#2375CC" points="1144.78873 108.27907 1144.78873 243.627907 1081.69014 198.511628"></polygon>
            <polygon fill="#346AC9" points="820.28169 144.372093 910.422535 63.1627907 919.43662 117.302326"></polygon>
            <polygon fill="#187BCE" points="1036.61972 279.72093 982.535211 270.697674 991.549296 198.511628"></polygon>
            <polygon fill="#157DCE" points="982.535211 270.697674 928.450704 288.744186 919.43662 234.604651"></polygon>
            <polygon fill="#1A7ACD" points="991.549296 198.511628 982.535211 270.697674 919.43662 234.604651"></polygon>
            <polygon fill="#2B6FCA" points="1027.60563 144.372093 1144.78873 108.27907 1081.69014 198.511628"></polygon>
            <polygon fill="#3669C8" points="955.492958 54.1395349 982.535211 99.255814 919.43662 117.302326"></polygon>
            <polygon fill="#3867C8" points="910.422535 63.1627907 955.492958 54.1395349 919.43662 117.302326"></polygon>
            <polygon fill="#306EC9" points="982.535211 99.255814 1144.78873 108.27907 1027.60563 144.372093"></polygon>
            <polygon fill="#2B6FCA" points="820.28169 144.372093 919.43662 117.302326 982.535211 99.255814 910.422535 180.465116"></polygon>
            <polygon fill="#2771CB" points="910.422535 180.465116 982.535211 99.255814 991.549296 198.511628"></polygon>
            <polygon fill="#2970CB" points="1081.69014 198.511628 991.549296 198.511628 982.535211 99.255814 1027.60563 144.372093"></polygon>
            <polygon fill="#1686D1" points="1280 342.883721 1189.85915 388 1189.85915 342.883721"></polygon>
            <polygon fill="#137FCE" points="1189.85915 252.651163 1280 270.697674 1216.90141 306.790698"></polygon>
            <polygon fill="#1E78CC" points="1243.94366 180.465116 1280 225.581395 1189.85915 252.651163"></polygon>
            <polygon fill="#1481CF" points="1280 270.697674 1280 342.883721 1216.90141 306.790698"></polygon>
            <polygon fill="#1A7BCD" points="1280 225.581395 1280 270.697674 1189.85915 252.651163"></polygon>
            <polygon fill="#1584D0" points="1216.90141 306.790698 1280 342.883721 1189.85915 342.883721"></polygon>
            <polygon fill="#1686D1" points="1189.85915 342.883721 1189.85915 388 1117.74648 315.813953"></polygon>
            <polygon fill="#2076CC" points="640 261.674419 640 189.488372 676.056338 207.534884"></polygon>
            <polygon fill="#1D78CD" points="685.070423 225.581395 640 261.674419 676.056338 207.534884"></polygon>
            <polygon fill="#2671CB" points="640 189.488372 640 144.372093 676.056338 207.534884"></polygon>
            <polygon fill="#2970CB" points="676.056338 207.534884 640 144.372093 694.084507 135.348837"></polygon>
            <polygon fill="#2E6DCA" points="694.084507 135.348837 640 144.372093 685.070423 99.255814"></polygon>
            <polygon fill="#346AC9" points="640 144.372093 640 81.2093023 685.070423 99.255814"></polygon>
            <polygon fill="#3E63C7" points="694.084507 54.1395349 640 81.2093023 640 0"></polygon>
            <polygon fill="#137FCF" points="640 324.837209 640 261.674419 676.056338 288.744186"></polygon>
            <polygon fill="#3967C8" points="685.070423 99.255814 640 81.2093023 694.084507 54.1395349"></polygon>
            <polygon fill="#177CCE" points="676.056338 288.744186 640 261.674419 703.098592 243.627907"></polygon>
            <polygon fill="#1C79CD" points="703.098592 243.627907 640 261.674419 685.070423 225.581395"></polygon>
            <polygon fill="#4261C6" points="847.323944 27.0697674 892.394366 0 928.450704 36.0930233"></polygon>
            <polygon fill="#445FC6" points="775.211268 0 892.394366 0 847.323944 27.0697674"></polygon>
            <polygon fill="#4261C6" points="802.253521 27.0697674 775.211268 0 847.323944 27.0697674"></polygon>
            <polygon fill="#4360C6" points="739.15493 54.1395349 775.211268 0 802.253521 27.0697674"></polygon>
            <polygon fill="#4460C6" points="955.492958 0 1009.57746 0 1000.56338 45.1162791"></polygon>
            <polygon fill="#4360C6" points="928.450704 36.0930233 955.492958 0 1000.56338 45.1162791"></polygon>
            <polygon fill="#4360C6" points="1000.56338 45.1162791 1009.57746 0 1054.64789 18.0465116"></polygon>
            <polygon fill="#4460C6" points="892.394366 0 955.492958 0 928.450704 36.0930233"></polygon>
            <polygon fill="#3768C8" points="685.070423 99.255814 694.084507 54.1395349 739.15493 108.27907"></polygon>
            <polygon fill="#326BC9" points="694.084507 135.348837 685.070423 99.255814 739.15493 108.27907"></polygon>
            <polygon fill="#2A70CA" points="739.15493 198.511628 694.084507 135.348837 757.183099 153.395349"></polygon>
            <polygon fill="#4162C6" points="694.084507 54.1395349 730.140845 0 739.15493 54.1395349"></polygon>
            <polygon fill="#3A66C7" points="739.15493 108.27907 694.084507 54.1395349 739.15493 54.1395349"></polygon>
            <polygon fill="#4460C6" points="730.140845 0 775.211268 0 739.15493 54.1395349"></polygon>
            <polygon fill="#2673CB" points="676.056338 207.534884 694.084507 135.348837 739.15493 198.511628"></polygon>
            <polygon fill="#326BC9" points="1280 99.255814 1280 153.395349 1234.92958 108.27907"></polygon>
            <polygon fill="#3768C8" points="1225.91549 63.1627907 1280 99.255814 1234.92958 108.27907"></polygon>
            <polygon fill="#2474CB" points="1280 153.395349 1280 225.581395 1243.94366 180.465116"></polygon>
            <polygon fill="#3D64C7" points="1280 27.0697674 1280 99.255814 1225.91549 63.1627907"></polygon>
            <polygon fill="#2D6DCA" points="1234.92958 108.27907 1280 153.395349 1243.94366 180.465116"></polygon>
            <polygon fill="#455FC6" points="1009.57746 0 1144.78873 0 1054.64789 18.0465116"></polygon>
            <polygon fill="#4062C6" points="1135.77465 36.0930233 1144.78873 0 1225.91549 63.1627907"></polygon>
            <polygon fill="#4360C6" points="1054.64789 18.0465116 1144.78873 0 1135.77465 36.0930233"></polygon>
            <polygon fill="#2077CC" points="685.070423 225.581395 676.056338 207.534884 739.15493 198.511628"></polygon>
            <polygon fill="#4162C6" points="1207.88732 0 1280 27.0697674 1225.91549 63.1627907"></polygon>
            <polygon fill="#4360C6" points="1144.78873 0 1207.88732 0 1225.91549 63.1627907"></polygon>
            <polygon fill="#2E6DCA" points="757.183099 153.395349 694.084507 135.348837 739.15493 108.27907"></polygon>
            <polygon fill="#1584D0" points="1189.85915 342.883721 1117.74648 315.813953 1216.90141 306.790698"></polygon>
            <polygon fill="#187BCE" points="865.352113 279.72093 784.225352 270.697674 838.309859 207.534884"></polygon>
            <polygon fill="#2671CB" points="838.309859 207.534884 739.15493 198.511628 820.28169 144.372093"></polygon>
            <polygon fill="#1E78CD" points="1081.69014 198.511628 1036.61972 279.72093 991.549296 198.511628"></polygon>
            <polygon fill="#3A66C7" points="955.492958 54.1395349 1000.56338 45.1162791 982.535211 99.255814"></polygon>
            <polygon fill="#346AC9" points="775.211268 90.2325581 865.352113 72.1860465 820.28169 144.372093"></polygon>
            <polygon fill="#2176CC" points="919.43662 234.604651 838.309859 207.534884 910.422535 180.465116"></polygon>
            <polygon fill="#1685D0" points="603.553052 342.883721 639.799687 324.837209 676.056338 342.883721"></polygon>
            <polygon fill="#1583CF" points="676.056338 288.744186 676.056338 342.883721 639.799687 324.837209"></polygon>
            <polygon fill="#177CCE" points="360.56338 234.604651 414.647887 279.72093 441.690141 207.534884"></polygon>
            <polygon fill="#3C65C7" points="279.43662 45.1162791 144.225352 36.0930233 135.211268 108.27907"></polygon>
            <polygon fill="#3F63C7" points="432.676056 27.0697674 351.549296 36.0930233 504.788732 90.2325581"></polygon>
            <polygon fill="#3D64C7" points="369.577465 63.1627907 414.647887 72.1860465 504.788732 90.2325581 351.549296 36.0930233 279.43662 45.1162791 324.507042 54.1395349"></polygon>
            <polygon fill="#3867C8" points="144.225352 36.0930233 45.0704225 108.27907 135.211268 108.27907"></polygon>
            <polygon fill="#2C70CA" points="45.0704225 108.27907 36.056338 180.465116 99.1549296 180.465116"></polygon>
            <polygon fill="#2E6DCA" points="135.211268 108.27907 45.0704225 108.27907 99.1549296 180.465116"></polygon>
            <polygon fill="#3F63C7" points="477.746479 27.0697674 432.676056 27.0697674 504.788732 90.2325581"></polygon>
            <polygon fill="#1C79CD" points="495.774648 270.697674 540.84507 198.511628 441.690141 207.534884"></polygon>
            <polygon fill="#336BC9" points="522.816901 153.395349 540.84507 108.27907 504.788732 90.2325581"></polygon>
            <polygon fill="#2D6DCA" points="459.71831 144.372093 540.84507 198.511628 522.816901 153.395349 504.788732 90.2325581"></polygon>
            <polygon fill="#3867C8" points="540.84507 108.27907 540.84507 54.1395349 504.788732 90.2325581"></polygon>
            <polygon fill="#3B65C7" points="540.84507 54.1395349 477.746479 27.0697674 504.788732 90.2325581"></polygon>
            <polygon fill="#3867C8" points="297.464789 99.255814 279.43662 45.1162791 135.211268 108.27907"></polygon>
            <polygon fill="#137FCF" points="414.647887 279.72093 351.549296 288.744186 351.549296 351.906977 495.774648 270.697674"></polygon>
            <polygon fill="#1583CF" points="297.464789 324.837209 351.549296 351.906977 351.549296 288.744186"></polygon>
            <polygon fill="#1583CF" points="351.549296 351.906977 441.690141 342.883721 495.774648 270.697674"></polygon>
            <polygon fill="#1480CF" points="297.464789 270.697674 297.464789 324.837209 351.549296 288.744186"></polygon>
            <polygon fill="#1E78CD" points="576.901408 243.627907 594.929577 225.581395 540.84507 198.511628"></polygon>
            <polygon fill="#1A7ACD" points="558.873239 306.790698 576.901408 243.627907 540.84507 198.511628"></polygon>
            <polygon fill="#177CCE" points="495.774648 270.697674 558.873239 306.790698 540.84507 198.511628"></polygon>
            <polygon fill="#1482CF" points="441.690141 342.883721 558.873239 306.790698 495.774648 270.697674"></polygon>
            <polygon fill="#167DCE" points="135.211268 243.627907 162.253521 315.813953 243.380282 279.72093"></polygon>
            <polygon fill="#177CCE" points="90.1408451 252.651163 162.253521 315.813953 135.211268 243.627907"></polygon>
            <polygon fill="#1D79CD" points="99.1549296 180.465116 90.1408451 252.651163 135.211268 243.627907"></polygon>
            <polygon fill="#1583CF" points="162.253521 315.813953 243.380282 351.906977 243.380282 279.72093"></polygon>
            <polygon fill="#1482CF" points="243.380282 351.906977 297.464789 324.837209 243.380282 279.72093"></polygon>
            <polygon fill="#1480CF" points="243.380282 279.72093 297.464789 324.837209 297.464789 270.697674"></polygon>
            <polygon fill="#2474CC" points="36.056338 180.465116 90.1408451 252.651163 99.1549296 180.465116"></polygon>
            <polygon fill="#3A66C8" points="54.084507 63.1627907 45.0704225 108.27907 144.225352 36.0930233"></polygon>
            <polygon fill="#4162C6" points="225.352113 18.0465116 144.225352 36.0930233 279.43662 45.1162791"></polygon>
            <polygon fill="#1480CF" points="63.0985915 306.790698 162.253521 315.813953 90.1408451 252.651163"></polygon>
            <polygon fill="#2275CC" points="288.450704 198.511628 360.56338 234.604651 369.577465 180.465116"></polygon>
            <polygon fill="#167DCE" points="603.943662 288.744186 576.901408 243.627907 558.873239 306.790698"></polygon>
            <polygon fill="#2673CB" points="99.1549296 180.465116 135.211268 243.627907 135.211268 108.27907"></polygon>
            <polygon fill="#3668C8" points="414.647887 72.1860465 369.577465 63.1627907 459.71831 144.372093"></polygon>
            <polygon fill="#1583CF" points="603.943662 342.883721 603.943662 288.744186 558.873239 306.790698"></polygon>
            <polygon fill="#455FC6" points="0 0 0 27.0697674 72.1126761 0"></polygon>
            <polygon fill="#2671CB" points="441.690141 207.534884 459.71831 144.372093 369.577465 180.465116"></polygon>
            <polygon fill="#4360C6" points="640 0 549.859155 0 585.915493 54.1395349"></polygon>
            <polygon fill="#177CCE" points="351.549296 288.744186 414.647887 279.72093 360.56338 234.604651"></polygon>
            <polygon fill="#1D78CD" points="135.211268 243.627907 243.380282 279.72093 198.309859 198.511628"></polygon>
            <polygon fill="#2375CC" points="135.211268 108.27907 135.211268 243.627907 198.309859 198.511628"></polygon>
            <polygon fill="#346AC9" points="459.71831 144.372093 369.577465 63.1627907 360.56338 117.302326"></polygon>
            <polygon fill="#187BCE" points="243.380282 279.72093 297.464789 270.697674 288.450704 198.511628"></polygon>
            <polygon fill="#157DCE" points="297.464789 270.697674 351.549296 288.744186 360.56338 234.604651"></polygon>
            <polygon fill="#1A7ACD" points="288.450704 198.511628 297.464789 270.697674 360.56338 234.604651"></polygon>
            <polygon fill="#2B6FCA" points="252.394366 144.372093 135.211268 108.27907 198.309859 198.511628"></polygon>
            <polygon fill="#3669C8" points="324.507042 54.1395349 297.464789 99.255814 360.56338 117.302326"></polygon>
            <polygon fill="#3867C8" points="369.577465 63.1627907 324.507042 54.1395349 360.56338 117.302326"></polygon>
            <polygon fill="#306EC9" points="297.464789 99.255814 135.211268 108.27907 252.394366 144.372093"></polygon>
            <polygon fill="#2B6FCA" points="459.71831 144.372093 360.56338 117.302326 297.464789 99.255814 369.577465 180.465116"></polygon>
            <polygon fill="#2771CB" points="369.577465 180.465116 297.464789 99.255814 288.450704 198.511628"></polygon>
            <polygon fill="#2970CB" points="198.309859 198.511628 288.450704 198.511628 297.464789 99.255814 252.394366 144.372093"></polygon>
            <polygon fill="#1686D1" points="0 342.883721 90.1408451 388 90.1408451 342.883721"></polygon>
            <polygon fill="#137FCE" points="90.1408451 252.651163 0 270.697674 63.0985915 306.790698"></polygon>
            <polygon fill="#1E78CC" points="36.056338 180.465116 0 225.581395 90.1408451 252.651163"></polygon>
            <polygon fill="#1481CF" points="0 270.697674 0 342.883721 63.0985915 306.790698"></polygon>
            <polygon fill="#1A7BCD" points="0 225.581395 0 270.697674 90.1408451 252.651163"></polygon>
            <polygon fill="#1584D0" points="63.0985915 306.790698 0 342.883721 90.1408451 342.883721"></polygon>
            <polygon fill="#1686D1" points="90.1408451 342.883721 90.1408451 388 162.253521 315.813953"></polygon>
            <polygon fill="#2076CC" points="640 261.674419 640 189.488372 603.943662 207.534884"></polygon>
            <polygon fill="#1D78CD" points="594.929577 225.581395 640 261.674419 603.943662 207.534884"></polygon>
            <polygon fill="#2671CB" points="640 189.488372 640 144.372093 603.943662 207.534884"></polygon>
            <polygon fill="#2970CB" points="603.943662 207.534884 640 144.372093 585.915493 135.348837"></polygon>
            <polygon fill="#2E6DCA" points="585.915493 135.348837 640 144.372093 594.929577 99.255814"></polygon>
            <polygon fill="#346AC9" points="640 144.372093 640 81.2093023 594.929577 99.255814"></polygon>
            <polygon fill="#3E63C7" points="585.915493 54.1395349 640 81.2093023 640 0"></polygon>
            <polygon fill="#137FCF" points="640 324.837209 640 261.674419 603.943662 288.744186"></polygon>
            <polygon fill="#3967C8" points="594.929577 99.255814 640 81.2093023 585.915493 54.1395349"></polygon>
            <polygon fill="#177CCE" points="603.943662 288.744186 640 261.674419 576.901408 243.627907"></polygon>
            <polygon fill="#1C79CD" points="576.901408 243.627907 640 261.674419 594.929577 225.581395"></polygon>
            <polygon fill="#4261C6" points="432.676056 27.0697674 387.605634 0 351.549296 36.0930233"></polygon>
            <polygon fill="#445FC6" points="504.788732 0 387.605634 0 432.676056 27.0697674"></polygon>
            <polygon fill="#4261C6" points="477.746479 27.0697674 504.788732 0 432.676056 27.0697674"></polygon>
            <polygon fill="#4360C6" points="540.84507 54.1395349 504.788732 0 477.746479 27.0697674"></polygon>
            <polygon fill="#4460C6" points="324.507042 0 270.422535 0 279.43662 45.1162791"></polygon>
            <polygon fill="#4360C6" points="351.549296 36.0930233 324.507042 0 279.43662 45.1162791"></polygon>
            <polygon fill="#4360C6" points="279.43662 45.1162791 270.422535 0 225.352113 18.0465116"></polygon>
            <polygon fill="#4460C6" points="387.605634 0 324.507042 0 351.549296 36.0930233"></polygon>
            <polygon fill="#3768C8" points="594.929577 99.255814 585.915493 54.1395349 540.84507 108.27907"></polygon>
            <polygon fill="#326BC9" points="585.915493 135.348837 594.929577 99.255814 540.84507 108.27907"></polygon>
            <polygon fill="#2A70CA" points="540.84507 198.511628 585.915493 135.348837 522.816901 153.395349"></polygon>
            <polygon fill="#4162C6" points="585.915493 54.1395349 549.859155 0 540.84507 54.1395349"></polygon>
            <polygon fill="#3A66C7" points="540.84507 108.27907 585.915493 54.1395349 540.84507 54.1395349"></polygon>
            <polygon fill="#4460C6" points="549.859155 0 504.788732 0 540.84507 54.1395349"></polygon>
            <polygon fill="#2673CB" points="603.943662 207.534884 585.915493 135.348837 540.84507 198.511628"></polygon>
            <polygon fill="#326BC9" points="0 99.255814 0 153.395349 45.0704225 108.27907"></polygon>
            <polygon fill="#3768C8" points="54.084507 63.1627907 0 99.255814 45.0704225 108.27907"></polygon>
            <polygon fill="#2474CB" points="0 153.395349 0 225.581395 36.056338 180.465116"></polygon>
            <polygon fill="#3D64C7" points="0 27.0697674 0 99.255814 54.084507 63.1627907"></polygon>
            <polygon fill="#2D6DCA" points="45.0704225 108.27907 0 153.395349 36.056338 180.465116"></polygon>
            <polygon fill="#455FC6" points="270.422535 0 135.211268 0 225.352113 18.0465116"></polygon>
            <polygon fill="#4062C6" points="144.225352 36.0930233 135.211268 0 54.084507 63.1627907"></polygon>
            <polygon fill="#4360C6" points="225.352113 18.0465116 135.211268 0 144.225352 36.0930233"></polygon>
            <polygon fill="#2077CC" points="594.929577 225.581395 603.943662 207.534884 540.84507 198.511628"></polygon>
            <polygon fill="#4162C6" points="72.1126761 0 0 27.0697674 54.084507 63.1627907"></polygon>
            <polygon fill="#4360C6" points="135.211268 0 72.1126761 0 54.084507 63.1627907"></polygon>
            <polygon fill="#2E6DCA" points="522.816901 153.395349 585.915493 135.348837 540.84507 108.27907"></polygon>
            <polygon fill="#1584D0" points="90.1408451 342.883721 162.253521 315.813953 63.0985915 306.790698"></polygon>
            <polygon fill="#187BCE" points="414.647887 279.72093 495.774648 270.697674 441.690141 207.534884"></polygon>
            <polygon fill="#2671CB" points="441.690141 207.534884 540.84507 198.511628 459.71831 144.372093"></polygon>
            <polygon fill="#1E78CD" points="198.309859 198.511628 243.380282 279.72093 288.450704 198.511628"></polygon>
            <polygon fill="#3A66C7" points="324.507042 54.1395349 279.43662 45.1162791 297.464789 99.255814"></polygon>
            <polygon fill="#346AC9" points="504.788732 90.2325581 414.647887 72.1860465 459.71831 144.372093"></polygon>
            <polygon fill="#2176CC" points="360.56338 234.604651 441.690141 207.534884 369.577465 180.465116"></polygon>
            <polygon fill="#1685D0" points="676.446948 342.883721 640.200313 324.837209 603.943662 342.883721"></polygon>
            <polygon fill="#1583CF" points="603.943662 288.744186 603.943662 342.883721 640.200313 324.837209"></polygon>
        </g>
    </g>
</svg>