<?xml version="1.0" encoding="UTF-8" standalone="no"?>
<svg xmlns="http://www.w3.org/2000/svg" height="389px" width="1280px" version="1.1" xmlns:xlink="http://www.w3.org/1999/xlink" viewBox="0 0 1280 389"><!-- Generator: Sketch 50.2 (55047) - http://www.bohemiancoding.com/sketch -->
 <title>Low Poly (2)</title>
 <desc>Created with Sketch.</desc>
 <defs>
  <filter id="filter-1" height="103.6%" width="101.1%" y="-1.3%" x="-.5%" filterUnits="objectBoundingBox">
   <feOffset in="SourceAlpha" result="shadowOffsetOuter1" dx="0" dy="2"/>
   <feGaussianBlur stdDeviation="2" result="shadowBlurOuter1" in="shadowOffsetOuter1"/>
   <feColorMatrix type="matrix" values="0 0 0 0 0   0 0 0 0 0   0 0 0 0 0  0 0 0 0.5 0" result="shadowMatrixOuter1" in="shadowBlurOuter1"/>
   <feMerge>
    <feMergeNode in="shadowMatrixOuter1"/>
    <feMergeNode in="SourceGraphic"/>
   </feMerge>
  </filter>
 </defs>
 <g id="Low-Poly-(2)" fill-rule="evenodd" fill="none">
  <g id="Shape" filter="url(#filter-1)" transform="translate(0 -2)" fill-rule="nonzero">
   <polygon points="360.85 234 414.97 279 442.04 207" fill="#4AAADE"/>
   <polygon points="279.65 45 144.34 36 135.32 108" fill="#2D6DCA"/>
   <polygon points="433.01 27 351.82 36 505.18 90" fill="#3868C8"/>
   <polygon points="369.87 63 414.97 72 505.18 90 351.82 36 279.65 45 324.76 54" fill="#346AC9"/>
   <polygon points="144.34 36 45.106 108 135.32 108" fill="#2970CB"/>
   <polygon points="45.106 108 36.085 180 99.232 180" fill="#1686D1"/>
   <polygon points="135.32 108 45.106 108 99.232 180" fill="#197BCD"/>
   <polygon points="478.12 27 433.01 27 505.18 90" fill="#3569C8"/>
   <polygon points="496.16 270 541.27 198 442.04 207" fill="#36A2DA"/>
   <polygon points="523.23 153 541.27 108 505.18 90" fill="#1B7ACD"/>
   <polygon points="460.08 144 541.27 198 523.23 153 505.18 90" fill="#147FCE"/>
   <polygon points="541.27 108 541.27 54 505.18 90" fill="#2771CB"/>
   <polygon points="541.27 54 478.12 27 505.18 90" fill="#316DC9"/>
   <polygon points="297.7 99 279.65 45 135.32 108" fill="#2970CB"/>
   <polygon points="414.97 279 351.82 288 351.82 351 496.16 270" fill="#87C3E9"/>
   <polygon points="297.7 324 351.82 351 351.82 288" fill="#9FCEED"/>
   <polygon points="351.82 351 442.04 342 496.16 270" fill="#91C7EA"/>
   <polygon points="297.7 270 297.7 324 351.82 288" fill="#7DBFE7"/>
   <polygon points="577.35 243 595.39 225 541.27 198" fill="#2B9DD9"/>
   <polygon points="559.31 306 577.35 243 541.27 198" fill="#40A6DD"/>
   <polygon points="496.16 270 559.31 306 541.27 198" fill="#4DABDF"/>
   <polygon points="442.04 342 559.31 306 496.16 270" fill="#82C1E8"/>
   <polygon points="135.32 243 162.38 315 243.57 279" fill="#7DBFE7"/>
   <polygon points="90.211 252 162.38 315 135.32 243" fill="#67B6E3"/>
   <polygon points="99.232 180 90.211 252 135.32 243" fill="#2B9DD9"/>
   <polygon points="162.38 315 243.57 351 243.57 279" fill="#92C8EA"/>
   <polygon points="243.57 351 297.7 324 243.57 279" fill="#90C7EA"/>
   <polygon points="243.57 279 297.7 324 297.7 270" fill="#74BBE5"/>
   <polygon points="36.085 180 90.211 252 99.232 180" fill="#1A8FD4"/>
   <polygon points="54.127 63 45.106 108 144.34 36" fill="#2C6FCA"/>
   <polygon points="225.53 18 144.34 36 279.65 45" fill="#3A66C8"/>
   <polygon points="63.148 306 162.38 315 90.211 252" fill="#7FC0E7"/>
   <polygon points="288.68 198 360.85 234 369.87 180" fill="#198ED3"/>
   <polygon points="604.42 288 577.35 243 559.31 306" fill="#66B5E3"/>
   <polygon points="99.232 180 135.32 243 135.32 108" fill="#1789D2"/>
   <polygon points="414.97 72 369.87 63 460.08 144" fill="#2673CB"/>
   <polygon points="604.42 342 604.42 288 559.31 306" fill="#8BC5E9"/>
   <polygon points="0 0 0 27 72.169 0" fill="#4361C6"/>
   <polygon points="442.04 207 460.08 144 369.87 180" fill="#1789D2"/>
   <polygon points="640.5 0 550.29 0 586.37 54" fill="#3D64C7"/>
   <polygon points="351.82 288 414.97 279 360.85 234" fill="#61B3E2"/>
   <polygon points="135.32 243 243.57 279 198.46 198" fill="#43A7DD"/>
   <polygon points="135.32 108 135.32 243 198.46 198" fill="#188AD2"/>
   <polygon points="460.08 144 369.87 63 360.85 117" fill="#2176CC"/>
   <polygon points="243.57 279 297.7 270 288.68 198" fill="#4AAADE"/>
   <polygon points="297.7 270 351.82 288 360.85 234" fill="#63B4E3"/>
   <polygon points="288.68 198 297.7 270 360.85 234" fill="#34A1DB"/>
   <polygon points="252.59 144 135.32 108 198.46 198" fill="#137FCF"/>
   <polygon points="324.76 54 297.7 99 360.85 117" fill="#2870CB"/>
   <polygon points="369.87 63 324.76 54 360.85 117" fill="#2671CB"/>
   <polygon points="297.7 99 135.32 108 252.59 144" fill="#177CCE"/>
   <polygon points="460.08 144 360.85 117 297.7 99 369.87 180" fill="#157ECE"/>
   <polygon points="369.87 180 297.7 99 288.68 198" fill="#1481CF"/>
   <polygon points="198.46 198 288.68 198 297.7 99 252.59 144" fill="#1788D1"/>
   <polygon points="0 342 90.211 387 90.211 342" fill="#B8D8F1"/>
   <polygon points="90.211 252 0 270 63.148 306" fill="#61B3E2"/>
   <polygon points="36.085 180 0 225 90.211 252" fill="#1E98D7"/>
   <polygon points="0 270 0 342 63.148 306" fill="#8DC6E9"/>
   <polygon points="0 225 0 270 90.211 252" fill="#4AAADE"/>
   <polygon points="63.148 306 0 342 90.211 342" fill="#A5D0EE"/>
   <polygon points="90.211 342 90.211 387 162.38 315" fill="#ADD3EF"/>
   <polygon points="640.5 261 640.5 189 604.42 207" fill="#299CD9"/>
   <polygon points="595.39 225 640.5 261 604.42 207" fill="#34A1DB"/>
   <polygon points="640.5 189 640.5 144 604.42 207" fill="#1788D1"/>
   <polygon points="604.42 207 640.5 144 586.37 135" fill="#1685D0"/>
   <polygon points="586.37 135 640.5 144 595.39 99" fill="#177CCE"/>
   <polygon points="640.5 144 640.5 81 595.39 99" fill="#1A7ACD"/>
   <polygon points="586.37 54 640.5 81 640.5 0" fill="#3867C8"/>
   <polygon points="640.5 324 640.5 261 604.42 288" fill="#7CBFE7"/>
   <polygon points="595.39 99 640.5 81 586.37 54" fill="#2970CB"/>
   <polygon points="604.42 288 640.5 261 577.35 243" fill="#68B6E3"/>
   <polygon points="577.35 243 640.5 261 595.39 225" fill="#43A7DD"/>
   <polygon points="433.01 27 387.91 0 351.82 36" fill="#3B64C7"/>
   <polygon points="505.18 0 387.91 0 433.01 27" fill="#4361C6"/>
   <polygon points="478.12 27 505.18 0 433.01 27" fill="#3F63C7"/>
   <polygon points="541.27 54 505.18 0 478.12 27" fill="#3867C8"/>
   <polygon points="324.76 0 270.63 0 279.65 45" fill="#4162C6"/>
   <polygon points="351.82 36 324.76 0 279.65 45" fill="#3B64C7"/>
   <polygon points="279.65 45 270.63 0 225.53 18" fill="#4062C7"/>
   <polygon points="387.91 0 324.76 0 351.82 36" fill="#4361C6"/>
   <polygon points="595.39 99 586.37 54 541.27 108" fill="#2671CB"/>
   <polygon points="586.37 135 595.39 99 541.27 108" fill="#1D79CD"/>
   <polygon points="541.27 198 586.37 135 523.23 153" fill="#1584D0"/>
   <polygon points="586.37 54 550.29 0 541.27 54" fill="#3867C8"/>
   <polygon points="541.27 108 586.37 54 541.27 54" fill="#2D6DCA"/>
   <polygon points="550.29 0 505.18 0 541.27 54" fill="#3E64C7"/>
   <polygon points="604.42 207 586.37 135 541.27 198" fill="#1789D1"/>
   <polygon points="0 99 0 153 45.106 108" fill="#1B7ACD"/>
   <polygon points="54.127 63 0 99 45.106 108" fill="#2671CB"/>
   <polygon points="0 153 0 225 36.085 180" fill="#188AD2"/>
   <polygon points="0 27 0 99 54.127 63" fill="#2E6DCA"/>
   <polygon points="45.106 108 0 153 36.085 180" fill="#1480CF"/>
   <polygon points="270.63 0 135.32 0 225.53 18" fill="#4360C6"/>
   <polygon points="144.34 36 135.32 0 54.127 63" fill="#3B65C7"/>
   <polygon points="225.53 18 135.32 0 144.34 36" fill="#3F63C7"/>
   <polygon points="595.39 225 604.42 207 541.27 198" fill="#1D96D6"/>
   <polygon points="72.169 0 0 27 54.127 63" fill="#3966C8"/>
   <polygon points="135.32 0 72.169 0 54.127 63" fill="#4062C7"/>
   <polygon points="523.23 153 586.37 135 541.27 108" fill="#157DCE"/>
   <polygon points="90.211 342 162.38 315 63.148 306" fill="#98CAEB"/>
   <polygon points="414.97 279 496.16 270 442.04 207" fill="#50ACDF"/>
   <polygon points="442.04 207 541.27 198 460.08 144" fill="#1788D1"/>
   <polygon points="198.46 198 243.57 279 288.68 198" fill="#3FA5DC"/>
   <polygon points="324.76 54 279.65 45 297.7 99" fill="#2B6FCA"/>
   <polygon points="505.18 90 414.97 72 460.08 144" fill="#2375CC"/>
   <polygon points="360.85 234 442.04 207 369.87 180" fill="#1D96D6"/>
   <polygon points="676.98 342 640.7 324 604.42 342" fill="#A7D1EE"/>
   <polygon points="604.42 288 604.42 342 640.7 324" fill="#96C9EB"/>
   <polygon points="919.54 234.72 865.31 279.58 838.42 207.51" fill="#4AAADE"/>
   <polygon points="1001.2 45.94 1136.6 37.29 1145.4 109.31" fill="#2D6DCA"/>
   <polygon points="847.92 27.54 929.09 36.75 775.59 90.35" fill="#3868C8"/>
   <polygon points="910.97 63.7 865.84 72.58 775.59 90.35 929.09 36.75 1001.2 45.94 956.1 54.82" fill="#346AC9"/>
   <polygon points="1136.6 37.29 1235.6 109.55 1145.4 109.31" fill="#2970CB"/>
   <polygon points="1235.6 109.55 1244.4 181.57 1181.3 181.4" fill="#1686D1"/>
   <polygon points="1145.4 109.31 1235.6 109.55 1181.3 181.4" fill="#197BCD"/>
   <polygon points="802.81 27.42 847.92 27.54 775.59 90.35" fill="#3569C8"/>
   <polygon points="784.14 270.37 739.22 198.26 838.42 207.51" fill="#36A2DA"/>
   <polygon points="757.37 153.3 739.45 108.26 775.59 90.35" fill="#1B7ACD"/>
   <polygon points="820.55 144.47 739.22 198.26 757.37 153.3 775.59 90.35" fill="#147FCE"/>
   <polygon points="739.45 108.26 739.59 54.26 775.59 90.35" fill="#2771CB"/>
   <polygon points="739.59 54.26 802.81 27.42 775.59 90.35" fill="#316DC9"/>
   <polygon points="983.04 99.89 1001.2 45.94 1145.4 109.31" fill="#2970CB"/>
   <polygon points="865.31 279.58 928.42 288.75 928.26 351.75 784.14 270.37" fill="#87C3E9"/>
   <polygon points="982.46 324.89 928.26 351.75 928.42 288.75" fill="#9FCEED"/>
   <polygon points="928.26 351.75 838.07 342.51 784.14 270.37" fill="#91C7EA"/>
   <polygon points="982.6 270.89 982.46 324.89 928.42 288.75" fill="#7DBFE7"/>
   <polygon points="703.02 243.16 685.02 225.12 739.22 198.26" fill="#2B9DD9"/>
   <polygon points="720.9 306.21 703.02 243.16 739.22 198.26" fill="#40A6DD"/>
   <polygon points="784.14 270.37 720.9 306.21 739.22 198.26" fill="#4DABDF"/>
   <polygon points="838.07 342.51 720.9 306.21 784.14 270.37" fill="#82C1E8"/>
   <polygon points="1145.1 244.31 1117.8 316.24 1036.7 280.03" fill="#7DBFE7"/>
   <polygon points="1190.1 253.43 1117.8 316.24 1145.1 244.31" fill="#67B6E3"/>
   <polygon points="1181.3 181.4 1190.1 253.43 1145.1 244.31" fill="#2B9DD9"/>
   <polygon points="1117.8 316.24 1036.5 352.03 1036.7 280.03" fill="#92C8EA"/>
   <polygon points="1036.5 352.03 982.46 324.89 1036.7 280.03" fill="#90C7EA"/>
   <polygon points="1036.7 280.03 982.46 324.89 982.6 270.89" fill="#74BBE5"/>
   <polygon points="1244.4 181.57 1190.1 253.43 1181.3 181.4" fill="#1A8FD4"/>
   <polygon points="1226.7 64.52 1235.6 109.55 1136.6 37.29" fill="#2C6FCA"/>
   <polygon points="1055.4 19.08 1136.6 37.29 1001.2 45.94" fill="#3A66C8"/>
   <polygon points="1217.1 307.5 1117.8 316.24 1190.1 253.43" fill="#7FC0E7"/>
   <polygon points="991.81 198.91 919.54 234.72 910.66 180.7" fill="#198ED3"/>
   <polygon points="675.83 288.09 703.02 243.16 720.9 306.21" fill="#66B5E3"/>
   <polygon points="1181.3 181.4 1145.1 244.31 1145.4 109.31" fill="#1789D2"/>
   <polygon points="865.84 72.58 910.97 63.7 820.55 144.47" fill="#2673CB"/>
   <polygon points="675.69 342.09 675.83 288.09 720.9 306.21" fill="#8BC5E9"/>
   <polygon points="1281 1.66 1280.9 28.66 1208.8 1.48" fill="#4361C6"/>
   <polygon points="838.42 207.51 820.55 144.47 910.66 180.7" fill="#1789D2"/>
   <polygon points="640.5 0 730.71 0.23 694.49 54.14" fill="#3D64C7"/>
   <polygon points="928.42 288.75 865.31 279.58 919.54 234.72" fill="#61B3E2"/>
   <polygon points="1145.1 244.31 1036.7 280.03 1082 199.15" fill="#43A7DD"/>
   <polygon points="1145.4 109.31 1145.1 244.31 1082 199.15" fill="#188AD2"/>
   <polygon points="820.55 144.47 910.97 63.7 919.85 117.72" fill="#2176CC"/>
   <polygon points="1036.7 280.03 982.6 270.89 991.81 198.91" fill="#4AAADE"/>
   <polygon points="982.6 270.89 928.42 288.75 919.54 234.72" fill="#63B4E3"/>
   <polygon points="991.81 198.91 982.6 270.89 919.54 234.72" fill="#34A1DB"/>
   <polygon points="1028 145.01 1145.4 109.31 1082 199.15" fill="#137FCF"/>
   <polygon points="956.1 54.82 983.04 99.89 919.85 117.72" fill="#2870CB"/>
   <polygon points="910.97 63.7 956.1 54.82 919.85 117.72" fill="#2671CB"/>
   <polygon points="983.04 99.89 1145.4 109.31 1028 145.01" fill="#177CCE"/>
   <polygon points="820.55 144.47 919.85 117.72 983.04 99.89 910.66 180.7" fill="#157ECE"/>
   <polygon points="910.66 180.7 983.04 99.89 991.81 198.91" fill="#1481CF"/>
   <polygon points="1082 199.15 991.81 198.91 983.04 99.89 1028 145.01" fill="#1788D1"/>
   <polygon points="1280.1 343.66 1189.8 388.43 1189.9 343.43" fill="#B8D8F1"/>
   <polygon points="1190.1 253.43 1280.3 271.66 1217.1 307.5" fill="#61B3E2"/>
   <polygon points="1244.4 181.57 1280.4 226.66 1190.1 253.43" fill="#1E98D7"/>
   <polygon points="1280.3 271.66 1280.1 343.66 1217.1 307.5" fill="#8DC6E9"/>
   <polygon points="1280.4 226.66 1280.3 271.66 1190.1 253.43" fill="#4AAADE"/>
   <polygon points="1217.1 307.5 1280.1 343.66 1189.9 343.43" fill="#A5D0EE"/>
   <polygon points="1189.9 343.43 1189.8 388.43 1117.8 316.24" fill="#ADD3EF"/>
   <polygon points="639.82 261 640.01 189 676.04 207.09" fill="#299CD9"/>
   <polygon points="685.02 225.12 639.82 261 676.04 207.09" fill="#34A1DB"/>
   <polygon points="640.01 189 640.13 144 676.04 207.09" fill="#1788D1"/>
   <polygon points="676.04 207.09 640.13 144 694.28 135.14" fill="#1685D0"/>
   <polygon points="694.28 135.14 640.13 144 685.35 99.12" fill="#177CCE"/>
   <polygon points="640.13 144 640.29 81 685.35 99.12" fill="#1A7ACD"/>
   <polygon points="694.49 54.14 640.29 81 640.5 0" fill="#3867C8"/>
   <polygon points="639.66 324 639.82 261 675.83 288.09" fill="#7CBFE7"/>
   <polygon points="685.35 99.12 640.29 81 694.49 54.14" fill="#2970CB"/>
   <polygon points="675.83 288.09 639.82 261 703.02 243.16" fill="#68B6E3"/>
   <polygon points="703.02 243.16 639.82 261 685.02 225.12" fill="#43A7DD"/>
   <polygon points="847.92 27.54 893.09 0.66 929.09 36.75" fill="#3B64C7"/>
   <polygon points="775.82 0.35 893.09 0.66 847.92 27.54" fill="#4361C6"/>
   <polygon points="802.81 27.42 775.82 0.35 847.92 27.54" fill="#3F63C7"/>
   <polygon points="739.59 54.26 775.82 0.35 802.81 27.42" fill="#3867C8"/>
   <polygon points="956.24 0.82 1010.4 0.96 1001.2 45.94" fill="#4162C6"/>
   <polygon points="929.09 36.75 956.24 0.82 1001.2 45.94" fill="#3B64C7"/>
   <polygon points="1001.2 45.94 1010.4 0.96 1055.4 19.08" fill="#4062C7"/>
   <polygon points="893.09 0.66 956.24 0.82 929.09 36.75" fill="#4361C6"/>
   <polygon points="685.35 99.12 694.49 54.14 739.45 108.26" fill="#2671CB"/>
   <polygon points="694.28 135.14 685.35 99.12 739.45 108.26" fill="#1D79CD"/>
   <polygon points="739.22 198.26 694.28 135.14 757.37 153.3" fill="#1584D0"/>
   <polygon points="694.49 54.14 730.71 0.23 739.59 54.26" fill="#3867C8"/>
   <polygon points="739.45 108.26 694.49 54.14 739.59 54.26" fill="#2D6DCA"/>
   <polygon points="730.71 0.23 775.82 0.35 739.59 54.26" fill="#3E64C7"/>
   <polygon points="676.04 207.09 694.28 135.14 739.22 198.26" fill="#1789D1"/>
   <polygon points="1280.7 100.66 1280.6 154.66 1235.6 109.55" fill="#1B7ACD"/>
   <polygon points="1226.7 64.52 1280.7 100.66 1235.6 109.55" fill="#2671CB"/>
   <polygon points="1280.6 154.66 1280.4 226.66 1244.4 181.57" fill="#188AD2"/>
   <polygon points="1280.9 28.66 1280.7 100.66 1226.7 64.52" fill="#2E6DCA"/>
   <polygon points="1235.6 109.55 1280.6 154.66 1244.4 181.57" fill="#1480CF"/>
   <polygon points="1010.4 0.96 1145.7 1.31 1055.4 19.08" fill="#4360C6"/>
   <polygon points="1136.6 37.29 1145.7 1.31 1226.7 64.52" fill="#3B65C7"/>
   <polygon points="1055.4 19.08 1145.7 1.31 1136.6 37.29" fill="#3F63C7"/>
   <polygon points="685.02 225.12 676.04 207.09 739.22 198.26" fill="#1D96D6"/>
   <polygon points="1208.8 1.48 1280.9 28.66 1226.7 64.52" fill="#3966C8"/>
   <polygon points="1145.7 1.31 1208.8 1.48 1226.7 64.52" fill="#4062C7"/>
   <polygon points="757.37 153.3 694.28 135.14 739.45 108.26" fill="#157DCE"/>
   <polygon points="1189.9 343.43 1117.8 316.24 1217.1 307.5" fill="#98CAEB"/>
   <polygon points="865.31 279.58 784.14 270.37 838.42 207.51" fill="#50ACDF"/>
   <polygon points="838.42 207.51 739.22 198.26 820.55 144.47" fill="#1788D1"/>
   <polygon points="1082 199.15 1036.7 280.03 991.81 198.91" fill="#3FA5DC"/>
   <polygon points="956.1 54.82 1001.2 45.94 983.04 99.89" fill="#2B6FCA"/>
   <polygon points="775.59 90.35 865.84 72.58 820.55 144.47" fill="#2375CC"/>
   <polygon points="919.54 234.72 838.42 207.51 910.66 180.7" fill="#1D96D6"/>
   <polygon points="603.13 341.9 639.46 324 675.69 342.09" fill="#A7D1EE"/>
   <polygon points="675.83 288.09 675.69 342.09 639.46 324" fill="#96C9EB"/>
  </g>
 </g>
</svg>
