<?xml version="1.0" encoding="UTF-8" standalone="no"?>
<svg xmlns="http://www.w3.org/2000/svg" height="958px" width="1280px" version="1.1" xmlns:xlink="http://www.w3.org/1999/xlink" viewBox="0 0 1280 958"><!-- Generator: Sketch 50.2 (55047) - http://www.bohemiancoding.com/sketch -->
 <title>Foto</title>
 <desc>Created with Sketch.</desc>
 <defs>
  <path id="path-1" d="m-236.18 505.47l67.86-83.37 135.15-36.21 84.776 21.02 127.88-91.16 173.42 15.57 185.22-88.72h162.62l89.41-151.44 211.84 37.99 217.9-116.77 191 19.295 136.9-89.675 126.7 37.427v287.17l43.5 162.42-1892.2 507.01-111.79-417.21 49.81-13.35z"/>
  <filter id="filter-3" height="101.4%" width="100.7%" y="-.9%" x="-.3%" filterUnits="objectBoundingBox">
   <feOffset in="SourceAlpha" result="shadowOffsetOuter1" dx="0" dy="-2"/>
   <feGaussianBlur stdDeviation="2" result="shadowBlurOuter1" in="shadowOffsetOuter1"/>
   <feColorMatrix type="matrix" values="0 0 0 0 0   0 0 0 0 0   0 0 0 0 0  0 0 0 0.5 0" in="shadowBlurOuter1"/>
  </filter>
  <path id="path-4" d="m-236.18 505.46l67.86-83.36 135.15-36.21 84.778 21.02 127.88-91.16 173.42 15.57 185.22-88.72h162.62l89.41-151.44 211.84 37.99 217.9-116.77 191 19.295 136.9-89.675 126.7 37.427v287.16l43.5 162.43-1892.2 507.01-111.79-417.22 49.81-13.35z"/>
 </defs>
 <g id="Foto" fill-rule="evenodd">
  <path id="Combined-Shape" fill="#fff" d="m1280 546.38v411.62h-1280v-68.65l1280-342.97zm0-527.93l-60.1-6.07-217.9 116.77-211.84-37.995-89.41 151.44h-162.62l-185.22 88.72-173.42-15.57-127.88 91.16-51.61-12.79v-394.12h1280v18.451z"/>
  <mask id="mask-2" fill="white">
   <use xlink:href="#path-1"/>
  </mask>
  <g id="Mask">
   <use filter="url(#filter-3)" xlink:href="#path-1"/>
  </g>
  <mask id="mask-5" fill="white">
   <use xlink:href="#path-4"/>
  </mask>
  <use id="Mask-Copy" opacity=".25" xlink:href="#path-4" fill="#008BD2"/>
 </g>
</svg>
