<?xml version="1.0" encoding="UTF-8"?>
<svg width="1280px" height="958px" viewBox="0 0 1280 958" version="1.1" xmlns="http://www.w3.org/2000/svg" xmlns:xlink="http://www.w3.org/1999/xlink">
    <!-- Generator: Sketch 50.2 (55047) - http://www.bohemiancoding.com/sketch -->
    <title>Foto</title>
    <desc>Created with Sketch.</desc>
    <defs>
        <path d="M-236.183316,505.469564 L-168.323855,422.103385 L-33.1681487,385.892317 L51.6063143,406.913195 L179.488825,315.750339 L352.907395,331.320555 L538.130004,242.600724 L700.752593,242.600724 L790.155453,91.1548545 L1001.98864,129.146617 L1219.93521,12.3808522 L1410.85931,31.6753253 L1547.81435,-58 L1674.47201,-20.5728483 L1674.47201,266.597366 L1717.99302,429.019969 L-174.200422,936.031672 L-285.993016,518.816032 L-236.183316,505.469564 Z" id="path-1"></path>
        <filter x="-0.3%" y="-0.9%" width="100.7%" height="101.4%" filterUnits="objectBoundingBox" id="filter-3">
            <feOffset dx="0" dy="-2" in="SourceAlpha" result="shadowOffsetOuter1"></feOffset>
            <feGaussianBlur stdDeviation="2" in="shadowOffsetOuter1" result="shadowBlurOuter1"></feGaussianBlur>
            <feColorMatrix values="0 0 0 0 0   0 0 0 0 0   0 0 0 0 0  0 0 0 0.5 0" type="matrix" in="shadowBlurOuter1"></feColorMatrix>
        </filter>
        <path d="M-236.178017,505.464626 L-168.322576,422.103385 L-33.1668695,385.892317 L51.6075936,406.913195 L179.490104,315.750339 L352.908674,331.320555 L538.131283,242.600724 L700.753872,242.600724 L790.156733,91.1548545 L1001.98992,129.146617 L1219.93649,12.3808522 L1410.86059,31.6753253 L1547.81562,-58 L1674.47329,-20.5728483 L1674.47329,266.586521 L1717.99604,429.01564 L-174.197396,936.027343 L-285.98999,518.811704 L-236.178017,505.464626 Z" id="path-4"></path>
    </defs>
    <g id="Foto" stroke="none" stroke-width="1" fill="none" fill-rule="evenodd">
        <path d="M1280,546.376325 L1280,958 L0,958 L0,889.351292 L1280,546.376325 Z M1280,18.4507712 L1219.93649,12.3808522 L1001.98992,129.146617 L790.156733,91.1548545 L700.753872,242.600724 L538.131283,242.600724 L352.908674,331.320555 L179.490104,315.750339 L51.6075936,406.913195 L1.42108547e-14,394.116453 L0,0 L1280,0 L1280,18.4507712 Z" id="Combined-Shape" fill="#FFFFFF"></path>
        <mask id="mask-2" fill="white">
            <use xlink:href="#path-1"></use>
        </mask>
        <g id="Mask" fill="black" fill-opacity="1">
            <use filter="url(#filter-3)" xlink:href="#path-1"></use>
        </g>
        <mask id="mask-5" fill="white">
            <use xlink:href="#path-4"></use>
        </mask>
        <use id="Mask-Copy" fill="#008BD2" opacity="0.25" xlink:href="#path-4"></use>
    </g>
</svg>