<?xml version="1.0" encoding="UTF-8"?>
<svg width="247px" height="248px" viewBox="0 0 247 248" version="1.1" xmlns="http://www.w3.org/2000/svg" xmlns:xlink="http://www.w3.org/1999/xlink">
    <!-- Generator: Sketch 50.2 (55047) - http://www.bohemiancoding.com/sketch -->
    <title>machinery</title>
    <desc>Created with Sketch.</desc>
    <defs></defs>
    <g id="Web" stroke="none" stroke-width="1" fill="none" fill-rule="evenodd">
        <g id="Desktop-Copy" transform="translate(-240.000000, -1401.000000)" fill="#DADADA" fill-rule="nonzero" stroke="#485DC5">
            <g id="Stacked-Group-6" transform="translate(97.000000, 436.000000)">
                <g id="Group-3" transform="translate(0.000000, 956.000000)">
                    <g id="Stacked-Group-3" transform="translate(10.000000, 10.000000)">
                        <g id="machinery" transform="translate(134.000000, 0.000000)">
                            <path d="M90.294107,108.466673 C80.0205989,108.466673 71.6623118,117.873782 71.6623118,129.437354 C71.6623118,141.000011 80.0205989,150.40712 90.294107,150.40712 C100.568427,150.40712 108.926714,141.000011 108.926714,129.437354 C108.926714,117.873782 100.568427,108.466673 90.294107,108.466673 Z M90.294107,137.147619 C86.5164372,137.147619 83.4434779,133.689056 83.4434779,129.437354 C83.4434779,125.185651 86.5164372,121.726174 90.294107,121.726174 C94.0717767,121.726174 97.1455479,125.185651 97.1455479,129.437354 C97.1455479,133.689056 94.0717767,137.147619 90.294107,137.147619 Z" id="Shape"></path>
                            <path d="M239.096633,203.372412 L115.578281,203.372412 L115.578281,162.391177 C123.514226,154.502053 128.528964,142.994651 128.528964,130.192296 C128.528964,114.304824 120.807571,100.410229 109.358752,92.9561497 L98.8325057,71.5380531 L135.491998,71.5380531 C138.799398,71.5380531 141.479646,68.5316147 141.479646,64.8216994 L141.479646,57.0103282 L194.256937,57.0103282 L194.256937,72.6312193 L174.34322,72.6312193 C172.267843,72.6312193 170.341002,73.8363864 169.250088,75.8163038 C168.159175,77.7971468 168.059325,80.2694981 168.9885,82.3512345 L181.939183,111.404833 C182.988837,113.757778 185.102998,115.118451 187.298854,115.118451 C188.198322,115.118451 189.111818,114.888895 189.972501,114.407569 C192.929191,112.748844 194.128206,108.714959 192.649448,105.396584 L184.031889,86.0630011 L216.458107,86.0630011 L207.840548,105.396584 C206.36179,108.714034 207.560805,112.748844 210.517495,114.407569 C213.476661,116.06907 217.072056,114.721357 218.550813,111.404833 L231.500671,82.3512345 C232.42902,80.2694981 232.329171,77.7971468 231.239082,75.8163038 C230.148168,73.8363864 228.221327,72.6312193 226.14595,72.6312193 L206.232234,72.6312193 L206.232234,55.9171621 C213.748977,53.0995517 219.182916,45.135452 219.182916,35.7690265 C219.182916,24.0552095 210.687486,14.5258736 200.244585,14.5258736 L141.480471,14.5258736 L141.480471,6.71635372 C141.480471,3.00643838 138.800223,0 135.492823,0 L44.8388707,0 L44.8083383,0.0148100413 C39.6013288,0.0120331585 34.3233522,1.43564838 29.4488981,4.44949177 C21.9899189,9.06281963 16.57826,16.6566683 14.2115875,25.8351914 C11.8449151,35.0127888 12.8062726,44.6754151 16.917417,53.0430884 L52.1270335,124.687589 C51.9207336,126.491637 51.8019049,128.326231 51.8019049,130.192296 C51.8019049,131.856574 51.8951525,133.496786 52.0601924,135.112007 L15.5484109,203.371487 L5.9876483,203.371487 C2.6802483,203.371487 0,206.377925 0,210.08784 L0,239.141439 C0,242.851354 2.6802483,245.857793 5.9876483,245.857793 L239.097458,245.857793 C242.404858,245.857793 245.085106,242.851354 245.085106,239.141439 L245.085106,210.08784 C245.084281,206.378851 242.404033,203.372412 239.096633,203.372412 Z M90.1654343,159.79294 C75.6146898,159.79294 63.7763763,146.513887 63.7763763,130.192296 C63.7763763,113.870705 75.6146898,100.591652 90.1654343,100.591652 C104.716179,100.591652 116.554492,113.870705 116.554492,130.192296 C116.554492,146.513887 104.716179,159.79294 90.1654343,159.79294 Z M200.245411,43.5794721 C196.405757,43.5794721 193.282376,40.0759717 193.282376,35.7690265 C193.282376,31.4620814 196.405757,27.9576554 200.245411,27.9576554 C204.085064,27.9576554 207.20927,31.4620814 207.20927,35.7690265 C207.20927,40.0759717 204.084239,43.5794721 200.245411,43.5794721 Z M182.639777,27.958581 C181.78322,30.3781715 181.307905,33.011582 181.307905,35.7699522 C181.307905,38.5273967 181.784045,41.1608072 182.639777,43.5803977 L141.480471,43.5803977 L141.480471,27.958581 L182.639777,27.958581 Z M129.506,58.1062713 L92.2325593,58.1062713 L72.7702267,18.5060722 C71.8773608,16.6890653 70.8565889,15.0007206 69.7392686,13.4327074 L129.506,13.4327074 L129.506,58.1062713 Z M27.4048787,46.5581416 C22.1037965,35.7718034 25.6141956,22.1585986 35.2302465,16.2132927 C38.2702819,14.3333431 41.5611779,13.4410381 44.8099887,13.4410381 C51.8357381,13.4410381 58.6584884,17.6146928 62.282765,24.991019 L92.8951946,87.2802013 C91.9924262,87.208928 91.0838815,87.1589441 90.1654343,87.1589441 C76.3491174,87.1589441 64.2178581,95.3970296 57.4627742,107.720835 L27.4048787,46.5581416 Z M57.0534752,151.885304 C63.7194375,164.637675 76.0619479,173.225648 90.1654343,173.225648 C94.8921776,173.225648 99.4192226,172.25559 103.60381,170.494121 L103.60381,203.372412 L29.5132637,203.372412 L57.0534752,151.885304 Z M233.10981,232.425085 L11.9744714,232.425085 L11.9744714,216.804194 L233.10981,216.804194 L233.10981,232.425085 Z" id="Shape"></path>
                        </g>
                    </g>
                </g>
            </g>
        </g>
    </g>
</svg>