<?xml version="1.0" encoding="UTF-8"?>
<svg width="142px" height="247px" viewBox="0 0 142 247" version="1.1" xmlns="http://www.w3.org/2000/svg" xmlns:xlink="http://www.w3.org/1999/xlink">
    <!-- Generator: Sketch 50.2 (55047) - http://www.bohemiancoding.com/sketch -->
    <title>flash</title>
    <desc>Created with Sketch.</desc>
    <defs></defs>
    <g id="Web" stroke="none" stroke-width="1" fill="none" fill-rule="evenodd">
        <g id="Desktop-Copy" transform="translate(-845.000000, -445.000000)" fill="#DADADA" fill-rule="nonzero" stroke="#485DC5">
            <g id="Stacked-Group-2" transform="translate(647.000000, 436.000000)">
                <g id="Group-2" transform="translate(1.000000, 0.000000)">
                    <g id="Stacked-Group-2" transform="translate(10.000000, 10.000000)">
                        <g id="flash" transform="translate(188.000000, 0.000000)">
                            <path d="M139.243506,83.8818919 C138.572396,82.4469111 137.12704,81.5259247 135.534893,81.5259247 L87.0269512,81.5259247 L134.900241,6.25726173 C135.698473,5.00189233 135.747403,3.4121399 135.027364,2.11186763 C134.306844,0.807296154 132.931045,0 131.441076,0 L65.9452807,0 C64.3939092,0 62.9773353,0.872261998 62.2817606,2.25421926 L0.87930239,124.542867 C0.244650419,125.802536 0.314207892,127.302483 1.0591924,128.504829 C1.80849428,129.707174 3.12241094,130.440906 4.54282249,130.440906 L46.6361264,130.440906 L0.768490141,238.919058 C-0.0134317877,240.773928 0.682622641,242.925922 2.40572912,243.977795 C3.06868379,244.381443 3.80551329,244.576819 4.53850513,244.576819 C5.71330685,244.576819 6.87179854,244.075244 7.67434786,243.129896 L138.666419,88.230782 C139.693471,87.0164939 139.914615,85.3206943 139.243506,83.8818919 Z" id="Shape"></path>
                        </g>
                    </g>
                </g>
            </g>
        </g>
    </g>
</svg>