<?xml version="1.0" encoding="UTF-8"?>
<svg width="79px" height="74px" viewBox="0 0 79 74" version="1.1" xmlns="http://www.w3.org/2000/svg" xmlns:xlink="http://www.w3.org/1999/xlink">
    <!-- Generator: Sketch 50.2 (55047) - http://www.bohemiancoding.com/sketch -->
    <title>printer-</title>
    <desc>Created with Sketch.</desc>
    <defs></defs>
    <g id="Web" stroke="none" stroke-width="1" fill="none" fill-rule="evenodd">
        <g id="Desktop-Copy-4" transform="translate(-96.000000, -379.000000)" fill="#DADADA" fill-rule="nonzero">
            <g id="Stacked-Group" transform="translate(96.000000, 248.000000)">
                <g id="Group-2" transform="translate(0.000000, 131.000000)">
                    <g id="printer-">
                        <path d="M19,59.6 L19,74 L58,74 L58,59.6 L58,50 L19,50 L19,59.6 Z M23.875,54.8 L53.125,54.8 L53.125,59.6 L23.875,59.6 L23.875,54.8 Z M23.875,64.4 L53.125,64.4 L53.125,69.2 L23.875,69.2 L23.875,64.4 Z" id="Shape"></path>
                        <polygon id="Shape" points="58 14.4 58 0 19 0 19 14.4 19 24 58 24"></polygon>
                        <path d="M69.125,15 L64.1875,15 L64.1875,25.2222222 L64.1875,30.3333333 L14.8125,30.3333333 L14.8125,25.2222222 L14.8125,15 L9.875,15 C4.9375,15 0,20.1111111 0,25.2222222 L0,50.7777778 C0,55.8888889 4.9375,61 9.875,61 L14.8125,61 L14.8125,50.7777778 L14.8125,45.6666667 L64.1875,45.6666667 L64.1875,50.7777778 L64.1875,61 L69.125,61 C74.0625,61 79,55.8888889 79,50.7777778 L79,25.2222222 C79,20.1111111 74.0625,15 69.125,15 Z" id="Shape"></path>
                    </g>
                </g>
            </g>
        </g>
    </g>
</svg>