<?xml version="1.0" encoding="UTF-8"?>
<svg width="296px" height="247px" viewBox="0 0 296 247" version="1.1" xmlns="http://www.w3.org/2000/svg" xmlns:xlink="http://www.w3.org/1999/xlink">
    <!-- Generator: Sketch 50.2 (55047) - http://www.bohemiancoding.com/sketch -->
    <title>galeria</title>
    <desc>Created with Sketch.</desc>
    <defs></defs>
    <g id="Web" stroke="none" stroke-width="1" fill="none" fill-rule="evenodd">
        <g id="Desktop-Copy" transform="translate(-201.000000, -2010.000000)" fill="#DADADA" fill-rule="nonzero" stroke="#485DC5">
            <g id="galeria" transform="translate(202.000000, 2011.000000)">
                <path d="M284.42142,0.365774648 L53.5382512,0.365774648 C47.9935446,0.365774648 43.4995775,4.85974178 43.4995775,10.4044484 L43.4995775,57.2506338 L63.5763498,57.2506338 L63.5763498,20.4431221 L274.382746,20.4431221 L274.382746,178.045986 L238.244671,178.045986 L238.244671,198.122758 L284.42142,198.122758 C289.966127,198.122758 294.460094,193.628791 294.460094,188.084085 L294.460094,10.4044484 C294.460094,4.85974178 289.966127,0.365774648 284.42142,0.365774648 Z" id="Shape"></path>
                <path d="M237.57581,47.2119601 L10.0386737,47.2119601 C4.49396714,47.2119601 0,51.7059272 0,57.2500587 L0,234.595552 C0,240.140258 4.49396714,244.634225 10.0386737,244.634225 L237.57581,244.634225 C243.120516,244.634225 247.614484,240.140258 247.614484,234.595552 L247.614484,57.2500587 C247.613908,51.7059272 243.120516,47.2119601 237.57581,47.2119601 Z M227.537136,224.557453 L20.0767723,224.557453 L20.0767723,67.2887324 L227.537136,67.2887324 L227.537136,224.557453 Z" id="Shape"></path>
                <path d="M101.053298,80.0074531 C85.5573357,80.0074531 72.9455869,92.6192019 72.9455869,108.115164 C72.9455869,123.611127 85.553885,136.219425 101.053298,136.219425 C116.552711,136.219425 129.161009,123.611127 129.161009,108.115164 C129.161009,92.6192019 116.549261,80.0074531 101.053298,80.0074531 Z M101.053298,116.139202 C96.6266197,116.139202 93.0223592,112.538967 93.0223592,108.111714 C93.0223592,103.685035 96.6225939,100.080775 101.053298,100.080775 C105.479977,100.080775 109.084237,103.681009 109.084237,108.111714 C109.084237,112.538392 105.480552,116.139202 101.053298,116.139202 Z" id="Shape"></path>
                <path d="M204.235106,196.44284 L156.050622,120.150646 C154.340798,117.443568 151.442782,115.713615 148.25088,115.496221 C144.971561,115.278826 141.947019,116.600446 139.885798,119.04642 L103.028251,162.817453 L87.1475352,151.470962 C84.9689906,149.918146 82.2590376,149.289542 79.6353521,149.741009 C77.0018897,150.189601 74.6531103,151.668228 73.1135211,153.850223 L43.3327934,196.014953 C41.1680516,199.076878 40.8937207,203.091772 42.6167723,206.421702 C44.3432746,209.751056 47.7796009,211.842183 51.5310915,211.842183 L195.749824,211.842183 C199.406995,211.842183 202.776608,209.851127 204.539918,206.648873 C206.306103,203.44662 206.188779,199.534671 204.235106,196.44284 Z M70.9113967,191.764836 L83.687054,173.675669 L98.8983333,184.540786 C103.154777,187.575681 109.040528,186.83608 112.413592,182.837864 L146.403603,142.476702 L177.535857,191.765411 L70.9113967,191.765411 L70.9113967,191.764836 Z" id="Shape"></path>
            </g>
        </g>
    </g>
</svg>