<svg id="Capa_1" data-name="Capa 1" xmlns="http://www.w3.org/2000/svg" viewBox="0 0 194 56"><defs><style>.cls-1{isolation:isolate;}.cls-2,.cls-7{fill:#dadada;}.cls-3{fill:none;}.cls-3,.cls-5,.cls-6,.cls-7{stroke:#485dc5;stroke-width:0.5px;}.cls-4{fill:#008bd2;}.cls-5{fill:#0085cf;}.cls-6{fill:#fff;}</style></defs><title>Mesa de trabajo 1</title><g class="cls-1"><g class="cls-1"><path class="cls-2" d="M57.13,28.37h4.3v11A3.17,3.17,0,0,0,62.74,42a5,5,0,0,0,6,.06A3,3,0,0,0,70,39.5V28.37h4.5V39.31a7.54,7.54,0,0,1-2.93,5.87,8.85,8.85,0,0,1-5.87,2.36,8.52,8.52,0,0,1-6.06-2.34,7.6,7.6,0,0,1-2.5-5.76Z"/></g><g class="cls-1"><path class="cls-3" d="M57.13,28.37h4.3v11A3.17,3.17,0,0,0,62.74,42a5,5,0,0,0,6,.06A3,3,0,0,0,70,39.5V28.37h4.5V39.31a7.54,7.54,0,0,1-2.93,5.87,8.85,8.85,0,0,1-5.87,2.36,8.52,8.52,0,0,1-6.06-2.34,7.6,7.6,0,0,1-2.5-5.76Z"/></g></g><g class="cls-1"><g class="cls-1"><path class="cls-2" d="M90.3,46.61a9.14,9.14,0,0,1-4,.86A10.44,10.44,0,0,1,80,45.4,7.68,7.68,0,0,1,76.63,40a16.38,16.38,0,0,1-.12-1.82,9.84,9.84,0,0,1,2.78-7.3,9.28,9.28,0,0,1,6.83-2.65A10.07,10.07,0,0,1,93,30.8a8.23,8.23,0,0,1,2.91,6.42v9.61a6.58,6.58,0,0,1-2.72,5.36,9.69,9.69,0,0,1-6.17,2h-.37a15.79,15.79,0,0,1-1.86-.09,9,9,0,0,1-1.69-.4V49.63a9.29,9.29,0,0,0,1.64.39,11.94,11.94,0,0,0,1.73.1,9,9,0,0,0,1.87-.21,6.56,6.56,0,0,0,1.37-.4,5,5,0,0,0,1.38-.91,2.49,2.49,0,0,0,.64-1.77V37.49A4.48,4.48,0,0,0,90,33.84a6.49,6.49,0,0,0-4.18-1.44A4.93,4.93,0,0,0,82.11,34a5.29,5.29,0,0,0-1.54,3.76,4.45,4.45,0,0,0,.07.79,5.37,5.37,0,0,0,2.09,3.56,5.78,5.78,0,0,0,3.64,1.21,5,5,0,0,0,3.93-1.63Z"/></g><g class="cls-1"><path class="cls-3" d="M90.3,46.61a9.14,9.14,0,0,1-4,.86A10.44,10.44,0,0,1,80,45.4,7.68,7.68,0,0,1,76.63,40a16.38,16.38,0,0,1-.12-1.82,9.84,9.84,0,0,1,2.78-7.3,9.28,9.28,0,0,1,6.83-2.65A10.07,10.07,0,0,1,93,30.8a8.23,8.23,0,0,1,2.91,6.42v9.61a6.58,6.58,0,0,1-2.72,5.36,9.69,9.69,0,0,1-6.17,2h-.37a15.79,15.79,0,0,1-1.86-.09,9,9,0,0,1-1.69-.4V49.63a9.29,9.29,0,0,0,1.64.39,11.94,11.94,0,0,0,1.73.1,9,9,0,0,0,1.87-.21,6.56,6.56,0,0,0,1.37-.4,5,5,0,0,0,1.38-.91,2.49,2.49,0,0,0,.64-1.77V37.49A4.48,4.48,0,0,0,90,33.84a6.49,6.49,0,0,0-4.18-1.44A4.93,4.93,0,0,0,82.11,34a5.29,5.29,0,0,0-1.54,3.76,4.45,4.45,0,0,0,.07.79,5.37,5.37,0,0,0,2.09,3.56,5.78,5.78,0,0,0,3.64,1.21,5,5,0,0,0,3.93-1.63Z"/></g></g><g class="cls-1"><g class="cls-1"><path class="cls-2" d="M107.49,47.54a9.12,9.12,0,0,1-7.18-3A9.55,9.55,0,0,1,97.93,38a9.78,9.78,0,0,1,2.43-6.72,9.34,9.34,0,0,1,7.35-3.08,9.12,9.12,0,0,1,7.18,3,9.57,9.57,0,0,1,2.38,6.59,9.78,9.78,0,0,1-2.43,6.72A9.34,9.34,0,0,1,107.49,47.54Zm.42-15.36A5.42,5.42,0,0,0,103.65,34a5.68,5.68,0,0,0-1.42,3.92,5.5,5.5,0,0,0,1.35,3.77,5.28,5.28,0,0,0,4.13,1.7A5.37,5.37,0,0,0,112,41.56a5.66,5.66,0,0,0,1.43-3.91A5.48,5.48,0,0,0,112,33.88,5.26,5.26,0,0,0,107.91,32.18Z"/></g><g class="cls-1"><path class="cls-3" d="M107.49,47.54a9.12,9.12,0,0,1-7.18-3A9.55,9.55,0,0,1,97.93,38a9.78,9.78,0,0,1,2.43-6.72,9.34,9.34,0,0,1,7.35-3.08,9.12,9.12,0,0,1,7.18,3,9.57,9.57,0,0,1,2.38,6.59,9.78,9.78,0,0,1-2.43,6.72A9.34,9.34,0,0,1,107.49,47.54Zm.42-15.36A5.42,5.42,0,0,0,103.65,34a5.68,5.68,0,0,0-1.42,3.92,5.5,5.5,0,0,0,1.35,3.77,5.28,5.28,0,0,0,4.13,1.7A5.37,5.37,0,0,0,112,41.56a5.66,5.66,0,0,0,1.43-3.91A5.48,5.48,0,0,0,112,33.88,5.26,5.26,0,0,0,107.91,32.18Z"/></g></g><g class="cls-1"><g class="cls-1"><path class="cls-2" d="M123.7,47.54l-4.6,0V36.8a9.35,9.35,0,0,1,.9-4.25,8.21,8.21,0,0,1,2.86-3.13,9.35,9.35,0,0,1,2.26-1.16,7.17,7.17,0,0,1,2.31-.36,7.32,7.32,0,0,1,.76,0c.3,0,.64.07,1,.13v4.35a4.88,4.88,0,0,0-1.28-.17,4.11,4.11,0,0,0-2.45.86,4.46,4.46,0,0,0-1.32,1.4,3.61,3.61,0,0,0-.45,1.82Z"/></g><g class="cls-1"><path class="cls-3" d="M123.7,47.54l-4.6,0V36.8a9.35,9.35,0,0,1,.9-4.25,8.21,8.21,0,0,1,2.86-3.13,9.35,9.35,0,0,1,2.26-1.16,7.17,7.17,0,0,1,2.31-.36,7.32,7.32,0,0,1,.76,0c.3,0,.64.07,1,.13v4.35a4.88,4.88,0,0,0-1.28-.17,4.11,4.11,0,0,0-2.45.86,4.46,4.46,0,0,0-1.32,1.4,3.61,3.61,0,0,0-.45,1.82Z"/></g></g><g class="cls-1"><g class="cls-1"><path class="cls-2" d="M140.65,47.54a9.12,9.12,0,0,1-7.18-3A9.56,9.56,0,0,1,131.08,38a9.78,9.78,0,0,1,2.44-6.72,9.34,9.34,0,0,1,7.35-3.08,9.13,9.13,0,0,1,7.18,3,9.57,9.57,0,0,1,2.38,6.59A9.78,9.78,0,0,1,148,44.46,9.34,9.34,0,0,1,140.65,47.54Zm.42-15.36A5.42,5.42,0,0,0,136.81,34a5.68,5.68,0,0,0-1.42,3.92,5.5,5.5,0,0,0,1.35,3.77,5.27,5.27,0,0,0,4.13,1.7,5.38,5.38,0,0,0,4.25-1.78,5.66,5.66,0,0,0,1.43-3.91,5.44,5.44,0,0,0-1.36-3.77A5.23,5.23,0,0,0,141.07,32.18Z"/></g><g class="cls-1"><path class="cls-3" d="M140.65,47.54a9.12,9.12,0,0,1-7.18-3A9.56,9.56,0,0,1,131.08,38a9.78,9.78,0,0,1,2.44-6.72,9.34,9.34,0,0,1,7.35-3.08,9.13,9.13,0,0,1,7.18,3,9.57,9.57,0,0,1,2.38,6.59A9.78,9.78,0,0,1,148,44.46,9.34,9.34,0,0,1,140.65,47.54Zm.42-15.36A5.42,5.42,0,0,0,136.81,34a5.68,5.68,0,0,0-1.42,3.92,5.5,5.5,0,0,0,1.35,3.77,5.27,5.27,0,0,0,4.13,1.7,5.38,5.38,0,0,0,4.25-1.78,5.66,5.66,0,0,0,1.43-3.91,5.44,5.44,0,0,0-1.36-3.77A5.23,5.23,0,0,0,141.07,32.18Z"/></g></g><g class="cls-1"><g class="cls-1"><path class="cls-2" d="M161.4,29a9.35,9.35,0,0,1,9.34,9.34,9,9,0,0,1-2.6,6.48,8.54,8.54,0,0,1-6.37,2.69A10,10,0,0,1,155,45a8,8,0,0,1-2.92-6.27V22.93H156V38.65a4.69,4.69,0,0,0,1.66,3.6,5.56,5.56,0,0,0,3.82,1.48h.3a4.66,4.66,0,0,0,.49,0,4.81,4.81,0,0,0,3.2-1.9,5.91,5.91,0,0,0,1.23-3.68,6,6,0,0,0-.13-1.2,4.45,4.45,0,0,0-1.91-2.9,5.46,5.46,0,0,0-3.2-.94,6.18,6.18,0,0,0-2.42.48,4.71,4.71,0,0,0-1.86,1.37V30.16a10.27,10.27,0,0,1,2.07-.92A7.88,7.88,0,0,1,161.4,29Z"/></g><g class="cls-1"><path class="cls-3" d="M161.4,29a9.35,9.35,0,0,1,9.34,9.34,9,9,0,0,1-2.6,6.48,8.54,8.54,0,0,1-6.37,2.69A10,10,0,0,1,155,45a8,8,0,0,1-2.92-6.27V22.93H156V38.65a4.69,4.69,0,0,0,1.66,3.6,5.56,5.56,0,0,0,3.82,1.48h.3a4.66,4.66,0,0,0,.49,0,4.81,4.81,0,0,0,3.2-1.9,5.91,5.91,0,0,0,1.23-3.68,6,6,0,0,0-.13-1.2,4.45,4.45,0,0,0-1.91-2.9,5.46,5.46,0,0,0-3.2-.94,6.18,6.18,0,0,0-2.42.48,4.71,4.71,0,0,0-1.86,1.37V30.16a10.27,10.27,0,0,1,2.07-.92A7.88,7.88,0,0,1,161.4,29Z"/></g></g><g class="cls-1"><g class="cls-1"><path class="cls-2" d="M187.44,42V47.1a10.39,10.39,0,0,1-4.52,1.1,9.59,9.59,0,0,1-6.39-2.53,9.9,9.9,0,0,1-2.66-3.35,10.26,10.26,0,0,1-.81-4.27A9.36,9.36,0,0,1,176,31.13a9.61,9.61,0,0,1,7-2.86,10,10,0,0,1,7.13,2.81,9.15,9.15,0,0,1,3,6.9v9.51h-4.32V37.86A5,5,0,0,0,187,34a5.93,5.93,0,0,0-4.1-1.56,5.62,5.62,0,0,0-5.65,5.65,5.81,5.81,0,0,0,1.66,4.17A5.42,5.42,0,0,0,183,44a6.29,6.29,0,0,0,2.49-.45A5.73,5.73,0,0,0,187.44,42Z"/></g><g class="cls-1"><path class="cls-3" d="M187.44,42V47.1a10.39,10.39,0,0,1-4.52,1.1,9.59,9.59,0,0,1-6.39-2.53,9.9,9.9,0,0,1-2.66-3.35,10.26,10.26,0,0,1-.81-4.27A9.36,9.36,0,0,1,176,31.13a9.61,9.61,0,0,1,7-2.86,10,10,0,0,1,7.13,2.81,9.15,9.15,0,0,1,3,6.9v9.51h-4.32V37.86A5,5,0,0,0,187,34a5.93,5.93,0,0,0-4.1-1.56,5.62,5.62,0,0,0-5.65,5.65,5.81,5.81,0,0,0,1.66,4.17A5.42,5.42,0,0,0,183,44a6.29,6.29,0,0,0,2.49-.45A5.73,5.73,0,0,0,187.44,42Z"/></g></g><g class="cls-1"><g class="cls-1"><path class="cls-4" d="M57,20V14h.8V20Z"/><path class="cls-4" d="M59.16,20v-4.4h.67v.62a1.58,1.58,0,0,1,1.4-.72,1.94,1.94,0,0,1,.73.14,1.17,1.17,0,0,1,.5.38,1.37,1.37,0,0,1,.23.55,4.05,4.05,0,0,1,0,.72V20H62V17.36a2,2,0,0,0-.09-.68.72.72,0,0,0-.31-.36,1,1,0,0,0-.52-.13,1.2,1.2,0,0,0-.82.3,1.48,1.48,0,0,0-.35,1.14V20Z"/><path class="cls-4" d="M63.58,18.72l.73-.11a1,1,0,0,0,.35.68,1.24,1.24,0,0,0,.79.23,1.15,1.15,0,0,0,.76-.21.61.61,0,0,0,.25-.49.45.45,0,0,0-.22-.4,3.34,3.34,0,0,0-.76-.25,5.49,5.49,0,0,1-1.14-.36,1.08,1.08,0,0,1-.48-.41,1.11,1.11,0,0,1-.16-.59,1.14,1.14,0,0,1,.13-.55,1.32,1.32,0,0,1,.37-.41,1.47,1.47,0,0,1,.47-.22,2.27,2.27,0,0,1,.65-.09,2.55,2.55,0,0,1,.91.15,1.19,1.19,0,0,1,.57.4,1.56,1.56,0,0,1,.26.68l-.73.1a.8.8,0,0,0-.29-.53,1.07,1.07,0,0,0-.67-.19,1.24,1.24,0,0,0-.73.17.5.5,0,0,0-.22.4.41.41,0,0,0,.09.26.65.65,0,0,0,.29.2l.65.19a8.92,8.92,0,0,1,1.11.35,1,1,0,0,1,.67,1,1.32,1.32,0,0,1-.22.71,1.44,1.44,0,0,1-.63.5,2.27,2.27,0,0,1-.93.18,2,2,0,0,1-1.3-.35A1.65,1.65,0,0,1,63.58,18.72Z"/><path class="cls-4" d="M69.74,19.37l.11.66a3.07,3.07,0,0,1-.57.06,1.23,1.23,0,0,1-.63-.13.66.66,0,0,1-.31-.33,2.69,2.69,0,0,1-.09-.88V16.22H67.7v-.58h.55V14.55L69,14.1v1.54h.75v.58H69v2.57a1.19,1.19,0,0,0,0,.41.25.25,0,0,0,.13.14.44.44,0,0,0,.25.06Z"/><path class="cls-4" d="M73.33,19.49a2.71,2.71,0,0,1-.79.5,2.25,2.25,0,0,1-.82.14,1.58,1.58,0,0,1-1.12-.35,1.17,1.17,0,0,1-.39-.9,1.15,1.15,0,0,1,.15-.59,1.24,1.24,0,0,1,.39-.43,1.73,1.73,0,0,1,.53-.25l.66-.11a7.35,7.35,0,0,0,1.33-.25c0-.11,0-.17,0-.2a.82.82,0,0,0-.21-.64,1.25,1.25,0,0,0-.85-.25,1.36,1.36,0,0,0-.78.18,1.1,1.1,0,0,0-.37.65l-.73-.1a1.85,1.85,0,0,1,.33-.75,1.4,1.4,0,0,1,.66-.44,2.74,2.74,0,0,1,1-.16,2.64,2.64,0,0,1,.92.13,1.06,1.06,0,0,1,.75.84,4.82,4.82,0,0,1,0,.69v1a11.74,11.74,0,0,0,0,1.32,1.78,1.78,0,0,0,.19.53h-.78A2.1,2.1,0,0,1,73.33,19.49Zm-.06-1.66a5.59,5.59,0,0,1-1.21.28,2.72,2.72,0,0,0-.65.15.62.62,0,0,0-.4.6.63.63,0,0,0,.22.49,1,1,0,0,0,.66.2,1.49,1.49,0,0,0,.77-.19,1.1,1.1,0,0,0,.49-.51,1.83,1.83,0,0,0,.12-.75Z"/><path class="cls-4" d="M75.16,20V14h.75V20Z"/><path class="cls-4" d="M79.93,19.49a2.63,2.63,0,0,1-.8.5,2.17,2.17,0,0,1-.82.14,1.57,1.57,0,0,1-1.11-.35,1.17,1.17,0,0,1-.39-.9,1.15,1.15,0,0,1,.15-.59,1.22,1.22,0,0,1,.38-.43,1.91,1.91,0,0,1,.54-.25l.66-.11a7.54,7.54,0,0,0,1.33-.25v-.2a.82.82,0,0,0-.21-.64,1.23,1.23,0,0,0-.85-.25,1.33,1.33,0,0,0-.77.18,1.1,1.1,0,0,0-.37.65l-.73-.1a1.73,1.73,0,0,1,.33-.75,1.42,1.42,0,0,1,.65-.44,2.8,2.8,0,0,1,1-.16,2.64,2.64,0,0,1,.92.13,1.17,1.17,0,0,1,.51.34,1.23,1.23,0,0,1,.24.5,5.29,5.29,0,0,1,0,.69v1a10.83,10.83,0,0,0,0,1.32,1.78,1.78,0,0,0,.19.53h-.78A1.54,1.54,0,0,1,79.93,19.49Zm-.06-1.66a5.71,5.71,0,0,1-1.22.28,3,3,0,0,0-.65.15.68.68,0,0,0-.29.24.65.65,0,0,0-.1.36.63.63,0,0,0,.22.49,1,1,0,0,0,.66.2,1.52,1.52,0,0,0,.77-.19,1.15,1.15,0,0,0,.49-.51,1.83,1.83,0,0,0,.12-.75Z"/><path class="cls-4" d="M84.65,18.42l.73.1a1.91,1.91,0,0,1-.62,1.19,1.8,1.8,0,0,1-1.21.42,1.86,1.86,0,0,1-1.45-.59,2.36,2.36,0,0,1-.55-1.69,3,3,0,0,1,.24-1.24,1.59,1.59,0,0,1,.71-.8,2.13,2.13,0,0,1,1-.27,1.82,1.82,0,0,1,1.17.36,1.67,1.67,0,0,1,.59,1l-.73.11a1.24,1.24,0,0,0-.36-.66,1,1,0,0,0-.64-.23,1.15,1.15,0,0,0-.91.41,1.87,1.87,0,0,0-.35,1.27,2,2,0,0,0,.33,1.29,1.12,1.12,0,0,0,.89.4,1,1,0,0,0,.73-.27A1.35,1.35,0,0,0,84.65,18.42Z"/><path class="cls-4" d="M86,14.82V14h.74v.85ZM86,20v-4.4h.74V20Z"/><path class="cls-4" d="M87.62,17.84A2.27,2.27,0,0,1,88.3,16a2,2,0,0,1,1.38-.49,2,2,0,0,1,1.48.59,2.26,2.26,0,0,1,.58,1.65,2.88,2.88,0,0,1-.26,1.33,1.81,1.81,0,0,1-.74.76,2.22,2.22,0,0,1-1.06.26,2,2,0,0,1-1.49-.59A2.34,2.34,0,0,1,87.62,17.84Zm.77,0a1.84,1.84,0,0,0,.37,1.26,1.16,1.16,0,0,0,.92.42,1.2,1.2,0,0,0,.93-.42A2,2,0,0,0,91,17.81a1.79,1.79,0,0,0-.37-1.23,1.22,1.22,0,0,0-1.84,0A1.81,1.81,0,0,0,88.39,17.84Z"/><path class="cls-4" d="M92.61,20v-4.4h.67v.62a1.59,1.59,0,0,1,1.4-.72,1.9,1.9,0,0,1,.73.14,1.17,1.17,0,0,1,.5.38,1.37,1.37,0,0,1,.23.55,4.05,4.05,0,0,1,0,.72V20h-.74V17.36a2,2,0,0,0-.09-.68.72.72,0,0,0-.31-.36,1,1,0,0,0-.52-.13,1.22,1.22,0,0,0-.82.3,1.48,1.48,0,0,0-.34,1.14V20Z"/><path class="cls-4" d="M100.33,18.62l.77.09a1.84,1.84,0,0,1-.67,1.05,2,2,0,0,1-1.26.37,2,2,0,0,1-1.53-.59,2.35,2.35,0,0,1-.56-1.66,2.46,2.46,0,0,1,.57-1.73,2,2,0,0,1,1.48-.61,1.87,1.87,0,0,1,1.44.6,2.39,2.39,0,0,1,.56,1.69,1.72,1.72,0,0,1,0,.2H97.85a1.69,1.69,0,0,0,.41,1.11,1.23,1.23,0,0,0,.92.38,1.18,1.18,0,0,0,.7-.21A1.48,1.48,0,0,0,100.33,18.62Zm-2.44-1.2h2.45a1.47,1.47,0,0,0-.28-.84,1.16,1.16,0,0,0-.92-.43,1.18,1.18,0,0,0-.86.35A1.3,1.3,0,0,0,97.89,17.42Z"/><path class="cls-4" d="M101.74,18.72l.74-.11a1,1,0,0,0,.34.68,1.27,1.27,0,0,0,.8.23,1.17,1.17,0,0,0,.76-.21.64.64,0,0,0,.25-.49.47.47,0,0,0-.22-.4,3.77,3.77,0,0,0-.76-.25,5.49,5.49,0,0,1-1.14-.36,1.08,1.08,0,0,1-.48-.41,1.11,1.11,0,0,1-.16-.59,1.14,1.14,0,0,1,.13-.55,1.21,1.21,0,0,1,.37-.41,1.37,1.37,0,0,1,.47-.22,2.2,2.2,0,0,1,.64-.09,2.52,2.52,0,0,1,.91.15,1.23,1.23,0,0,1,.58.4,1.7,1.7,0,0,1,.26.68l-.73.1a.85.85,0,0,0-.29-.53,1.09,1.09,0,0,0-.67-.19,1.22,1.22,0,0,0-.73.17.5.5,0,0,0-.22.4.41.41,0,0,0,.09.26.61.61,0,0,0,.28.2l.66.19a8.1,8.1,0,0,1,1.1.35,1,1,0,0,1,.49.39,1.07,1.07,0,0,1,.18.63,1.24,1.24,0,0,1-.22.71,1.35,1.35,0,0,1-.62.5,2.3,2.3,0,0,1-.93.18,2,2,0,0,1-1.3-.35A1.7,1.7,0,0,1,101.74,18.72Z"/><path class="cls-4" d="M108.6,21.73l-.08-.7a1.76,1.76,0,0,0,.42.06.77.77,0,0,0,.4-.08.59.59,0,0,0,.24-.23,2.83,2.83,0,0,0,.23-.55l.07-.19-1.67-4.4h.8l.92,2.55c.12.32.22.66.32,1a8.83,8.83,0,0,1,.3-1l.94-2.56h.75l-1.67,4.47a9.75,9.75,0,0,1-.42,1,1.56,1.56,0,0,1-.46.54,1.09,1.09,0,0,1-.61.17A1.54,1.54,0,0,1,108.6,21.73Z"/><path class="cls-4" d="M115.05,18.09l.76-.07a1.55,1.55,0,0,0,.25.75,1.37,1.37,0,0,0,.61.47,2.27,2.27,0,0,0,.93.18,2.29,2.29,0,0,0,.81-.14,1.09,1.09,0,0,0,.52-.37.83.83,0,0,0,.17-.52.79.79,0,0,0-.16-.5,1.25,1.25,0,0,0-.55-.36,10.7,10.7,0,0,0-1.08-.29,5.65,5.65,0,0,1-1.17-.38,1.59,1.59,0,0,1-.65-.57,1.37,1.37,0,0,1-.21-.75,1.55,1.55,0,0,1,.26-.86,1.61,1.61,0,0,1,.76-.61,2.9,2.9,0,0,1,1.12-.21,3.16,3.16,0,0,1,1.19.22,1.8,1.8,0,0,1,.79.64,1.94,1.94,0,0,1,.3,1l-.77.06a1.29,1.29,0,0,0-.42-.87,1.61,1.61,0,0,0-1.06-.3,1.66,1.66,0,0,0-1.06.27.81.81,0,0,0-.34.64.68.68,0,0,0,.24.54,3.07,3.07,0,0,0,1.21.43,8.14,8.14,0,0,1,1.34.39,1.73,1.73,0,0,1,.78.62,1.5,1.5,0,0,1,.26.86,1.6,1.6,0,0,1-.28.91,1.78,1.78,0,0,1-.8.67,2.72,2.72,0,0,1-1.17.24,3.52,3.52,0,0,1-1.38-.24,1.93,1.93,0,0,1-.87-.72A2.05,2.05,0,0,1,115.05,18.09Z"/><path class="cls-4" d="M123.89,18.62l.77.09a1.85,1.85,0,0,1-.68,1.05,2.29,2.29,0,0,1-2.78-.22,2.31,2.31,0,0,1-.57-1.66,2.46,2.46,0,0,1,.57-1.73,2,2,0,0,1,1.48-.61,1.87,1.87,0,0,1,1.44.6,2.35,2.35,0,0,1,.56,1.69V18H121.4a1.69,1.69,0,0,0,.41,1.11,1.24,1.24,0,0,0,.92.38,1.16,1.16,0,0,0,.7-.21A1.5,1.5,0,0,0,123.89,18.62Zm-2.45-1.2h2.46a1.63,1.63,0,0,0-.28-.84,1.23,1.23,0,0,0-1.79-.08A1.39,1.39,0,0,0,121.44,17.42Z"/><path class="cls-4" d="M125.58,20v-4.4h.67v.67a1.81,1.81,0,0,1,.48-.62.81.81,0,0,1,.48-.15,1.44,1.44,0,0,1,.76.24l-.25.69a1.08,1.08,0,0,0-.55-.16.71.71,0,0,0-.44.15.82.82,0,0,0-.28.41,2.93,2.93,0,0,0-.12.86V20Z"/><path class="cls-4" d="M129.64,20,128,15.64h.79l.94,2.63c.11.29.2.58.29.89q.09-.35.27-.84l1-2.68H132L130.33,20Z"/><path class="cls-4" d="M132.66,14.82V14h.74v.85Zm0,5.22v-4.4h.74V20Z"/><path class="cls-4" d="M137.41,18.42l.73.1a1.91,1.91,0,0,1-.62,1.19,1.8,1.8,0,0,1-1.21.42,1.86,1.86,0,0,1-1.45-.59,2.36,2.36,0,0,1-.55-1.69,3.15,3.15,0,0,1,.23-1.24,1.66,1.66,0,0,1,.72-.8,2.11,2.11,0,0,1,1.05-.27,1.82,1.82,0,0,1,1.17.36,1.67,1.67,0,0,1,.59,1l-.73.11a1.24,1.24,0,0,0-.36-.66,1,1,0,0,0-.64-.23,1.15,1.15,0,0,0-.91.41,1.87,1.87,0,0,0-.35,1.27,2,2,0,0,0,.33,1.29,1.12,1.12,0,0,0,.89.4,1,1,0,0,0,.73-.27A1.35,1.35,0,0,0,137.41,18.42Z"/><path class="cls-4" d="M138.78,14.82V14h.74v.85Zm0,5.22v-4.4h.74V20Z"/><path class="cls-4" d="M140.38,17.84a2.27,2.27,0,0,1,.68-1.81,2,2,0,0,1,1.38-.49,2,2,0,0,1,1.48.59,2.26,2.26,0,0,1,.58,1.65,2.88,2.88,0,0,1-.26,1.33,1.81,1.81,0,0,1-.74.76,2.22,2.22,0,0,1-1.06.26,2,2,0,0,1-1.49-.59A2.34,2.34,0,0,1,140.38,17.84Zm.77,0a1.89,1.89,0,0,0,.36,1.26,1.24,1.24,0,0,0,1.86,0,2,2,0,0,0,.36-1.29,1.79,1.79,0,0,0-.37-1.23,1.16,1.16,0,0,0-.92-.42,1.2,1.2,0,0,0-.93.42A1.86,1.86,0,0,0,141.15,17.84Z"/><path class="cls-4" d="M145.07,18.72l.74-.11a1,1,0,0,0,.35.68,1.22,1.22,0,0,0,.79.23,1.17,1.17,0,0,0,.76-.21.61.61,0,0,0,.25-.49.45.45,0,0,0-.22-.4,3.54,3.54,0,0,0-.76-.25,5.49,5.49,0,0,1-1.14-.36,1.08,1.08,0,0,1-.48-.41,1.11,1.11,0,0,1-.16-.59,1.14,1.14,0,0,1,.13-.55,1.21,1.21,0,0,1,.37-.41,1.37,1.37,0,0,1,.47-.22,2.27,2.27,0,0,1,.65-.09,2.5,2.5,0,0,1,.9.15,1.18,1.18,0,0,1,.58.4,1.56,1.56,0,0,1,.26.68l-.73.1a.8.8,0,0,0-.29-.53,1.09,1.09,0,0,0-.67-.19,1.22,1.22,0,0,0-.73.17.5.5,0,0,0-.22.4A.41.41,0,0,0,146,17a.67.67,0,0,0,.28.2l.66.19a8.92,8.92,0,0,1,1.11.35,1.11,1.11,0,0,1,.49.39,1.06,1.06,0,0,1,.17.63,1.31,1.31,0,0,1-.21.71,1.44,1.44,0,0,1-.63.5,2.27,2.27,0,0,1-.93.18,2,2,0,0,1-1.3-.35A1.7,1.7,0,0,1,145.07,18.72Z"/></g></g><path class="cls-5" d="M5.4,5.4H51V51H5.4Z"/><path class="cls-6" d="M.28,12.08l44-11.8,11.8,44-44,11.8Z"/><path class="cls-5" d="M28.19,5.4H51V28.19A22.86,22.86,0,0,1,28.2,51H5.4V28.19A22.87,22.87,0,0,1,28.19,5.4Z"/><path class="cls-7" d="M21.42,30.62l24.4,0c-1.82,9.27-10,15.89-17.3,15.67h-7l0,4.67H5.4V28.2A22.87,22.87,0,0,1,28.19,5.4H51l-.13,15.72H28c-6.39.48-6.57,7-6.57,7Z"/></svg>