<svg id="Capa_1" data-name="Capa 1" xmlns="http://www.w3.org/2000/svg" viewBox="0 0 541 300"><defs><style>.cls-1{fill:#008bd2;}.cls-2,.cls-7{fill:#dadada;}.cls-3{isolation:isolate;}.cls-4{fill:none;stroke-width:0.68px;}.cls-4,.cls-5,.cls-6,.cls-7{stroke:#485dc5;}.cls-5{fill:#0085cf;}.cls-5,.cls-6,.cls-7{stroke-width:1.35px;}.cls-6{fill:#fff;}</style></defs><title>Mesa de trabajo 1</title><g id="Web"><g id="Desktop"><g id="LOGO-FUGOROBA"><polygon id="Shape" class="cls-1" points="450.6 293.5 537.62 139.97 442.59 267.58 74.34 143.07 450.6 293.5"/><polygon id="Shape-2" data-name="Shape" class="cls-2" points="74.34 143.07 439.7 252.24 537.62 139.97 433.42 232.86 74.34 143.07"/><polygon id="Shape-3" data-name="Shape" class="cls-2" points="74.34 143.08 427.53 219.1 537.62 139.97 423.17 204.97 74.34 143.08"/><polygon id="Shape-4" data-name="Shape" class="cls-2" points="74.34 143.07 419.09 194.08 537.62 139.97 416.07 183.92 74.34 143.07"/><polygon id="Shape-5" data-name="Shape" class="cls-2" points="74.34 143.1 413.77 175.81 537.62 139.97 411.59 168.52 74.34 143.1"/><polygon id="Shape-6" data-name="Shape" class="cls-2" points="74.34 143.09 410.38 158.91 537.62 139.97 408.74 154.31 74.34 143.09"/><polygon id="Shape-7" data-name="Shape" class="cls-2" points="74.34 143.19 406.44 145.38 537.62 139.97 405.41 142.87 74.34 143.19"/><g id="LOGO-HORIZONTAL"><g id="u" class="cls-3"><g class="cls-3"><path class="cls-2" d="M161.32,80.24h11.84v30.28a8.77,8.77,0,0,0,3.59,7.16,13.68,13.68,0,0,0,16.48.16,8.36,8.36,0,0,0,3.49-6.94V80.24H209.1v30.12q0,9.28-8,16.18-7.52,6.49-16.18,6.5a23.45,23.45,0,0,1-16.68-6.46,20.87,20.87,0,0,1-6.87-15.85Z"/></g><g class="cls-3"><path class="cls-4" d="M161.32,80.24h11.84v30.28a8.77,8.77,0,0,0,3.59,7.16,13.68,13.68,0,0,0,16.48.16,8.36,8.36,0,0,0,3.49-6.94V80.24H209.1v30.12q0,9.28-8,16.18-7.52,6.49-16.18,6.5a23.45,23.45,0,0,1-16.68-6.46,20.87,20.87,0,0,1-6.87-15.85Z"/></g></g><g id="g" class="cls-3"><g class="cls-3"><path class="cls-2" d="M252.65,130.47a25.05,25.05,0,0,1-11,2.37,28.89,28.89,0,0,1-17.46-5.69q-8.13-6-9.21-14.89a45.38,45.38,0,0,1-.33-5q0-12.52,7.64-20.1,7.38-7.32,18.82-7.31a27.69,27.69,0,0,1,19,7.1,22.65,22.65,0,0,1,8,17.67v26.47q0,8.86-7.49,14.75a26.62,26.62,0,0,1-17,5.62h-1a44.67,44.67,0,0,1-5.12-.24,24.31,24.31,0,0,1-4.66-1.11V138.79a28.54,28.54,0,0,0,4.51,1.08,35,35,0,0,0,4.77.28,25,25,0,0,0,5.14-.58,17.31,17.31,0,0,0,3.79-1.12,13.71,13.71,0,0,0,3.79-2.5,6.84,6.84,0,0,0,1.76-4.87V105.35a12.35,12.35,0,0,0-4.94-10,17.86,17.86,0,0,0-11.51-4,13.47,13.47,0,0,0-10.08,4.47,14.57,14.57,0,0,0-4.27,10.36,12.11,12.11,0,0,0,.21,2.16,14.77,14.77,0,0,0,5.75,9.82,16,16,0,0,0,10,3.31A14,14,0,0,0,252.65,117Z"/></g><g class="cls-3"><path class="cls-4" d="M252.65,130.47a25.05,25.05,0,0,1-11,2.37,28.89,28.89,0,0,1-17.46-5.69q-8.13-6-9.21-14.89a45.38,45.38,0,0,1-.33-5q0-12.52,7.64-20.1,7.38-7.32,18.82-7.31a27.69,27.69,0,0,1,19,7.1,22.65,22.65,0,0,1,8,17.67v26.47q0,8.86-7.49,14.75a26.62,26.62,0,0,1-17,5.62h-1a44.67,44.67,0,0,1-5.12-.24,24.31,24.31,0,0,1-4.66-1.11V138.79a28.54,28.54,0,0,0,4.51,1.08,35,35,0,0,0,4.77.28,25,25,0,0,0,5.14-.58,17.31,17.31,0,0,0,3.79-1.12,13.71,13.71,0,0,0,3.79-2.5,6.84,6.84,0,0,0,1.76-4.87V105.35a12.35,12.35,0,0,0-4.94-10,17.86,17.86,0,0,0-11.51-4,13.47,13.47,0,0,0-10.08,4.47,14.57,14.57,0,0,0-4.27,10.36,12.11,12.11,0,0,0,.21,2.16,14.77,14.77,0,0,0,5.75,9.82,16,16,0,0,0,10,3.31A14,14,0,0,0,252.65,117Z"/></g></g><g id="o" class="cls-3"><g class="cls-3"><path class="cls-2" d="M300,133q-12.45,0-19.76-8.2a26.36,26.36,0,0,1-6.57-18.17,27,27,0,0,1,6.7-18.5q7.51-8.48,20.24-8.47,12.45,0,19.77,8.2a26.39,26.39,0,0,1,6.56,18.16,27,27,0,0,1-6.7,18.51Q312.7,133,300,133Zm1.15-42.31q-7.38,0-11.71,4.89a15.61,15.61,0,0,0-3.92,10.78,15.09,15.09,0,0,0,3.72,10.38q4.2,4.68,11.37,4.68,7.38,0,11.71-4.88a15.64,15.64,0,0,0,3.93-10.79,15.08,15.08,0,0,0-3.73-10.38Q308.31,90.73,301.13,90.73Z"/></g><g class="cls-3"><path class="cls-4" d="M300,133q-12.45,0-19.76-8.2a26.36,26.36,0,0,1-6.57-18.17,27,27,0,0,1,6.7-18.5q7.51-8.48,20.24-8.47,12.45,0,19.77,8.2a26.39,26.39,0,0,1,6.56,18.16,27,27,0,0,1-6.7,18.51Q312.7,133,300,133Zm1.15-42.31q-7.38,0-11.71,4.89a15.61,15.61,0,0,0-3.92,10.78,15.09,15.09,0,0,0,3.72,10.38q4.2,4.68,11.37,4.68,7.38,0,11.71-4.88a15.64,15.64,0,0,0,3.93-10.79,15.08,15.08,0,0,0-3.73-10.38Q308.31,90.73,301.13,90.73Z"/></g></g><g id="r" class="cls-3"><g class="cls-3"><path class="cls-2" d="M344.61,133,332,133V103.46a25.86,25.86,0,0,1,2.47-11.71,22.75,22.75,0,0,1,7.89-8.6,26.09,26.09,0,0,1,6.23-3.21,19.59,19.59,0,0,1,6.36-1c.58,0,1.28,0,2.1.11s1.73.19,2.77.37v12a12.83,12.83,0,0,0-3.52-.47,11.34,11.34,0,0,0-6.77,2.37,12.4,12.4,0,0,0-3.62,3.85,9.91,9.91,0,0,0-1.25,5Z"/></g><g class="cls-3"><path class="cls-4" d="M344.61,133,332,133V103.46a25.86,25.86,0,0,1,2.47-11.71,22.75,22.75,0,0,1,7.89-8.6,26.09,26.09,0,0,1,6.23-3.21,19.59,19.59,0,0,1,6.36-1c.58,0,1.28,0,2.1.11s1.73.19,2.77.37v12a12.83,12.83,0,0,0-3.52-.47,11.34,11.34,0,0,0-6.77,2.37,12.4,12.4,0,0,0-3.62,3.85,9.91,9.91,0,0,0-1.25,5Z"/></g></g><g id="o-2" data-name="o" class="cls-3"><g class="cls-3"><path class="cls-2" d="M391.29,133q-12.46,0-19.77-8.2A26.35,26.35,0,0,1,365,106.67a27,27,0,0,1,6.7-18.5q7.51-8.48,20.23-8.47,12.47,0,19.77,8.2a26.35,26.35,0,0,1,6.57,18.16,27,27,0,0,1-6.71,18.51Q404,133,391.29,133Zm1.15-42.31q-7.38,0-11.71,4.89a15.62,15.62,0,0,0-3.93,10.78,15.09,15.09,0,0,0,3.72,10.38q4.2,4.68,11.37,4.68,7.38,0,11.72-4.88a15.68,15.68,0,0,0,3.92-10.79,15.12,15.12,0,0,0-3.72-10.38Q399.61,90.73,392.44,90.73Z"/></g><g class="cls-3"><path class="cls-4" d="M391.29,133q-12.46,0-19.77-8.2A26.35,26.35,0,0,1,365,106.67a27,27,0,0,1,6.7-18.5q7.51-8.48,20.23-8.47,12.47,0,19.77,8.2a26.35,26.35,0,0,1,6.57,18.16,27,27,0,0,1-6.71,18.51Q404,133,391.29,133Zm1.15-42.31q-7.38,0-11.71,4.89a15.62,15.62,0,0,0-3.93,10.78,15.09,15.09,0,0,0,3.72,10.38q4.2,4.68,11.37,4.68,7.38,0,11.72-4.88a15.68,15.68,0,0,0,3.92-10.79,15.12,15.12,0,0,0-3.72-10.38Q399.61,90.73,392.44,90.73Z"/></g></g><g id="b" class="cls-3"><g class="cls-3"><path class="cls-2" d="M448.43,81.93a25.78,25.78,0,0,1,25.73,25.72A24.75,24.75,0,0,1,467,125.49a23.47,23.47,0,0,1-17.53,7.41,27.33,27.33,0,0,1-18.55-6.76,21.89,21.89,0,0,1-8-17.24V65.28h10.69v43.27a12.85,12.85,0,0,0,4.57,9.91,15.37,15.37,0,0,0,10.53,4.09h.81a11.25,11.25,0,0,0,1.35-.14,13.16,13.16,0,0,0,8.8-5.24A16.23,16.23,0,0,0,463,107.05a18.88,18.88,0,0,0-.34-3.32,12.34,12.34,0,0,0-5.28-8,15.13,15.13,0,0,0-8.8-2.57,17.07,17.07,0,0,0-6.67,1.32,12.71,12.71,0,0,0-5.11,3.76V85.18a28.23,28.23,0,0,1,5.69-2.54A21.64,21.64,0,0,1,448.43,81.93Z"/></g><g class="cls-3"><path class="cls-4" d="M448.43,81.93a25.78,25.78,0,0,1,25.73,25.72A24.75,24.75,0,0,1,467,125.49a23.47,23.47,0,0,1-17.53,7.41,27.33,27.33,0,0,1-18.55-6.76,21.89,21.89,0,0,1-8-17.24V65.28h10.69v43.27a12.85,12.85,0,0,0,4.57,9.91,15.37,15.37,0,0,0,10.53,4.09h.81a11.25,11.25,0,0,0,1.35-.14,13.16,13.16,0,0,0,8.8-5.24A16.23,16.23,0,0,0,463,107.05a18.88,18.88,0,0,0-.34-3.32,12.34,12.34,0,0,0-5.28-8,15.13,15.13,0,0,0-8.8-2.57,17.07,17.07,0,0,0-6.67,1.32,12.71,12.71,0,0,0-5.11,3.76V85.18a28.23,28.23,0,0,1,5.69-2.54A21.64,21.64,0,0,1,448.43,81.93Z"/></g></g><g id="a" class="cls-3"><g class="cls-3"><path class="cls-2" d="M520.14,117.88v13.94a28.46,28.46,0,0,1-12.46,3.05q-9.48,0-17.6-7a27,27,0,0,1-7.31-9.24,28.14,28.14,0,0,1-2.23-11.74,25.7,25.7,0,0,1,8-19A26.4,26.4,0,0,1,507.75,80a27.54,27.54,0,0,1,19.63,7.75,25.14,25.14,0,0,1,8.19,19V132.9H523.66V106.37a13.68,13.68,0,0,0-4.77-10.59,16.29,16.29,0,0,0-11.27-4.3,15.47,15.47,0,0,0-15.57,15.57,16,16,0,0,0,4.57,11.47,14.9,14.9,0,0,0,11.2,4.77,17.24,17.24,0,0,0,6.87-1.25A15.88,15.88,0,0,0,520.14,117.88Z"/></g><g class="cls-3"><path class="cls-4" d="M520.14,117.88v13.94a28.46,28.46,0,0,1-12.46,3.05q-9.48,0-17.6-7a27,27,0,0,1-7.31-9.24,28.14,28.14,0,0,1-2.23-11.74,25.7,25.7,0,0,1,8-19A26.4,26.4,0,0,1,507.75,80a27.54,27.54,0,0,1,19.63,7.75,25.14,25.14,0,0,1,8.19,19V132.9H523.66V106.37a13.68,13.68,0,0,0-4.77-10.59,16.29,16.29,0,0,0-11.27-4.3,15.47,15.47,0,0,0-15.57,15.57,16,16,0,0,0,4.57,11.47,14.9,14.9,0,0,0,11.2,4.77,17.24,17.24,0,0,0,6.87-1.25A15.88,15.88,0,0,0,520.14,117.88Z"/></g></g><g id="Instalaciones-y-Servicios" class="cls-3"><g class="cls-3"><path class="cls-1" d="M161.05,56.14V39.43h2.22V56.14Z"/><path class="cls-1" d="M166.9,56.14V44h1.85v1.72a4.35,4.35,0,0,1,3.85-2,4.91,4.91,0,0,1,2,.4,3.09,3.09,0,0,1,1.37,1,3.82,3.82,0,0,1,.64,1.51,11.24,11.24,0,0,1,.12,2v7.44h-2.06V48.78a5.87,5.87,0,0,0-.23-1.88,2,2,0,0,0-.85-1,2.7,2.7,0,0,0-1.43-.37,3.36,3.36,0,0,0-2.27.83,4.14,4.14,0,0,0-1,3.16v6.61Z"/><path class="cls-1" d="M179.06,52.53l2-.32a2.84,2.84,0,0,0,.95,1.87,3.33,3.33,0,0,0,2.18.65,3.17,3.17,0,0,0,2.1-.58A1.69,1.69,0,0,0,187,52.8a1.24,1.24,0,0,0-.6-1.09,8.39,8.39,0,0,0-2.1-.7,20.6,20.6,0,0,1-3.13-1,3,3,0,0,1-1.77-2.78,3.2,3.2,0,0,1,.37-1.5,3.36,3.36,0,0,1,1-1.14,4.1,4.1,0,0,1,1.31-.6,6,6,0,0,1,1.77-.25,7.08,7.08,0,0,1,2.5.41A3.48,3.48,0,0,1,188,45.28a4.43,4.43,0,0,1,.71,1.88l-2,.27a2.19,2.19,0,0,0-.79-1.46,2.91,2.91,0,0,0-1.85-.52,3.35,3.35,0,0,0-2,.47,1.35,1.35,0,0,0-.6,1.09,1.11,1.11,0,0,0,.25.72,1.84,1.84,0,0,0,.78.55c.21.07.81.25,1.81.52a24.55,24.55,0,0,1,3,1,3,3,0,0,1,1.35,1.08,3,3,0,0,1,.49,1.75,3.46,3.46,0,0,1-.6,1.94,3.83,3.83,0,0,1-1.72,1.4,6.32,6.32,0,0,1-2.56.49,5.63,5.63,0,0,1-3.59-1A4.53,4.53,0,0,1,179.06,52.53Z"/><path class="cls-1" d="M196,54.3l.3,1.82a7.77,7.77,0,0,1-1.55.18A3.62,3.62,0,0,1,193,56a2,2,0,0,1-.86-.93,7.29,7.29,0,0,1-.25-2.42v-7h-1.51V44h1.51V41l2-1.23V44H196v1.59H194v7.08a3.37,3.37,0,0,0,.11,1.13.9.9,0,0,0,.35.4,1.47,1.47,0,0,0,.7.14A5.67,5.67,0,0,0,196,54.3Z"/><path class="cls-1" d="M205.93,54.65A7.62,7.62,0,0,1,203.74,56a6.25,6.25,0,0,1-2.26.4,4.42,4.42,0,0,1-3.07-1A3.23,3.23,0,0,1,197.34,53a3.34,3.34,0,0,1,.41-1.63,3.24,3.24,0,0,1,1.06-1.17,4.72,4.72,0,0,1,1.47-.68,14.43,14.43,0,0,1,1.82-.3,19.08,19.08,0,0,0,3.66-.71c0-.28,0-.46,0-.54a2.25,2.25,0,0,0-.58-1.76,3.38,3.38,0,0,0-2.33-.7,3.61,3.61,0,0,0-2.14.51,3.11,3.11,0,0,0-1,1.79l-2-.27a5.18,5.18,0,0,1,.9-2.08,4,4,0,0,1,1.82-1.22,8.17,8.17,0,0,1,2.74-.43,7.06,7.06,0,0,1,2.52.37,3.4,3.4,0,0,1,1.43.91,3.28,3.28,0,0,1,.63,1.4,11.12,11.12,0,0,1,.11,1.89v2.74a28.62,28.62,0,0,0,.13,3.62,4.59,4.59,0,0,0,.52,1.45h-2.15A4.4,4.4,0,0,1,205.93,54.65Zm-.17-4.58a15.08,15.08,0,0,1-3.35.77,7.84,7.84,0,0,0-1.79.41,1.75,1.75,0,0,0-1.09,1.64,1.77,1.77,0,0,0,.62,1.37,2.69,2.69,0,0,0,1.82.55,4.31,4.31,0,0,0,2.11-.52,3.24,3.24,0,0,0,1.35-1.42,5,5,0,0,0,.33-2Z"/><path class="cls-1" d="M211,56.14V39.43H213V56.14Z"/><path class="cls-1" d="M224.1,54.65A7.62,7.62,0,0,1,221.91,56a6.3,6.3,0,0,1-2.27.4,4.37,4.37,0,0,1-3.06-1A3.2,3.2,0,0,1,215.51,53a3.34,3.34,0,0,1,.4-1.63A3.24,3.24,0,0,1,217,50.15a4.89,4.89,0,0,1,1.48-.68,14.43,14.43,0,0,1,1.82-.3,19.08,19.08,0,0,0,3.66-.71c0-.28,0-.46,0-.54a2.25,2.25,0,0,0-.58-1.76,3.41,3.41,0,0,0-2.34-.7,3.59,3.59,0,0,0-2.13.51,3.11,3.11,0,0,0-1,1.79l-2-.27a4.92,4.92,0,0,1,.9-2.08,4,4,0,0,1,1.81-1.22,8.23,8.23,0,0,1,2.75-.43,7.13,7.13,0,0,1,2.52.37,3.35,3.35,0,0,1,1.42.91,3.18,3.18,0,0,1,.64,1.4,11.44,11.44,0,0,1,.1,1.89v2.74a30.82,30.82,0,0,0,.13,3.62,4.59,4.59,0,0,0,.52,1.45h-2.14A4.4,4.4,0,0,1,224.1,54.65Zm-.17-4.58a15.22,15.22,0,0,1-3.35.77,7.7,7.7,0,0,0-1.79.41,1.79,1.79,0,0,0-.47,3,2.68,2.68,0,0,0,1.81.55,4.28,4.28,0,0,0,2.11-.52,3.21,3.21,0,0,0,1.36-1.42,5,5,0,0,0,.33-2Z"/><path class="cls-1" d="M237.08,51.71l2,.26a5.24,5.24,0,0,1-1.69,3.26,4.93,4.93,0,0,1-3.35,1.18,5.18,5.18,0,0,1-4-1.62,6.57,6.57,0,0,1-1.51-4.66,8.33,8.33,0,0,1,.65-3.43,4.51,4.51,0,0,1,2-2.2,5.89,5.89,0,0,1,2.89-.74,5.06,5.06,0,0,1,3.23,1,4.56,4.56,0,0,1,1.6,2.83l-2,.31a3.32,3.32,0,0,0-1-1.83,2.62,2.62,0,0,0-1.75-.62,3.2,3.2,0,0,0-2.52,1.11,5.31,5.31,0,0,0-1,3.52,5.47,5.47,0,0,0,.94,3.54A3,3,0,0,0,234,54.73a2.87,2.87,0,0,0,2-.74A3.69,3.69,0,0,0,237.08,51.71Z"/><path class="cls-1" d="M240.86,41.79V39.43h2.06v2.36Zm0,14.35V44h2.06v12.1Z"/><path class="cls-1" d="M245.27,50.09a6.26,6.26,0,0,1,1.87-5A5.62,5.62,0,0,1,251,43.76,5.45,5.45,0,0,1,255,45.4a6.21,6.21,0,0,1,1.58,4.52,8,8,0,0,1-.7,3.67,4.82,4.82,0,0,1-2,2.08,5.84,5.84,0,0,1-2.92.74,5.43,5.43,0,0,1-4.11-1.63A6.51,6.51,0,0,1,245.27,50.09Zm2.11,0a5.13,5.13,0,0,0,1,3.48,3.36,3.36,0,0,0,5.09,0,5.23,5.23,0,0,0,1-3.54,5,5,0,0,0-1-3.4,3.38,3.38,0,0,0-5.09,0A5.13,5.13,0,0,0,247.38,50.09Z"/><path class="cls-1" d="M259,56.14V44h1.84v1.72a4.37,4.37,0,0,1,3.86-2,4.91,4.91,0,0,1,2,.4,3.09,3.09,0,0,1,1.37,1,3.82,3.82,0,0,1,.64,1.51,11.51,11.51,0,0,1,.11,2v7.44H266.8V48.78a5.55,5.55,0,0,0-.24-1.88,2,2,0,0,0-.85-1,2.65,2.65,0,0,0-1.43-.37,3.36,3.36,0,0,0-2.26.83,4.14,4.14,0,0,0-.95,3.16v6.61Z"/><path class="cls-1" d="M280.28,52.24l2.12.26a5.19,5.19,0,0,1-1.85,2.89,5.63,5.63,0,0,1-3.47,1,5.54,5.54,0,0,1-4.21-1.63,6.38,6.38,0,0,1-1.56-4.59,6.67,6.67,0,0,1,1.58-4.74A5.35,5.35,0,0,1,277,43.76a5.13,5.13,0,0,1,4,1.66,6.54,6.54,0,0,1,1.54,4.65c0,.12,0,.3,0,.54h-9a4.73,4.73,0,0,0,1.13,3.06,3.39,3.39,0,0,0,2.53,1.06,3.12,3.12,0,0,0,1.93-.6A3.88,3.88,0,0,0,280.28,52.24Zm-6.73-3.31h6.76a4.09,4.09,0,0,0-.78-2.3A3.13,3.13,0,0,0,277,45.45a3.29,3.29,0,0,0-2.38.95A3.75,3.75,0,0,0,273.55,48.93Z"/><path class="cls-1" d="M284.16,52.53l2-.32a2.84,2.84,0,0,0,.95,1.87,3.33,3.33,0,0,0,2.18.65,3.19,3.19,0,0,0,2.1-.58,1.72,1.72,0,0,0,.68-1.35,1.24,1.24,0,0,0-.6-1.09,8.39,8.39,0,0,0-2.1-.7,20.22,20.22,0,0,1-3.13-1,3.11,3.11,0,0,1-1.4-4.28,3.26,3.26,0,0,1,1-1.14,4,4,0,0,1,1.3-.6,6.08,6.08,0,0,1,1.78-.25,7.08,7.08,0,0,1,2.5.41,3.48,3.48,0,0,1,1.59,1.11,4.43,4.43,0,0,1,.7,1.88l-2,.27A2.23,2.23,0,0,0,291,46a2.92,2.92,0,0,0-1.86-.52,3.34,3.34,0,0,0-2,.47,1.34,1.34,0,0,0-.61,1.09,1.17,1.17,0,0,0,.25.72,1.88,1.88,0,0,0,.79.55c.21.07.81.25,1.81.52a25.14,25.14,0,0,1,3,1,3.16,3.16,0,0,1,1.35,1.08,3,3,0,0,1,.49,1.75,3.46,3.46,0,0,1-.6,1.94,3.89,3.89,0,0,1-1.72,1.4,6.35,6.35,0,0,1-2.56.49,5.63,5.63,0,0,1-3.59-1A4.53,4.53,0,0,1,284.16,52.53Z"/><path class="cls-1" d="M303,60.8l-.23-1.92a4.64,4.64,0,0,0,1.18.18,2.26,2.26,0,0,0,1.09-.23,1.79,1.79,0,0,0,.67-.64,9.52,9.52,0,0,0,.63-1.53l.18-.5L302,44h2.21l2.52,7c.33.88.62,1.82.88,2.8a25.87,25.87,0,0,1,.84-2.76L311,44h2.05l-4.6,12.3a23.66,23.66,0,0,1-1.16,2.75,4,4,0,0,1-1.25,1.49,3,3,0,0,1-1.69.47A4.06,4.06,0,0,1,303,60.8Z"/><path class="cls-1" d="M320.8,50.77l2.08-.18a4.64,4.64,0,0,0,.69,2.06,3.79,3.79,0,0,0,1.68,1.3,6.4,6.4,0,0,0,2.57.49,6.13,6.13,0,0,0,2.23-.37,3.1,3.1,0,0,0,1.44-1A2.35,2.35,0,0,0,332,51.6a2.2,2.2,0,0,0-.46-1.37,3.29,3.29,0,0,0-1.5-1,27.92,27.92,0,0,0-3-.82,15.64,15.64,0,0,1-3.22-1A4.61,4.61,0,0,1,322,45.83a3.81,3.81,0,0,1-.58-2.08,4.29,4.29,0,0,1,.71-2.36,4.42,4.42,0,0,1,2.1-1.67,8,8,0,0,1,3.07-.57,8.3,8.3,0,0,1,3.27.6,4.65,4.65,0,0,1,2.19,1.76,5,5,0,0,1,.82,2.63l-2.12.16a3.42,3.42,0,0,0-1.16-2.39,4.51,4.51,0,0,0-2.91-.81,4.66,4.66,0,0,0-2.92.73,2.18,2.18,0,0,0-.92,1.77,1.86,1.86,0,0,0,.65,1.48,8.69,8.69,0,0,0,3.33,1.2,21.92,21.92,0,0,1,3.7,1.06A5.11,5.11,0,0,1,333.4,49a4.14,4.14,0,0,1,.7,2.38,4.52,4.52,0,0,1-.77,2.51,5,5,0,0,1-2.19,1.84,7.59,7.59,0,0,1-3.22.65,9.62,9.62,0,0,1-3.8-.66,5.28,5.28,0,0,1-2.4-2A5.53,5.53,0,0,1,320.8,50.77Z"/><path class="cls-1" d="M345.14,52.24l2.12.26a5.16,5.16,0,0,1-1.86,2.89,5.6,5.6,0,0,1-3.46,1,5.52,5.52,0,0,1-4.21-1.63,6.38,6.38,0,0,1-1.56-4.59,6.71,6.71,0,0,1,1.57-4.74,5.35,5.35,0,0,1,4.08-1.69,5.16,5.16,0,0,1,4,1.66,6.54,6.54,0,0,1,1.54,4.65c0,.12,0,.3,0,.54h-9a4.68,4.68,0,0,0,1.13,3.06A3.39,3.39,0,0,0,342,54.73a3.15,3.15,0,0,0,1.93-.6A3.88,3.88,0,0,0,345.14,52.24Zm-6.73-3.31h6.75a4.16,4.16,0,0,0-.77-2.3,3.13,3.13,0,0,0-2.54-1.18,3.27,3.27,0,0,0-2.38.95A3.7,3.7,0,0,0,338.41,48.93Z"/><path class="cls-1" d="M349.81,56.14V44h1.85v1.83a5.18,5.18,0,0,1,1.3-1.7,2.31,2.31,0,0,1,1.32-.41,4,4,0,0,1,2.11.66l-.71,1.91a2.89,2.89,0,0,0-1.5-.45,2,2,0,0,0-1.21.41,2.15,2.15,0,0,0-.76,1.12,7.93,7.93,0,0,0-.35,2.39v6.34Z"/><path class="cls-1" d="M361,56.14,356.37,44h2.16l2.6,7.25q.42,1.17.78,2.43c.18-.64.43-1.4.76-2.3L365.36,44h2.11l-4.59,12.1Z"/><path class="cls-1" d="M369.29,41.79V39.43h2v2.36Zm0,14.35V44h2v12.1Z"/><path class="cls-1" d="M382.36,51.71l2,.26a5.24,5.24,0,0,1-1.69,3.26,4.93,4.93,0,0,1-3.35,1.18,5.18,5.18,0,0,1-4-1.62,6.57,6.57,0,0,1-1.51-4.66,8.33,8.33,0,0,1,.65-3.43,4.51,4.51,0,0,1,2-2.2,5.89,5.89,0,0,1,2.89-.74,5.06,5.06,0,0,1,3.23,1,4.56,4.56,0,0,1,1.6,2.83l-2,.31a3.32,3.32,0,0,0-1-1.83,2.6,2.6,0,0,0-1.75-.62,3.2,3.2,0,0,0-2.52,1.11,5.31,5.31,0,0,0-1,3.52,5.48,5.48,0,0,0,.93,3.54,3,3,0,0,0,2.44,1.11,2.91,2.91,0,0,0,2-.74A3.68,3.68,0,0,0,382.36,51.71Z"/><path class="cls-1" d="M386.15,41.79V39.43h2.05v2.36Zm0,14.35V44h2.05v12.1Z"/><path class="cls-1" d="M390.56,50.09a6.26,6.26,0,0,1,1.86-5,5.62,5.62,0,0,1,3.81-1.35,5.45,5.45,0,0,1,4.08,1.64,6.21,6.21,0,0,1,1.58,4.52,8,8,0,0,1-.7,3.67,4.82,4.82,0,0,1-2,2.08,5.84,5.84,0,0,1-2.92.74,5.45,5.45,0,0,1-4.11-1.63A6.51,6.51,0,0,1,390.56,50.09Zm2.1,0a5.13,5.13,0,0,0,1,3.48,3.25,3.25,0,0,0,2.55,1.16,3.21,3.21,0,0,0,2.54-1.17,5.23,5.23,0,0,0,1-3.54,5,5,0,0,0-1-3.4,3.38,3.38,0,0,0-5.09,0A5.13,5.13,0,0,0,392.66,50.09Z"/><path class="cls-1" d="M403.48,52.53l2-.32a2.84,2.84,0,0,0,.95,1.87,3.33,3.33,0,0,0,2.18.65,3.19,3.19,0,0,0,2.1-.58,1.72,1.72,0,0,0,.68-1.35,1.24,1.24,0,0,0-.6-1.09,8.39,8.39,0,0,0-2.1-.7,20.22,20.22,0,0,1-3.13-1,3.11,3.11,0,0,1-1.4-4.28,3.26,3.26,0,0,1,1-1.14,4,4,0,0,1,1.3-.6,6.08,6.08,0,0,1,1.78-.25,7.08,7.08,0,0,1,2.5.41,3.48,3.48,0,0,1,1.59,1.11,4.43,4.43,0,0,1,.71,1.88l-2,.27a2.23,2.23,0,0,0-.79-1.46,2.92,2.92,0,0,0-1.86-.52,3.34,3.34,0,0,0-2,.47A1.34,1.34,0,0,0,405.8,47a1.17,1.17,0,0,0,.25.72,1.88,1.88,0,0,0,.79.55c.21.07.81.25,1.81.52a25.14,25.14,0,0,1,3,1A3.16,3.16,0,0,1,413,50.83a3,3,0,0,1,.49,1.75,3.46,3.46,0,0,1-.6,1.94,3.89,3.89,0,0,1-1.72,1.4,6.35,6.35,0,0,1-2.56.49,5.63,5.63,0,0,1-3.59-1A4.53,4.53,0,0,1,403.48,52.53Z"/></g></g><g id="LOGO-CUADRADO"><rect id="Rectangle-path" class="cls-5" x="18.69" y="16.69" width="123.91" height="123.9"/><rect id="Rectangle-path-2" data-name="Rectangle-path" class="cls-6" x="18.69" y="16.69" width="123.91" height="123.91" transform="translate(-17.61 23.55) rotate(-15)"/><path id="Shape-8" data-name="Shape" class="cls-5" d="M80.64,16.69h62V78.63a62.15,62.15,0,0,1-61.95,62h-62v-62A62.13,62.13,0,0,1,80.64,16.69Z"/><path id="Shape-9" data-name="Shape" class="cls-7" d="M62.21,85.22l66.33.08c-4.93,25.21-27.3,43.19-47,42.62H62.46c.07,8,.12,12.68.12,12.68H18.69V78.65a62.15,62.15,0,0,1,62-62h62l-.36,42.73H80.07c-17.36,1.3-17.84,19.09-17.84,19.09C62.21,80.76,62.21,83,62.21,85.22Z"/></g></g></g></g></g></svg>