<?xml version="1.0" encoding="UTF-8"?>
<svg width="79px" height="56px" viewBox="0 0 79 56" version="1.1" xmlns="http://www.w3.org/2000/svg" xmlns:xlink="http://www.w3.org/1999/xlink">
    <!-- Generator: Sketch 50.2 (55047) - http://www.bohemiancoding.com/sketch -->
    <title>close-envelope</title>
    <desc>Created with Sketch.</desc>
    <defs></defs>
    <g id="Web" stroke="none" stroke-width="1" fill="none" fill-rule="evenodd">
        <g id="Desktop-Copy-4" transform="translate(-96.000000, -518.000000)" fill="#DADADA" fill-rule="nonzero">
            <g id="Stacked-Group" transform="translate(96.000000, 248.000000)">
                <g id="Group-3" transform="translate(0.000000, 270.000000)">
                    <g id="close-envelope">
                        <path d="M40.0085297,39.3923826 L30.1595211,31 L2,54.4997786 C3.02356902,55.4242693 4.40538721,56 5.92936775,56 L74.0876917,56 C75.6059858,56 76.9821175,55.4242693 78,54.4997786 L49.8575383,31 L40.0085297,39.3923826 Z" id="Shape"></path>
                        <path d="M78,1.53566667 C76.9765076,0.583666667 75.6004788,0 74.0709262,0 L5.91770163,0 C4.39952117,0 3.02349244,0.589333333 2,1.547 L39.9943139,34 L78,1.53566667 Z" id="Shape"></path>
                        <polygon id="Shape" points="0 5 0 52 28 28.7658883"></polygon>
                        <polygon id="Shape" points="51 28.7742751 79 52 79 5"></polygon>
                    </g>
                </g>
            </g>
        </g>
    </g>
</svg>