<?xml version="1.0" encoding="UTF-8"?>
<svg width="246px" height="247px" viewBox="0 0 246 247" version="1.1" xmlns="http://www.w3.org/2000/svg" xmlns:xlink="http://www.w3.org/1999/xlink">
    <!-- Generator: Sketch 50.2 (55047) - http://www.bohemiancoding.com/sketch -->
    <title>gear</title>
    <desc>Created with Sketch.</desc>
    <defs></defs>
    <g id="Web" stroke="none" stroke-width="1" fill="none" fill-rule="evenodd">
        <g id="Desktop-Copy" transform="translate(-241.000000, -445.000000)" fill="#DADADA" fill-rule="nonzero" stroke="#485DC5">
            <g id="Stacked-Group-6" transform="translate(97.000000, 436.000000)">
                <g id="Group">
                    <g id="Stacked-Group" transform="translate(10.000000, 10.000000)">
                        <g id="gear" transform="translate(135.000000, 0.000000)">
                            <path d="M184.019755,107.422185 L184.019755,76.7301322 L165.617779,70.5917216 C164.084281,65.9879137 162.550784,59.8495031 159.483788,55.2456952 L168.684775,36.8304635 L145.682306,16.8806291 L128.813828,24.5536423 C124.213335,21.484437 119.612841,19.9498344 113.478849,18.4152317 L107.344857,0 L76.6748979,0 L70.5409061,18.4152317 C65.9404122,19.9498344 59.8064204,21.484437 55.2059265,24.5536423 L38.3374489,16.8806291 L16.8684775,38.3650661 L26.0694653,56.7802978 C23.0024694,61.3841058 21.4689714,65.9879137 19.9354735,72.1263243 L0,76.7301322 L0,107.422185 L18.4019755,113.560596 C19.9354735,118.164404 21.4689714,124.302814 24.5359673,128.906622 L16.8684775,145.787251 L38.3374489,167.271688 L56.7394244,158.064072 C61.3399183,161.133278 65.9404122,162.66788 72.074404,164.202483 L76.6748979,184.152317 L107.344857,184.152317 L113.478849,165.737086 C118.079343,164.202483 124.213335,162.66788 128.813828,159.598675 L147.215804,168.806291 L168.684775,147.321854 L159.483788,128.906622 C162.550784,124.302814 164.084281,119.699006 165.617779,113.560596 L184.019755,107.422185 Z M46.0049387,92.0761586 C46.0049387,65.9879137 65.9404122,46.0380793 92.0098775,46.0380793 C118.079343,46.0380793 138.014816,65.9879137 138.014816,92.0761586 C138.014816,118.164404 118.079343,138.114238 92.0098775,138.114238 C65.9404122,138.114238 46.0049387,118.164404 46.0049387,92.0761586 Z" id="Shape"></path>
                            <path d="M115.012347,92.7955036 C115.012347,105.104935 105.029275,115.095198 92.7287046,115.095198 C80.4281341,115.095198 70.4450624,105.104935 70.4450624,92.7955036 C70.4450624,80.4860722 80.4281341,70.495809 92.7287046,70.495809 C105.029275,70.495809 115.012347,80.4860722 115.012347,92.7955036 Z" id="Shape"></path>
                            <path d="M244.401237,46.6135553 L244.401237,31.0757035 L235.257755,31.0757035 C235.257755,27.9681332 233.733842,24.8605628 232.209928,23.3067777 L238.305583,17.0916369 L227.638187,6.21514071 L221.542533,12.4302814 C218.494706,10.8764962 216.970792,9.32271106 213.922965,9.32271106 L213.922965,0 L198.683829,0 L198.683829,9.32271106 C195.636002,9.32271106 192.588175,10.8764962 191.064261,12.4302814 L184.968607,6.21514071 L174.301212,17.0916369 L180.396866,23.3067777 C178.872952,26.414348 177.349039,27.9681332 177.349039,31.0757035 L168.205557,31.0757035 L168.205557,46.6135553 L177.349039,46.6135553 C177.349039,49.7211257 178.872952,52.828696 180.396866,54.3824812 L174.301212,60.5976219 L184.968607,71.4741181 L191.064261,65.2589774 C194.112088,66.8127626 195.636002,68.3665478 198.683829,68.3665478 L198.683829,77.6892589 L213.922965,77.6892589 L213.922965,68.3665478 C216.970792,68.3665478 220.01862,66.8127626 221.542533,65.2589774 L227.638187,71.4741181 L238.305583,60.5976219 L232.209928,54.3824812 C233.733842,51.2749108 235.257755,49.7211257 235.257755,46.6135553 L244.401237,46.6135553 Z M206.303397,54.3824812 C197.159916,54.3824812 191.064261,48.1673405 191.064261,38.8446294 C191.064261,29.5219184 197.159916,23.3067777 206.303397,23.3067777 C215.446879,23.3067777 221.542533,29.5219184 221.542533,38.8446294 C221.542533,48.1673405 215.446879,54.3824812 206.303397,54.3824812 Z" id="Shape"></path>
                            <path d="M235.282401,180.699461 C233.762595,176.136759 232.242789,171.574056 229.203177,167.011354 L233.762595,157.885949 L223.123953,147.239643 L215.524923,153.323246 C210.965505,150.281445 206.406087,148.760544 201.846669,147.239643 L198.807057,138.114238 L183.608997,138.114238 L180.569385,147.239643 C176.009967,148.760544 171.450548,150.281445 166.89113,153.323246 L157.772294,148.760544 L147.133652,159.40685 L151.69307,168.532255 C148.653458,173.094957 147.133652,177.65766 145.613846,182.220362 L138.014816,183.741263 L138.014816,198.950271 L147.133652,201.992073 C148.653458,206.554776 150.173264,211.117478 153.212876,215.680181 L148.653458,224.805586 L159.2921,235.451891 L168.410936,230.889189 C172.970354,233.930991 177.529773,235.451891 182.089191,236.972792 L183.608997,244.577296 L198.807057,244.577296 L201.846669,235.451891 C206.406087,233.930991 210.965505,232.41009 215.524923,229.368288 L224.643759,233.930991 L235.282401,223.284685 L229.203177,215.680181 C232.242789,211.117478 233.762595,206.554776 235.282401,201.992073 L244.401237,198.950271 L244.401237,183.741263 L235.282401,180.699461 Z M191.208027,214.15928 C179.049579,214.15928 168.410936,203.512974 168.410936,191.345767 C168.410936,179.178561 179.049579,168.532255 191.208027,168.532255 C203.366475,168.532255 214.005117,179.178561 214.005117,191.345767 C214.005117,203.512974 203.366475,214.15928 191.208027,214.15928 Z" id="Shape"></path>
                        </g>
                    </g>
                </g>
            </g>
        </g>
    </g>
</svg>