<?xml version="1.0" encoding="UTF-8"?>
<svg width="247px" height="246px" viewBox="0 0 247 246" version="1.1" xmlns="http://www.w3.org/2000/svg" xmlns:xlink="http://www.w3.org/1999/xlink">
    <!-- Generator: Sketch 50.2 (55047) - http://www.bohemiancoding.com/sketch -->
    <title>fire</title>
    <desc>Created with Sketch.</desc>
    <defs></defs>
    <g id="Web" stroke="none" stroke-width="1" fill="none" fill-rule="evenodd">
        <g id="Desktop-Copy" transform="translate(-792.000000, -1749.000000)" fill="#DADADA" fill-rule="nonzero" stroke="#485DC5">
            <g id="Stacked-Group-2" transform="translate(647.000000, 436.000000)">
                <g id="Group-5" transform="translate(0.000000, 1304.000000)">
                    <g id="Stacked-Group-5" transform="translate(10.000000, 10.000000)">
                        <g id="fire" transform="translate(136.000000, 0.000000)">
                            <path d="M68.9663398,244.470419 C50.1807362,210.567545 60.1847506,191.140844 74.6228967,172.838097 C90.4340909,152.793954 94.5088414,132.952876 94.5088414,132.952876 C94.5088414,132.952876 106.938151,146.966998 101.966005,168.885466 C123.924206,147.685283 128.06819,113.908007 124.752368,100.971999 C174.386105,131.055631 195.59859,196.194968 167.011388,244.470419 C319.05877,169.856778 204.832048,58.2118045 184.945575,45.6356272 C191.574575,58.2113462 192.831882,79.5009131 179.440698,89.8328506 C156.77219,15.2792579 100.723496,0 100.723496,0 C107.352497,38.447734 76.6946245,80.4901021 47.1312797,111.904876 C46.0927733,96.573821 44.9892611,85.9948154 35.693968,71.3238309 C33.6074421,99.1742239 9.06750879,121.876525 2.42212466,149.781007 C-6.57932138,187.570046 9.16475315,215.23892 68.9663398,244.470419 Z" id="Shape"></path>
                        </g>
                    </g>
                </g>
            </g>
        </g>
    </g>
</svg>