<?xml version="1.0" encoding="UTF-8"?>
<svg width="79px" height="66px" viewBox="0 0 79 66" version="1.1" xmlns="http://www.w3.org/2000/svg" xmlns:xlink="http://www.w3.org/1999/xlink">
    <!-- Generator: Sketch 50.2 (55047) - http://www.bohemiancoding.com/sketch -->
    <title>old-typical-phone</title>
    <desc>Created with Sketch.</desc>
    <defs></defs>
    <g id="Web" stroke="none" stroke-width="1" fill="none" fill-rule="evenodd">
        <g id="Desktop-Copy-4" transform="translate(-96.000000, -248.000000)" fill="#DADADA" fill-rule="nonzero">
            <g id="Stacked-Group" transform="translate(96.000000, 248.000000)">
                <g id="Group">
                    <g id="old-typical-phone">
                        <path d="M39.9232912,12.3675355 C53.2577352,12.5034953 61.6111955,11.6413507 62.7394591,27 L79,27 C79,3.20704976 59.0314278,0 39.5,0 C19.967033,0 0,3.20704976 0,27 L16.1343231,27 C17.3826475,11.3486374 26.6996727,12.2331754 39.9232912,12.3675355 Z" id="Shape"></path>
                        <path d="M8,32.9973016 C11.8903799,32.9973016 15.1275751,33.2133556 15.8472878,29.6624936 C15.9440559,29.1798795 16,28.6327296 16,28 L15.8155358,28 L0,28 C0,33.2821001 3.58193158,32.9973016 8,32.9973016 Z" id="Shape"></path>
                        <path d="M63.1489842,28 L63,28 C63,28.6724252 63.0586907,29.2515403 63.1685478,29.7551186 C63.924003,33.2120357 67.1414597,32.9972744 71,32.9972744 C75.4183597,32.9972744 79,33.2831291 79,28 L63.1489842,28 Z" id="Shape"></path>
                        <path d="M55.8620593,24.4247733 L55.8620593,22.1033139 C55.8620593,21.0651747 54.6608455,21 53.1776346,21 L50.754953,21 C49.2733002,21 48.0720863,21.0651747 48.0720863,22.1033139 L48.0720863,24.1035553 L48.0720863,25.6553329 L30.9341457,25.6553329 L30.9341457,24.1035553 L30.9341457,22.1033139 C30.9341457,21.0651747 29.7329318,21 28.251279,21 L25.8270393,21 C24.3453865,21 23.1441726,21.0651747 23.1441726,22.1033139 L23.1441726,24.4247733 L23.1441726,26.4513949 C19.2398382,30.4922239 6.46428239,47.6936791 6,49.7761647 L6.00623198,63.6723335 C6.00623198,64.9556536 7.05476235,66 8.34322389,66 L70.6630081,66 C71.9514696,66 73,64.9556536 73,63.6723335 L73,49.7063347 C72.5403916,47.6843684 59.7679518,30.4906721 55.8620593,26.4498431 L55.8620593,24.4247733 Z M30.0897126,51.6460568 C28.8355269,51.6460568 27.8181565,50.6342977 27.8181565,49.383565 C27.8181565,48.1328322 28.8355269,47.1210731 30.0897126,47.1210731 C31.3438982,47.1210731 32.3612687,48.1328322 32.3612687,49.383565 C32.3612687,50.6342977 31.3438982,51.6460568 30.0897126,51.6460568 Z M30.0897126,43.8871685 C28.8355269,43.8871685 27.8181565,42.8754095 27.8181565,41.6246767 C27.8181565,40.3739439 28.8355269,39.3621849 30.0897126,39.3621849 C31.3438982,39.3621849 32.3612687,40.3739439 32.3612687,41.6246767 C32.3612687,42.8754095 31.3438982,43.8871685 30.0897126,43.8871685 Z M30.0897126,36.1298321 C28.8355269,36.1298321 27.8181565,35.118073 27.8181565,33.8673403 C27.8181565,32.6181592 28.8355269,31.6048484 30.0897126,31.6048484 C31.3438982,31.6048484 32.3612687,32.6181592 32.3612687,33.8673403 C32.3612687,35.118073 31.3438982,36.1298321 30.0897126,36.1298321 Z M39.4376802,51.6460568 C38.1834946,51.6460568 37.1661241,50.6342977 37.1661241,49.383565 C37.1661241,48.1328322 38.1834946,47.1210731 39.4376802,47.1210731 C40.6934239,47.1210731 41.7092364,48.1328322 41.7092364,49.383565 C41.7092364,50.6342977 40.6934239,51.6460568 39.4376802,51.6460568 Z M39.4376802,43.8871685 C38.1834946,43.8871685 37.1661241,42.8754095 37.1661241,41.6246767 C37.1661241,40.3739439 38.1834946,39.3621849 39.4376802,39.3621849 C40.6934239,39.3621849 41.7092364,40.3739439 41.7092364,41.6246767 C41.7092364,42.8754095 40.6934239,43.8871685 39.4376802,43.8871685 Z M39.4376802,36.1298321 C38.1834946,36.1298321 37.1661241,35.118073 37.1661241,33.8673403 C37.1661241,32.6181592 38.1834946,31.6048484 39.4376802,31.6048484 C40.6934239,31.6048484 41.7092364,32.6181592 41.7092364,33.8673403 C41.7092364,35.118073 40.6934239,36.1298321 39.4376802,36.1298321 Z M48.7856478,51.6460568 C47.5299042,51.6460568 46.5140917,50.6342977 46.5140917,49.383565 C46.5140917,48.1328322 47.5299042,47.1210731 48.7856478,47.1210731 C50.0413915,47.1210731 51.057204,48.1328322 51.057204,49.383565 C51.057204,50.6342977 50.0413915,51.6460568 48.7856478,51.6460568 Z M48.7856478,43.8871685 C47.5299042,43.8871685 46.5140917,42.8754095 46.5140917,41.6246767 C46.5140917,40.3739439 47.5299042,39.3621849 48.7856478,39.3621849 C50.0413915,39.3621849 51.057204,40.3739439 51.057204,41.6246767 C51.057204,42.8754095 50.0413915,43.8871685 48.7856478,43.8871685 Z M48.7856478,36.1298321 C47.5299042,36.1298321 46.5140917,35.118073 46.5140917,33.8673403 C46.5140917,32.6181592 47.5299042,31.6048484 48.7856478,31.6048484 C50.0413915,31.6048484 51.057204,32.6181592 51.057204,33.8673403 C51.057204,35.118073 50.0413915,36.1298321 48.7856478,36.1298321 Z" id="Shape"></path>
                    </g>
                </g>
            </g>
        </g>
    </g>
</svg>