<?xml version="1.0" encoding="UTF-8"?>
<svg width="79px" height="113px" viewBox="0 0 79 113" version="1.1" xmlns="http://www.w3.org/2000/svg" xmlns:xlink="http://www.w3.org/1999/xlink">
    <!-- Generator: Sketch 50.2 (55047) - http://www.bohemiancoding.com/sketch -->
    <title>facebook-placeholder-for-locate-places-on-maps</title>
    <desc>Created with Sketch.</desc>
    <defs></defs>
    <g id="Web" stroke="none" stroke-width="1" fill="none" fill-rule="evenodd">
        <g id="Desktop-Copy-4" transform="translate(-554.000000, -225.000000)" fill="#DADADA" fill-rule="nonzero">
            <g id="Group-6" transform="translate(554.000000, 225.000000)">
                <g id="facebook-placeholder-for-locate-places-on-maps">
                    <path d="M77.1336672,28.1246161 C76.7254736,26.6171192 75.8965552,25.010839 75.2833316,23.60449 C67.9454444,6.22755415 51.9123127,0 38.9663621,0 C21.6358626,0 2.54834409,11.4509861 0,35.0541625 L0,39.8764185 C0,40.0776633 0.0703874075,41.885451 0.17036952,42.789739 C1.59891395,54.0384294 10.6066358,65.9933157 17.3339656,77.2420062 C24.5716041,89.2938367 32.0817272,101.149414 39.5222627,113 C44.1102419,105.266525 48.6816907,97.4313773 53.1651553,89.8980965 C54.38707,87.6872938 55.8054829,85.4778047 57.0287307,83.3676243 C57.8440515,81.9625889 59.4016395,80.5575535 60.1132456,79.2502505 C67.3506174,66.1932469 79,53.0353582 79,40.0774006 L79,34.7541344 C79.0002666,33.3493617 77.2331161,28.4275342 77.1336672,28.1246161 Z M39.2836387,52.332315 C34.1893501,52.332315 28.613281,49.8222723 25.8609734,42.8903614 C25.4509134,41.7869304 25.4839742,39.5756022 25.4839742,39.3730438 L25.4839742,36.2592668 C25.4839742,27.4223611 33.0986119,23.4037706 39.7230268,23.4037706 C47.8783678,23.4037706 54.1857727,29.833095 54.1857727,37.8692251 C54.1857727,45.9050924 47.4389797,52.332315 39.2836387,52.332315 Z" id="Facebook_Places"></path>
                </g>
            </g>
        </g>
    </g>
</svg>