<?xml version="1.0" encoding="UTF-8"?>
<svg width="247px" height="247px" viewBox="0 0 247 247" version="1.1" xmlns="http://www.w3.org/2000/svg" xmlns:xlink="http://www.w3.org/1999/xlink">
    <!-- Generator: Sketch 50.2 (55047) - http://www.bohemiancoding.com/sketch -->
    <title>computer</title>
    <desc>Created with Sketch.</desc>
    <defs></defs>
    <g id="Web" stroke="none" stroke-width="1" fill="none" fill-rule="evenodd">
        <g id="Desktop-Copy" transform="translate(-792.000000, -1208.000000)" fill="#DADADA" fill-rule="nonzero" stroke="#485DC5">
            <g id="Stacked-Group-2" transform="translate(647.000000, 436.000000)">
                <g id="Group-4" transform="translate(0.000000, 763.000000)">
                    <g id="Stacked-Group-4" transform="translate(10.000000, 10.000000)">
                        <g id="computer" transform="translate(136.000000, 0.000000)">
                            <path d="M224.619586,22.5963064 C224.619586,20.100469 222.512567,18.0770451 219.913618,18.0770451 L25.0984925,18.0770451 C22.4995436,18.0770451 20.3925251,20.100469 20.3925251,22.5963064 L20.3925251,155.454152 C20.3925251,157.949989 22.4995436,159.973413 25.0984925,159.973413 L219.913618,159.973413 C222.512567,159.973413 224.619586,157.949989 224.619586,155.454152 L224.619586,22.5963064 Z M29.8044598,150.934891 L29.8044598,130.570497 L68.7711243,130.570497 C70.6378246,134.980091 75.1417491,138.100791 80.395491,138.100791 C87.3151454,138.100791 92.9447373,132.69455 92.9447373,126.049428 C92.9447373,119.404306 87.3151454,113.998064 80.395491,113.998064 C75.1398667,113.998064 70.6353148,117.120573 68.7692419,121.531974 L29.8044598,121.531974 L29.8044598,111.473304 L101.97894,111.473304 L113.808487,122.833521 C113.108239,124.334519 112.7098,125.992184 112.7098,127.740234 C112.7098,134.385356 118.339392,139.791597 125.259046,139.791597 C132.178701,139.791597 137.808293,134.385356 137.808293,127.740234 C137.808293,121.095112 132.178701,115.688871 125.259046,115.688871 C123.608193,115.688871 122.034517,116.004616 120.589472,116.563197 L107.25527,103.758021 C106.373058,102.910208 105.17586,102.434179 103.927838,102.434179 L29.8044598,102.434179 L29.8044598,93.5462981 L159.121305,93.5462981 C160.988005,97.955892 165.49193,101.07599 170.745672,101.07599 C177.665326,101.07599 183.294918,95.6697484 183.294918,89.0246266 C183.294918,82.3795048 177.665326,76.9732632 170.745672,76.9732632 C165.490047,76.9732632 160.984868,80.0957714 159.119422,84.5077756 L29.8044598,84.5077756 L29.8044598,75.6198951 L62.2022213,75.6198951 C63.4502439,75.6198951 64.6474419,75.1438662 65.529654,74.2960528 L78.8682478,61.4866586 C80.3132935,62.0452393 81.8863415,62.3609851 83.5371948,62.3609851 C90.4568492,62.3609851 96.0864411,56.9547434 96.0864411,50.3096217 C96.0864411,43.6644999 90.4568492,38.2582583 83.5371948,38.2582583 C76.6175405,38.2582583 70.9879486,43.6644999 70.9879486,50.3096217 C70.9879486,52.0576719 71.3863872,53.7159395 72.0866351,55.2169368 L60.2526959,66.5813725 L29.8044598,66.5813725 L29.8044598,27.1155677 L215.208278,27.1155677 L215.207651,38.2588608 L142.115821,38.2588608 C140.867799,38.2588608 139.670601,38.7348897 138.788389,39.5827031 L125.449795,52.3920973 C124.004749,51.8335166 122.431701,51.5177708 120.780848,51.5177708 C113.861193,51.5177708 108.231602,56.9240125 108.231602,63.5691342 C108.231602,70.214256 113.861193,75.6204976 120.780848,75.6204976 C127.700502,75.6204976 133.330094,70.214256 133.330094,63.5691342 C133.330094,61.8204814 132.931655,60.1628164 132.231408,58.6618191 L144.065347,47.2973834 L215.208278,47.2973834 L215.208278,123.223383 L177.811525,123.223383 C175.946079,118.811379 171.4409,115.688871 166.185276,115.688871 C159.265621,115.688871 153.636029,121.095112 153.636029,127.740234 C153.636029,134.385356 159.265621,139.791597 166.185276,139.791597 C171.439017,139.791597 175.942942,136.6715 177.809642,132.261906 L215.208278,132.261906 L215.208278,150.934891 L29.8044598,150.934891 Z M77.2581795,126.049428 C77.2581795,124.388147 78.6655774,123.036587 80.395491,123.036587 C82.1254046,123.036587 83.5328026,124.388147 83.5328026,126.049428 C83.5328026,127.710708 82.1254046,129.062269 80.395491,129.062269 C78.6655774,129.062269 77.2581795,127.710106 77.2581795,126.049428 Z M125.259046,124.727393 C126.98896,124.727393 128.396358,126.078954 128.396358,127.740234 C128.396358,129.401515 126.98896,130.753075 125.259046,130.753075 C123.529133,130.753075 122.121735,129.401515 122.121735,127.740234 C122.121735,126.078954 123.52976,124.727393 125.259046,124.727393 Z M167.60836,89.0252292 C167.60836,87.3639487 169.015758,86.0123883 170.745672,86.0123883 C172.475585,86.0123883 173.882983,87.3639487 173.882983,89.0252292 C173.882983,90.6865096 172.475585,92.03807 170.745672,92.03807 C169.015758,92.03807 167.60836,90.6865096 167.60836,89.0252292 Z M80.3998833,50.3102242 C80.3998833,48.6489438 81.8072812,47.2973834 83.5371948,47.2973834 C85.2671084,47.2973834 86.6745064,48.6489438 86.6745064,50.3102242 C86.6745064,51.9715047 85.2671084,53.3230651 83.5371948,53.3230651 C81.8072812,53.3230651 80.3998833,51.9715047 80.3998833,50.3102242 Z M123.918159,63.5691342 C123.918159,65.2304147 122.510761,66.5819751 120.780848,66.5819751 C119.050934,66.5819751 117.643536,65.2304147 117.643536,63.5691342 C117.643536,61.9078538 119.050934,60.5562934 120.780848,60.5562934 C122.510761,60.5562934 123.918159,61.9078538 123.918159,63.5691342 Z M169.322587,127.740234 C169.322587,129.401515 167.915189,130.753075 166.185276,130.753075 C164.455362,130.753075 163.047964,129.401515 163.047964,127.740234 C163.047964,126.078954 164.455362,124.727393 166.185276,124.727393 C167.915189,124.727393 169.322587,126.078954 169.322587,127.740234 Z" id="Shape"></path>
                            <path d="M226.643152,188.896685 L181.799675,188.896685 L181.799675,178.050458 L224.494093,178.050458 C234.943223,178.050458 243.444083,169.886865 243.444083,159.852297 L243.444083,18.1981613 C243.444083,8.16359357 234.943223,-2.84217094e-14 224.494093,-2.84217094e-14 L20.518645,-2.84217094e-14 C10.0695152,-2.84217094e-14 1.56865578,8.16359357 1.56865578,18.1981613 L1.56865578,159.852297 C1.56865578,169.886865 10.0695152,178.050458 20.518645,178.050458 L63.2149455,178.050458 L63.2149455,188.896685 L18.3702141,188.896685 C8.3276798,188.896685 0.15749304,196.742726 0.15749304,206.386829 L0.15749304,227.442971 C0.15749304,237.087075 8.3276798,244.933115 18.3702141,244.933115 L226.643152,244.933115 C236.685686,244.933115 244.855873,237.087075 244.855873,227.442971 L244.855873,206.386829 C244.855245,196.742726 236.685058,188.896685 226.643152,188.896685 Z M10.9805904,159.852297 L10.9805904,18.1981613 C10.9805904,13.1474349 15.259256,9.03852255 20.518645,9.03852255 L224.494093,9.03852255 C229.753482,9.03852255 234.032148,13.1474349 234.032148,18.1981613 L234.032148,159.852297 C234.032148,164.903023 229.753482,169.011936 224.494093,169.011936 L20.518645,169.011936 C15.259256,169.011936 10.9805904,164.903023 10.9805904,159.852297 Z M72.6275076,178.050458 L172.387741,178.050458 L172.387741,188.896685 L72.6275076,188.896685 L72.6275076,178.050458 Z M235.443311,227.442971 C235.443311,232.103233 231.495318,235.894592 226.642524,235.894592 L18.3702141,235.894592 C13.5174206,235.894592 9.56942771,232.103233 9.56942771,227.442971 L9.56942771,206.386829 C9.56942771,201.726567 13.5174206,197.935208 18.3702141,197.935208 L226.643152,197.935208 C231.495945,197.935208 235.443938,201.726567 235.443938,206.386829 L235.443938,227.442971 L235.443311,227.442971 Z" id="Shape"></path>
                            <path d="M108.859691,212.395639 L27.9214454,212.395639 C25.3224965,212.395639 23.2154781,214.419063 23.2154781,216.9149 C23.2154781,219.410738 25.3224965,221.434161 27.9214454,221.434161 L108.860319,221.434161 C111.459268,221.434161 113.566286,219.410738 113.566286,216.9149 C113.566286,214.419063 111.45864,212.395639 108.859691,212.395639 Z" id="Shape"></path>
                            <path d="M218.032486,212.395639 L203.915212,212.395639 C201.316263,212.395639 199.209244,214.419063 199.209244,216.9149 C199.209244,219.410738 201.316263,221.434161 203.915212,221.434161 L218.032486,221.434161 C220.631435,221.434161 222.738454,219.410738 222.738454,216.9149 C222.738454,214.419063 220.631435,212.395639 218.032486,212.395639 Z" id="Shape"></path>
                        </g>
                    </g>
                </g>
            </g>
        </g>
    </g>
</svg>